<svg width="764" height="88" viewBox="0 0 764 88" fill="none" xmlns="http://www.w3.org/2000/svg">
<path d="M94.4168 64V19.585H114.703C118.021 19.585 120.835 20.152 123.145 21.286C125.455 22.42 127.198 24.037 128.374 26.137C129.592 28.237 130.201 30.778 130.201 33.76C130.201 36.742 129.592 39.304 128.374 41.446C127.198 43.546 125.455 45.163 123.145 46.297C120.835 47.431 118.021 47.998 114.703 47.998H104.182V64H94.4168ZM104.182 40.438H113.065C115.585 40.438 117.496 39.871 118.798 38.737C120.142 37.603 120.814 35.944 120.814 33.76C120.814 31.576 120.142 29.938 118.798 28.846C117.496 27.754 115.585 27.208 113.065 27.208H104.182V40.438ZM146.963 64.693C142.973 64.693 140.054 63.664 138.206 61.606C136.358 59.506 135.434 56.398 135.434 52.282V19.585H144.947V51.904C144.947 52.954 145.115 53.878 145.451 54.676C145.787 55.432 146.27 55.999 146.9 56.377C147.572 56.755 148.412 56.944 149.42 56.944C149.84 56.944 150.281 56.923 150.743 56.881C151.205 56.839 151.646 56.755 152.066 56.629L151.94 64C151.142 64.21 150.323 64.378 149.483 64.504C148.685 64.63 147.845 64.693 146.963 64.693ZM166.871 64.693C164.603 64.693 162.566 64.252 160.76 63.37C158.954 62.488 157.547 61.291 156.539 59.779C155.531 58.267 155.027 56.566 155.027 54.676C155.027 52.408 155.615 50.623 156.791 49.321C157.967 47.977 159.878 47.032 162.524 46.486C165.17 45.898 168.677 45.604 173.045 45.604H176.384V50.518H173.108C171.47 50.518 170.084 50.581 168.95 50.707C167.858 50.833 166.955 51.064 166.241 51.4C165.527 51.694 165.002 52.072 164.666 52.534C164.372 52.996 164.225 53.584 164.225 54.298C164.225 55.474 164.624 56.44 165.422 57.196C166.262 57.952 167.459 58.33 169.013 58.33C170.231 58.33 171.302 58.057 172.226 57.511C173.192 56.923 173.948 56.146 174.494 55.18C175.04 54.172 175.313 53.038 175.313 51.778V44.533C175.313 42.685 174.893 41.383 174.053 40.627C173.213 39.829 171.785 39.43 169.769 39.43C168.089 39.43 166.304 39.703 164.414 40.249C162.566 40.753 160.718 41.53 158.87 42.58L156.287 36.217C157.379 35.461 158.702 34.81 160.256 34.264C161.852 33.676 163.511 33.235 165.233 32.941C166.955 32.605 168.593 32.437 170.147 32.437C173.381 32.437 176.027 32.92 178.085 33.886C180.185 34.81 181.76 36.259 182.81 38.233C183.86 40.165 184.385 42.664 184.385 45.73V64H175.502V57.763H175.943C175.691 59.191 175.145 60.43 174.305 61.48C173.507 62.488 172.478 63.286 171.218 63.874C169.958 64.42 168.509 64.693 166.871 64.693ZM193.568 75.34L200.372 60.409V64.315L186.764 33.067H196.781L205.538 55.243H203.522L212.531 33.067H221.981L203.27 75.34H193.568ZM224.766 64V33.067H234.09V38.863H233.397C234.363 36.805 235.791 35.23 237.681 34.138C239.613 33.004 241.797 32.437 244.233 32.437C246.711 32.437 248.748 32.92 250.344 33.886C251.94 34.81 253.137 36.238 253.935 38.17C254.733 40.06 255.132 42.475 255.132 45.415V64H245.619V45.856C245.619 44.428 245.43 43.273 245.052 42.391C244.716 41.467 244.191 40.816 243.477 40.438C242.805 40.018 241.944 39.808 240.894 39.808C239.55 39.808 238.374 40.102 237.366 40.69C236.4 41.236 235.644 42.034 235.098 43.084C234.552 44.134 234.279 45.352 234.279 46.738V64H224.766ZM261.856 27.082V18.199H272.125V27.082H261.856ZM262.234 64V33.067H271.747V64H262.234ZM294.274 64.693C289.864 64.693 286.588 63.622 284.446 61.48C282.304 59.338 281.233 56.188 281.233 52.03V40.186H275.374V33.067H281.233V23.995H290.746V33.067H299.881V40.186H290.746V51.652C290.746 53.416 291.145 54.739 291.943 55.621C292.783 56.503 294.106 56.944 295.912 56.944C296.458 56.944 297.025 56.881 297.613 56.755C298.243 56.629 298.915 56.461 299.629 56.251L301.015 63.181C300.133 63.643 299.083 64 297.865 64.252C296.647 64.546 295.45 64.693 294.274 64.693ZM320.319 64.693C316.665 64.693 313.515 64.042 310.869 62.74C308.265 61.396 306.249 59.527 304.821 57.133C303.435 54.697 302.742 51.841 302.742 48.565C302.742 45.373 303.414 42.58 304.758 40.186C306.102 37.75 307.971 35.86 310.365 34.516C312.801 33.13 315.552 32.437 318.618 32.437C321.642 32.437 324.246 33.088 326.43 34.39C328.614 35.65 330.294 37.456 331.47 39.808C332.688 42.16 333.297 44.953 333.297 48.187V50.581H310.554V45.667H326.43L325.422 46.549C325.422 43.987 324.855 42.055 323.721 40.753C322.629 39.409 321.054 38.737 318.996 38.737C317.442 38.737 316.119 39.094 315.027 39.808C313.935 40.522 313.095 41.551 312.507 42.895C311.919 44.239 311.625 45.856 311.625 47.746V48.25C311.625 50.392 311.94 52.156 312.57 53.542C313.242 54.886 314.229 55.894 315.531 56.566C316.875 57.238 318.534 57.574 320.508 57.574C322.188 57.574 323.889 57.322 325.611 56.818C327.333 56.314 328.887 55.537 330.273 54.487L332.793 60.85C331.239 62.026 329.328 62.971 327.06 63.685C324.834 64.357 322.587 64.693 320.319 64.693Z" fill="white"/>
<path d="M345.37 64L365.782 19.585H373.657L394.069 64H384.241L378.949 51.652L382.855 54.361H356.584L360.49 51.652L355.261 64H345.37ZM369.625 29.98L361.561 49.195L359.86 46.738H379.579L377.878 49.195L369.751 29.98H369.625ZM411.838 64.693C408.478 64.693 405.538 64.042 403.018 62.74C400.54 61.396 398.629 59.506 397.285 57.07C395.941 54.634 395.269 51.757 395.269 48.439C395.269 45.121 395.941 42.265 397.285 39.871C398.629 37.477 400.54 35.65 403.018 34.39C405.538 33.088 408.478 32.437 411.838 32.437C413.854 32.437 415.849 32.731 417.823 33.319C419.839 33.907 421.477 34.747 422.737 35.839L420.091 42.391C419.083 41.551 417.907 40.9 416.563 40.438C415.219 39.934 413.959 39.682 412.783 39.682C410.305 39.682 408.373 40.459 406.987 42.013C405.643 43.525 404.971 45.688 404.971 48.502C404.971 51.274 405.643 53.458 406.987 55.054C408.373 56.608 410.305 57.385 412.783 57.385C413.959 57.385 415.219 57.154 416.563 56.692C417.907 56.23 419.083 55.558 420.091 54.676L422.737 61.228C421.477 62.278 419.839 63.118 417.823 63.748C415.807 64.378 413.812 64.693 411.838 64.693ZM426.866 64V19.585H436.379V38.863H435.497C436.463 36.805 437.891 35.23 439.781 34.138C441.713 33.004 443.897 32.437 446.333 32.437C448.811 32.437 450.848 32.92 452.444 33.886C454.04 34.81 455.237 36.238 456.035 38.17C456.833 40.06 457.232 42.475 457.232 45.415V64H447.719V45.856C447.719 44.428 447.53 43.273 447.152 42.391C446.816 41.467 446.291 40.816 445.577 40.438C444.905 40.018 444.044 39.808 442.994 39.808C441.65 39.808 440.474 40.102 439.466 40.69C438.5 41.236 437.744 42.034 437.198 43.084C436.652 44.134 436.379 45.352 436.379 46.738V64H426.866ZM463.956 27.082V18.199H474.225V27.082H463.956ZM464.334 64V33.067H473.847V64H464.334ZM497.256 64.693C493.602 64.693 490.452 64.042 487.806 62.74C485.202 61.396 483.186 59.527 481.758 57.133C480.372 54.697 479.679 51.841 479.679 48.565C479.679 45.373 480.351 42.58 481.695 40.186C483.039 37.75 484.908 35.86 487.302 34.516C489.738 33.13 492.489 32.437 495.555 32.437C498.579 32.437 501.183 33.088 503.367 34.39C505.551 35.65 507.231 37.456 508.407 39.808C509.625 42.16 510.234 44.953 510.234 48.187V50.581H487.491V45.667H503.367L502.359 46.549C502.359 43.987 501.792 42.055 500.658 40.753C499.566 39.409 497.991 38.737 495.933 38.737C494.379 38.737 493.056 39.094 491.964 39.808C490.872 40.522 490.032 41.551 489.444 42.895C488.856 44.239 488.562 45.856 488.562 47.746V48.25C488.562 50.392 488.877 52.156 489.507 53.542C490.179 54.886 491.166 55.894 492.468 56.566C493.812 57.238 495.471 57.574 497.445 57.574C499.125 57.574 500.826 57.322 502.548 56.818C504.27 56.314 505.824 55.537 507.21 54.487L509.73 60.85C508.176 62.026 506.265 62.971 503.997 63.685C501.771 64.357 499.524 64.693 497.256 64.693ZM524.349 64L510.867 33.067H520.884L529.578 55.243H527.562L536.634 33.067H546.021L532.35 64H524.349ZM564.194 64.693C560.54 64.693 557.39 64.042 554.744 62.74C552.14 61.396 550.124 59.527 548.696 57.133C547.31 54.697 546.617 51.841 546.617 48.565C546.617 45.373 547.289 42.58 548.633 40.186C549.977 37.75 551.846 35.86 554.24 34.516C556.676 33.13 559.427 32.437 562.493 32.437C565.517 32.437 568.121 33.088 570.305 34.39C572.489 35.65 574.169 37.456 575.345 39.808C576.563 42.16 577.172 44.953 577.172 48.187V50.581H554.429V45.667H570.305L569.297 46.549C569.297 43.987 568.73 42.055 567.596 40.753C566.504 39.409 564.929 38.737 562.871 38.737C561.317 38.737 559.994 39.094 558.902 39.808C557.81 40.522 556.97 41.551 556.382 42.895C555.794 44.239 555.5 45.856 555.5 47.746V48.25C555.5 50.392 555.815 52.156 556.445 53.542C557.117 54.886 558.104 55.894 559.406 56.566C560.75 57.238 562.409 57.574 564.383 57.574C566.063 57.574 567.764 57.322 569.486 56.818C571.208 56.314 572.762 55.537 574.148 54.487L576.668 60.85C575.114 62.026 573.203 62.971 570.935 63.685C568.709 64.357 566.462 64.693 564.194 64.693ZM582.831 64V33.067H592.155V38.863H591.462C592.008 37.561 592.764 36.427 593.73 35.461C594.696 34.495 595.851 33.76 597.195 33.256C598.539 32.71 600.009 32.437 601.605 32.437C603.999 32.437 605.994 33.004 607.59 34.138C609.186 35.272 610.32 37.015 610.992 39.367H610.11C611.034 37.225 612.441 35.545 614.331 34.327C616.263 33.067 618.468 32.437 620.946 32.437C623.34 32.437 625.293 32.92 626.805 33.886C628.359 34.81 629.514 36.238 630.27 38.17C631.026 40.06 631.404 42.475 631.404 45.415V64H621.891V45.73C621.891 43.672 621.555 42.181 620.883 41.257C620.253 40.291 619.161 39.808 617.607 39.808C616.431 39.808 615.402 40.102 614.52 40.69C613.638 41.236 612.966 42.055 612.504 43.147C612.084 44.197 611.874 45.499 611.874 47.053V64H602.361V45.73C602.361 43.672 602.025 42.181 601.353 41.257C600.723 40.291 599.631 39.808 598.077 39.808C596.859 39.808 595.83 40.102 594.99 40.69C594.15 41.236 593.499 42.055 593.037 43.147C592.575 44.197 592.344 45.499 592.344 47.053V64H582.831ZM654.756 64.693C651.102 64.693 647.952 64.042 645.306 62.74C642.702 61.396 640.686 59.527 639.258 57.133C637.872 54.697 637.179 51.841 637.179 48.565C637.179 45.373 637.851 42.58 639.195 40.186C640.539 37.75 642.408 35.86 644.802 34.516C647.238 33.13 649.989 32.437 653.055 32.437C656.079 32.437 658.683 33.088 660.867 34.39C663.051 35.65 664.731 37.456 665.907 39.808C667.125 42.16 667.734 44.953 667.734 48.187V50.581H644.991V45.667H660.867L659.859 46.549C659.859 43.987 659.292 42.055 658.158 40.753C657.066 39.409 655.491 38.737 653.433 38.737C651.879 38.737 650.556 39.094 649.464 39.808C648.372 40.522 647.532 41.551 646.944 42.895C646.356 44.239 646.062 45.856 646.062 47.746V48.25C646.062 50.392 646.377 52.156 647.007 53.542C647.679 54.886 648.666 55.894 649.968 56.566C651.312 57.238 652.971 57.574 654.945 57.574C656.625 57.574 658.326 57.322 660.048 56.818C661.77 56.314 663.324 55.537 664.71 54.487L667.23 60.85C665.676 62.026 663.765 62.971 661.497 63.685C659.271 64.357 657.024 64.693 654.756 64.693ZM673.267 64V33.067H682.591V38.863H681.898C682.864 36.805 684.292 35.23 686.182 34.138C688.114 33.004 690.298 32.437 692.734 32.437C695.212 32.437 697.249 32.92 698.845 33.886C700.441 34.81 701.638 36.238 702.436 38.17C703.234 40.06 703.633 42.475 703.633 45.415V64H694.12V45.856C694.12 44.428 693.931 43.273 693.553 42.391C693.217 41.467 692.692 40.816 691.978 40.438C691.306 40.018 690.445 39.808 689.395 39.808C688.051 39.808 686.875 40.102 685.867 40.69C684.901 41.236 684.145 42.034 683.599 43.084C683.053 44.134 682.78 45.352 682.78 46.738V64H673.267ZM725.918 64.693C721.508 64.693 718.232 63.622 716.09 61.48C713.948 59.338 712.877 56.188 712.877 52.03V40.186H707.018V33.067H712.877V23.995H722.39V33.067H731.525V40.186H722.39V51.652C722.39 53.416 722.789 54.739 723.587 55.621C724.427 56.503 725.75 56.944 727.556 56.944C728.102 56.944 728.669 56.881 729.257 56.755C729.887 56.629 730.559 56.461 731.273 56.251L732.659 63.181C731.777 63.643 730.727 64 729.509 64.252C728.291 64.546 727.094 64.693 725.918 64.693ZM748.05 64.693C746.244 64.693 744.501 64.546 742.821 64.252C741.141 63.958 739.608 63.559 738.222 63.055C736.836 62.551 735.618 61.921 734.568 61.165L736.836 54.991C737.886 55.621 739.02 56.188 740.238 56.692C741.498 57.154 742.8 57.511 744.144 57.763C745.488 58.015 746.811 58.141 748.113 58.141C749.919 58.141 751.221 57.868 752.019 57.322C752.859 56.734 753.279 55.978 753.279 55.054C753.279 54.214 753.006 53.584 752.46 53.164C751.914 52.744 751.116 52.45 750.066 52.282L743.451 51.085C740.847 50.623 738.831 49.678 737.403 48.25C736.017 46.78 735.324 44.911 735.324 42.643C735.324 40.543 735.912 38.737 737.088 37.225C738.264 35.671 739.881 34.495 741.939 33.697C744.039 32.857 746.412 32.437 749.058 32.437C750.57 32.437 752.04 32.563 753.468 32.815C754.896 33.067 756.24 33.445 757.5 33.949C758.802 34.453 759.957 35.125 760.965 35.965L758.571 42.076C757.773 41.446 756.828 40.9 755.736 40.438C754.644 39.976 753.531 39.619 752.397 39.367C751.263 39.073 750.192 38.926 749.184 38.926C747.294 38.926 745.929 39.241 745.089 39.871C744.249 40.459 743.829 41.215 743.829 42.139C743.829 42.853 744.06 43.462 744.522 43.966C745.026 44.428 745.782 44.743 746.79 44.911L753.405 46.108C756.135 46.57 758.214 47.494 759.642 48.88C761.07 50.224 761.784 52.072 761.784 54.424C761.784 56.566 761.217 58.414 760.083 59.968C758.949 61.48 757.353 62.656 755.295 63.496C753.237 64.294 750.822 64.693 748.05 64.693Z" fill="white"/>
<path d="M58.5488 7.9668C58.8935 8.30631 59.2317 8.92095 59.127 9.67578C59.0653 10.1188 58.8565 10.5666 58.4707 11.002H71.6592V11.502C71.6591 15.8607 70.4002 22.5737 66.624 28.6064C62.8544 34.6284 56.5768 39.9648 46.583 41.5938L45.293 42.6748C45.5591 42.8335 45.8133 43.0164 46.0283 43.2217C46.4222 43.5978 46.7685 44.1338 46.6602 44.7773C46.554 45.4062 46.0438 45.9388 45.2344 46.3945C44.4804 46.8189 43.3803 47.2251 41.8467 47.6064C42.2173 50.5254 42.9508 54.705 44.0225 58.2812C44.5866 60.1636 45.2363 61.8542 45.9609 63.1016C46.7037 64.3801 47.4455 65.0555 48.1357 65.1689L48.5547 65.2373V69.0947C48.5549 69.2722 48.6903 69.7987 49.3428 70.0195L49.3652 70.0273L49.3877 70.0381C49.7459 70.2 50.2339 70.7104 50.1045 71.5459V74.1719H22.0547V71.5459C21.9252 70.7103 22.4132 70.2 22.7715 70.0381L22.7939 70.0273L22.8164 70.0195C23.4689 69.7987 23.6043 69.2722 23.6045 69.0947V65.2373L24.0234 65.1689C24.7137 65.0556 25.4555 64.3801 26.1982 63.1016C26.9228 61.8542 27.5726 60.1636 28.1367 58.2812C29.2084 54.705 29.9419 50.5254 30.3125 47.6064C28.7788 47.2251 27.6788 46.8189 26.9248 46.3945C26.1153 45.9388 25.6052 45.4063 25.499 44.7773C25.3907 44.1337 25.737 43.5978 26.1309 43.2217C26.3459 43.0164 26.6001 42.8335 26.8662 42.6748L25.5762 41.5938C15.5823 39.9648 9.3048 34.6284 5.53516 28.6064C1.7589 22.5736 0.50012 15.8607 0.5 11.502V11.002H13.6885C13.3027 10.5666 13.0939 10.1188 13.0322 9.67578C12.9275 8.92092 13.2656 8.30632 13.6104 7.9668L13.7559 7.82324H58.4033L58.5488 7.9668ZM6.49512 15.8242C8.29849 29.0463 17.86 35.0648 22.415 36.4209C18.1324 32.1492 15.7464 20.9099 15.0889 15.8242H6.49512ZM57.0703 15.8242C56.4128 20.9098 54.0274 32.1479 49.7451 36.4199C54.3004 35.0635 63.8607 29.0457 65.6641 15.8242H57.0703ZM36.626 15.2832C36.4893 15.203 36.3235 15.1938 36.1797 15.2539L36.1191 15.2832L29.793 18.9951C29.64 19.0849 29.5459 19.2494 29.5459 19.4268V26.8506C29.546 27.0279 29.64 27.1925 29.793 27.2822L36.1191 30.9941C36.2753 31.0856 36.4699 31.0857 36.626 30.9941L42.9521 27.2822C43.105 27.1925 43.1991 27.0278 43.1992 26.8506V19.4268C43.1992 19.2496 43.1049 19.0849 42.9521 18.9951L36.626 15.2832Z" fill="white"/>
</svg>
