<svg width="764" height="88" viewBox="0 0 764 88" fill="none" xmlns="http://www.w3.org/2000/svg">
<path d="M93.9901 64.0001V19.5851H114.276C117.594 19.5851 120.408 20.1521 122.718 21.2861C125.028 22.4201 126.771 24.0371 127.947 26.1371C129.165 28.2371 129.774 30.7781 129.774 33.7601C129.774 36.7421 129.165 39.3041 127.947 41.4461C126.771 43.5461 125.028 45.1631 122.718 46.2971C120.408 47.4311 117.594 47.9981 114.276 47.9981H103.755V64.0001H93.9901ZM103.755 40.4381H112.638C115.158 40.4381 117.069 39.8711 118.371 38.7371C119.715 37.6031 120.387 35.9441 120.387 33.7601C120.387 31.5761 119.715 29.9381 118.371 28.8461C117.069 27.7541 115.158 27.2081 112.638 27.2081H103.755V40.4381ZM146.536 64.6931C142.546 64.6931 139.627 63.6641 137.779 61.6061C135.931 59.5061 135.007 56.3981 135.007 52.2821V19.5851H144.52V51.9041C144.52 52.9541 144.688 53.8781 145.024 54.6761C145.36 55.4321 145.843 55.9991 146.473 56.3771C147.145 56.7551 147.985 56.9441 148.993 56.9441C149.413 56.9441 149.854 56.9231 150.316 56.8811C150.778 56.8391 151.219 56.7551 151.639 56.6291L151.513 64.0001C150.715 64.2101 149.896 64.3781 149.056 64.5041C148.258 64.6301 147.418 64.6931 146.536 64.6931ZM166.445 64.6931C164.177 64.6931 162.14 64.2521 160.334 63.3701C158.528 62.4881 157.121 61.2911 156.113 59.7791C155.105 58.2671 154.601 56.5661 154.601 54.6761C154.601 52.4081 155.189 50.6231 156.365 49.3211C157.541 47.9771 159.452 47.0321 162.098 46.4861C164.744 45.8981 168.251 45.6041 172.619 45.6041H175.958V50.5181H172.682C171.044 50.5181 169.658 50.5811 168.524 50.7071C167.432 50.8331 166.529 51.0641 165.815 51.4001C165.101 51.6941 164.576 52.0721 164.24 52.5341C163.946 52.9961 163.799 53.5841 163.799 54.2981C163.799 55.4741 164.198 56.4401 164.996 57.1961C165.836 57.9521 167.033 58.3301 168.587 58.3301C169.805 58.3301 170.876 58.0571 171.8 57.5111C172.766 56.9231 173.522 56.1461 174.068 55.1801C174.614 54.1721 174.887 53.0381 174.887 51.7781V44.5331C174.887 42.6851 174.467 41.3831 173.627 40.6271C172.787 39.8291 171.359 39.4301 169.343 39.4301C167.663 39.4301 165.878 39.7031 163.988 40.2491C162.14 40.7531 160.292 41.5301 158.444 42.5801L155.861 36.2171C156.953 35.4611 158.276 34.8101 159.83 34.2641C161.426 33.6761 163.085 33.2351 164.807 32.9411C166.529 32.6051 168.167 32.4371 169.721 32.4371C172.955 32.4371 175.601 32.9201 177.659 33.8861C179.759 34.8101 181.334 36.2591 182.384 38.2331C183.434 40.1651 183.959 42.6641 183.959 45.7301V64.0001H175.076V57.7631H175.517C175.265 59.1911 174.719 60.4301 173.879 61.4801C173.081 62.4881 172.052 63.2861 170.792 63.8741C169.532 64.4201 168.083 64.6931 166.445 64.6931ZM193.141 75.3401L199.945 60.4091V64.3151L186.337 33.0671H196.354L205.111 55.2431H203.095L212.104 33.0671H221.554L202.843 75.3401H193.141ZM224.339 64.0001V33.0671H233.663V38.8631H232.97C233.936 36.8051 235.364 35.2301 237.254 34.1381C239.186 33.0041 241.37 32.4371 243.806 32.4371C246.284 32.4371 248.321 32.9201 249.917 33.8861C251.513 34.8101 252.71 36.2381 253.508 38.1701C254.306 40.0601 254.705 42.4751 254.705 45.4151V64.0001H245.192V45.8561C245.192 44.4281 245.003 43.2731 244.625 42.3911C244.289 41.4671 243.764 40.8161 243.05 40.4381C242.378 40.0181 241.517 39.8081 240.467 39.8081C239.123 39.8081 237.947 40.1021 236.939 40.6901C235.973 41.2361 235.217 42.0341 234.671 43.0841C234.125 44.1341 233.852 45.3521 233.852 46.7381V64.0001H224.339ZM261.429 27.0821V18.1991H271.698V27.0821H261.429ZM261.807 64.0001V33.0671H271.32V64.0001H261.807ZM293.847 64.6931C289.437 64.6931 286.161 63.6221 284.019 61.4801C281.877 59.3381 280.806 56.1881 280.806 52.0301V40.1861H274.947V33.0671H280.806V23.9951H290.319V33.0671H299.454V40.1861H290.319V51.6521C290.319 53.4161 290.718 54.7391 291.516 55.6211C292.356 56.5031 293.679 56.9441 295.485 56.9441C296.031 56.9441 296.598 56.8811 297.186 56.7551C297.816 56.6291 298.488 56.4611 299.202 56.2511L300.588 63.1811C299.706 63.6431 298.656 64.0001 297.438 64.2521C296.22 64.5461 295.023 64.6931 293.847 64.6931ZM319.892 64.6931C316.238 64.6931 313.088 64.0421 310.442 62.7401C307.838 61.3961 305.822 59.5271 304.394 57.1331C303.008 54.6971 302.315 51.8411 302.315 48.5651C302.315 45.3731 302.987 42.5801 304.331 40.1861C305.675 37.7501 307.544 35.8601 309.938 34.5161C312.374 33.1301 315.125 32.4371 318.191 32.4371C321.215 32.4371 323.819 33.0881 326.003 34.3901C328.187 35.6501 329.867 37.4561 331.043 39.8081C332.261 42.1601 332.87 44.9531 332.87 48.1871V50.5811H310.127V45.6671H326.003L324.995 46.5491C324.995 43.9871 324.428 42.0551 323.294 40.7531C322.202 39.4091 320.627 38.7371 318.569 38.7371C317.015 38.7371 315.692 39.0941 314.6 39.8081C313.508 40.5221 312.668 41.5511 312.08 42.8951C311.492 44.2391 311.198 45.8561 311.198 47.7461V48.2501C311.198 50.3921 311.513 52.1561 312.143 53.5421C312.815 54.8861 313.802 55.8941 315.104 56.5661C316.448 57.2381 318.107 57.5741 320.081 57.5741C321.761 57.5741 323.462 57.3221 325.184 56.8181C326.906 56.3141 328.46 55.5371 329.846 54.4871L332.366 60.8501C330.812 62.0261 328.901 62.9711 326.633 63.6851C324.407 64.3571 322.16 64.6931 319.892 64.6931Z" fill="white"/>
<path d="M344.943 64.0001L365.355 19.5851H373.23L393.642 64.0001H383.814L378.522 51.6521L382.428 54.3611H356.157L360.063 51.6521L354.834 64.0001H344.943ZM369.198 29.9801L361.134 49.1951L359.433 46.7381H379.152L377.451 49.1951L369.324 29.9801H369.198ZM411.411 64.6931C408.051 64.6931 405.111 64.0421 402.591 62.7401C400.113 61.3961 398.202 59.5061 396.858 57.0701C395.514 54.6341 394.842 51.7571 394.842 48.4391C394.842 45.1211 395.514 42.2651 396.858 39.8711C398.202 37.4771 400.113 35.6501 402.591 34.3901C405.111 33.0881 408.051 32.4371 411.411 32.4371C413.427 32.4371 415.422 32.7311 417.396 33.3191C419.412 33.9071 421.05 34.7471 422.31 35.8391L419.664 42.3911C418.656 41.5511 417.48 40.9001 416.136 40.4381C414.792 39.9341 413.532 39.6821 412.356 39.6821C409.878 39.6821 407.946 40.4591 406.56 42.0131C405.216 43.5251 404.544 45.6881 404.544 48.5021C404.544 51.2741 405.216 53.4581 406.56 55.0541C407.946 56.6081 409.878 57.3851 412.356 57.3851C413.532 57.3851 414.792 57.1541 416.136 56.6921C417.48 56.2301 418.656 55.5581 419.664 54.6761L422.31 61.2281C421.05 62.2781 419.412 63.1181 417.396 63.7481C415.38 64.3781 413.385 64.6931 411.411 64.6931ZM426.439 64.0001V19.5851H435.952V38.8631H435.07C436.036 36.8051 437.464 35.2301 439.354 34.1381C441.286 33.0041 443.47 32.4371 445.906 32.4371C448.384 32.4371 450.421 32.9201 452.017 33.8861C453.613 34.8101 454.81 36.2381 455.608 38.1701C456.406 40.0601 456.805 42.4751 456.805 45.4151V64.0001H447.292V45.8561C447.292 44.4281 447.103 43.2731 446.725 42.3911C446.389 41.4671 445.864 40.8161 445.15 40.4381C444.478 40.0181 443.617 39.8081 442.567 39.8081C441.223 39.8081 440.047 40.1021 439.039 40.6901C438.073 41.2361 437.317 42.0341 436.771 43.0841C436.225 44.1341 435.952 45.3521 435.952 46.7381V64.0001H426.439ZM463.529 27.0821V18.1991H473.798V27.0821H463.529ZM463.907 64.0001V33.0671H473.42V64.0001H463.907ZM496.829 64.6931C493.175 64.6931 490.025 64.0421 487.379 62.7401C484.775 61.3961 482.759 59.5271 481.331 57.1331C479.945 54.6971 479.252 51.8411 479.252 48.5651C479.252 45.3731 479.924 42.5801 481.268 40.1861C482.612 37.7501 484.481 35.8601 486.875 34.5161C489.311 33.1301 492.062 32.4371 495.128 32.4371C498.152 32.4371 500.756 33.0881 502.94 34.3901C505.124 35.6501 506.804 37.4561 507.98 39.8081C509.198 42.1601 509.807 44.9531 509.807 48.1871V50.5811H487.064V45.6671H502.94L501.932 46.5491C501.932 43.9871 501.365 42.0551 500.231 40.7531C499.139 39.4091 497.564 38.7371 495.506 38.7371C493.952 38.7371 492.629 39.0941 491.537 39.8081C490.445 40.5221 489.605 41.5511 489.017 42.8951C488.429 44.2391 488.135 45.8561 488.135 47.7461V48.2501C488.135 50.3921 488.45 52.1561 489.08 53.5421C489.752 54.8861 490.739 55.8941 492.041 56.5661C493.385 57.2381 495.044 57.5741 497.018 57.5741C498.698 57.5741 500.399 57.3221 502.121 56.8181C503.843 56.3141 505.397 55.5371 506.783 54.4871L509.303 60.8501C507.749 62.0261 505.838 62.9711 503.57 63.6851C501.344 64.3571 499.097 64.6931 496.829 64.6931ZM523.922 64.0001L510.44 33.0671H520.457L529.151 55.2431H527.135L536.207 33.0671H545.594L531.923 64.0001H523.922ZM563.767 64.6931C560.113 64.6931 556.963 64.0421 554.317 62.7401C551.713 61.3961 549.697 59.5271 548.269 57.1331C546.883 54.6971 546.19 51.8411 546.19 48.5651C546.19 45.3731 546.862 42.5801 548.206 40.1861C549.55 37.7501 551.419 35.8601 553.813 34.5161C556.249 33.1301 559 32.4371 562.066 32.4371C565.09 32.4371 567.694 33.0881 569.878 34.3901C572.062 35.6501 573.742 37.4561 574.918 39.8081C576.136 42.1601 576.745 44.9531 576.745 48.1871V50.5811H554.002V45.6671H569.878L568.87 46.5491C568.87 43.9871 568.303 42.0551 567.169 40.7531C566.077 39.4091 564.502 38.7371 562.444 38.7371C560.89 38.7371 559.567 39.0941 558.475 39.8081C557.383 40.5221 556.543 41.5511 555.955 42.8951C555.367 44.2391 555.073 45.8561 555.073 47.7461V48.2501C555.073 50.3921 555.388 52.1561 556.018 53.5421C556.69 54.8861 557.677 55.8941 558.979 56.5661C560.323 57.2381 561.982 57.5741 563.956 57.5741C565.636 57.5741 567.337 57.3221 569.059 56.8181C570.781 56.3141 572.335 55.5371 573.721 54.4871L576.241 60.8501C574.687 62.0261 572.776 62.9711 570.508 63.6851C568.282 64.3571 566.035 64.6931 563.767 64.6931ZM582.404 64.0001V33.0671H591.728V38.8631H591.035C591.581 37.5611 592.337 36.4271 593.303 35.4611C594.269 34.4951 595.424 33.7601 596.768 33.2561C598.112 32.7101 599.582 32.4371 601.178 32.4371C603.572 32.4371 605.567 33.0041 607.163 34.1381C608.759 35.2721 609.893 37.0151 610.565 39.3671H609.683C610.607 37.2251 612.014 35.5451 613.904 34.3271C615.836 33.0671 618.041 32.4371 620.519 32.4371C622.913 32.4371 624.866 32.9201 626.378 33.8861C627.932 34.8101 629.087 36.2381 629.843 38.1701C630.599 40.0601 630.977 42.4751 630.977 45.4151V64.0001H621.464V45.7301C621.464 43.6721 621.128 42.1811 620.456 41.2571C619.826 40.2911 618.734 39.8081 617.18 39.8081C616.004 39.8081 614.975 40.1021 614.093 40.6901C613.211 41.2361 612.539 42.0551 612.077 43.1471C611.657 44.1971 611.447 45.4991 611.447 47.0531V64.0001H601.934V45.7301C601.934 43.6721 601.598 42.1811 600.926 41.2571C600.296 40.2911 599.204 39.8081 597.65 39.8081C596.432 39.8081 595.403 40.1021 594.563 40.6901C593.723 41.2361 593.072 42.0551 592.61 43.1471C592.148 44.1971 591.917 45.4991 591.917 47.0531V64.0001H582.404ZM654.329 64.6931C650.675 64.6931 647.525 64.0421 644.879 62.7401C642.275 61.3961 640.259 59.5271 638.831 57.1331C637.445 54.6971 636.752 51.8411 636.752 48.5651C636.752 45.3731 637.424 42.5801 638.768 40.1861C640.112 37.7501 641.981 35.8601 644.375 34.5161C646.811 33.1301 649.562 32.4371 652.628 32.4371C655.652 32.4371 658.256 33.0881 660.44 34.3901C662.624 35.6501 664.304 37.4561 665.48 39.8081C666.698 42.1601 667.307 44.9531 667.307 48.1871V50.5811H644.564V45.6671H660.44L659.432 46.5491C659.432 43.9871 658.865 42.0551 657.731 40.7531C656.639 39.4091 655.064 38.7371 653.006 38.7371C651.452 38.7371 650.129 39.0941 649.037 39.8081C647.945 40.5221 647.105 41.5511 646.517 42.8951C645.929 44.2391 645.635 45.8561 645.635 47.7461V48.2501C645.635 50.3921 645.95 52.1561 646.58 53.5421C647.252 54.8861 648.239 55.8941 649.541 56.5661C650.885 57.2381 652.544 57.5741 654.518 57.5741C656.198 57.5741 657.899 57.3221 659.621 56.8181C661.343 56.3141 662.897 55.5371 664.283 54.4871L666.803 60.8501C665.249 62.0261 663.338 62.9711 661.07 63.6851C658.844 64.3571 656.597 64.6931 654.329 64.6931ZM672.841 64.0001V33.0671H682.165V38.8631H681.472C682.438 36.8051 683.866 35.2301 685.756 34.1381C687.688 33.0041 689.872 32.4371 692.308 32.4371C694.786 32.4371 696.823 32.9201 698.419 33.8861C700.015 34.8101 701.212 36.2381 702.01 38.1701C702.808 40.0601 703.207 42.4751 703.207 45.4151V64.0001H693.694V45.8561C693.694 44.4281 693.505 43.2731 693.127 42.3911C692.791 41.4671 692.266 40.8161 691.552 40.4381C690.88 40.0181 690.019 39.8081 688.969 39.8081C687.625 39.8081 686.449 40.1021 685.441 40.6901C684.475 41.2361 683.719 42.0341 683.173 43.0841C682.627 44.1341 682.354 45.3521 682.354 46.7381V64.0001H672.841ZM725.491 64.6931C721.081 64.6931 717.805 63.6221 715.663 61.4801C713.521 59.3381 712.45 56.1881 712.45 52.0301V40.1861H706.591V33.0671H712.45V23.9951H721.963V33.0671H731.098V40.1861H721.963V51.6521C721.963 53.4161 722.362 54.7391 723.16 55.6211C724 56.5031 725.323 56.9441 727.129 56.9441C727.675 56.9441 728.242 56.8811 728.83 56.7551C729.46 56.6291 730.132 56.4611 730.846 56.2511L732.232 63.1811C731.35 63.6431 730.3 64.0001 729.082 64.2521C727.864 64.5461 726.667 64.6931 725.491 64.6931ZM747.623 64.6931C745.817 64.6931 744.074 64.5461 742.394 64.2521C740.714 63.9581 739.181 63.5591 737.795 63.0551C736.409 62.5511 735.191 61.9211 734.141 61.1651L736.409 54.9911C737.459 55.6211 738.593 56.1881 739.811 56.6921C741.071 57.1541 742.373 57.5111 743.717 57.7631C745.061 58.0151 746.384 58.1411 747.686 58.1411C749.492 58.1411 750.794 57.8681 751.592 57.3221C752.432 56.7341 752.852 55.9781 752.852 55.0541C752.852 54.2141 752.579 53.5841 752.033 53.1641C751.487 52.7441 750.689 52.4501 749.639 52.2821L743.024 51.0851C740.42 50.6231 738.404 49.6781 736.976 48.2501C735.59 46.7801 734.897 44.9111 734.897 42.6431C734.897 40.5431 735.485 38.7371 736.661 37.2251C737.837 35.6711 739.454 34.4951 741.512 33.6971C743.612 32.8571 745.985 32.4371 748.631 32.4371C750.143 32.4371 751.613 32.5631 753.041 32.8151C754.469 33.0671 755.813 33.4451 757.073 33.9491C758.375 34.4531 759.53 35.1251 760.538 35.9651L758.144 42.0761C757.346 41.4461 756.401 40.9001 755.309 40.4381C754.217 39.9761 753.104 39.6191 751.97 39.3671C750.836 39.0731 749.765 38.9261 748.757 38.9261C746.867 38.9261 745.502 39.2411 744.662 39.8711C743.822 40.4591 743.402 41.2151 743.402 42.1391C743.402 42.8531 743.633 43.4621 744.095 43.9661C744.599 44.4281 745.355 44.7431 746.363 44.9111L752.978 46.1081C755.708 46.5701 757.787 47.4941 759.215 48.8801C760.643 50.2241 761.357 52.0721 761.357 54.4241C761.357 56.5661 760.79 58.4141 759.656 59.9681C758.522 61.4801 756.926 62.6561 754.868 63.4961C752.81 64.2941 750.395 64.6931 747.623 64.6931Z" fill="white"/>
<path d="M58.0186 7.40271L58.0918 7.47498L58.2373 7.61853C58.6239 7.99956 59.0034 8.68778 58.8857 9.53552C58.8369 9.88636 58.705 10.2328 58.4883 10.5697H71.3682V11.3197C71.3681 15.7019 70.105 22.4378 66.3154 28.4945C62.536 34.5348 56.2449 39.8874 46.2529 41.5365L45.2822 42.351C45.4534 42.4696 45.6176 42.5993 45.7656 42.7406C46.1827 43.139 46.5969 43.7509 46.4688 44.5131V44.514C46.3438 45.254 45.7532 45.8355 44.9248 46.3021C44.1833 46.7197 43.1321 47.1103 41.707 47.4769C42.0834 50.3644 42.7993 54.3974 43.835 57.8549C44.3943 59.7219 45.0352 61.3841 45.7422 62.6019C46.1044 63.2256 46.4603 63.6906 46.7998 64.0101C47.1398 64.3301 47.453 64.4936 47.7314 64.5394L48.1494 64.6078L48.3594 64.642V68.6996C48.3594 68.7926 48.4464 69.2049 48.9727 69.3832H48.9746L48.9971 69.391L49.0059 69.3939L49.0146 69.3978L49.0371 69.4076L49.04 69.4095C49.4785 69.6076 50.0339 70.2042 49.9033 71.1459V74.0101H21.4648V71.1459C21.3343 70.2042 21.8896 69.6076 22.3281 69.4095L22.3311 69.4076L22.3535 69.3978L22.3623 69.3939L22.3711 69.391L22.3936 69.3832H22.3955C22.9222 69.2049 23.0088 68.7924 23.0088 68.6996V64.642L23.2188 64.6078L23.6367 64.5394C23.9152 64.4937 24.2283 64.3301 24.5684 64.0101C24.9079 63.6906 25.2638 63.2256 25.626 62.6019C26.333 61.3841 26.9739 59.7219 27.5332 57.8549C28.5689 54.3974 29.2848 50.3644 29.6611 47.4769C28.2359 47.1103 27.1848 46.7197 26.4434 46.3021C25.6149 45.8355 25.0243 45.2541 24.8994 44.514C24.7711 43.7517 25.1854 43.1391 25.6025 42.7406C25.7505 42.5993 25.9147 42.4696 26.0859 42.351L25.1152 41.5365C15.1232 39.8874 8.83218 34.5349 5.05273 28.4945C1.26312 22.4377 5.96195e-05 15.7019 0 11.3197V10.5697H12.8799C12.6631 10.2328 12.5313 9.88639 12.4824 9.53552C12.3647 8.68781 12.7442 7.99957 13.1309 7.61853L13.2764 7.47498L13.3496 7.40271H58.0186ZM6.5127 15.8754C8.26974 27.9128 16.5565 33.8115 21.2432 35.598C19.3805 33.3412 17.9206 29.8222 16.835 26.2621C15.6555 22.3939 14.9057 18.4313 14.5625 15.8754H6.5127ZM56.8057 15.8754C56.4625 18.4313 55.7127 22.394 54.5332 26.2621C53.4476 29.8222 51.9877 33.3412 50.125 35.598C54.8116 33.8116 63.0984 27.9128 64.8555 15.8754H56.8057Z" fill="url(#paint0_linear_2018_1282)"/>
<path d="M35.9742 15.5172L42.2746 19.2155V26.612L35.9742 30.3102L29.6738 26.612V19.2155L35.9742 15.5172Z" fill="url(#paint1_linear_2018_1282)" stroke="#6763A1" stroke-linejoin="round"/>
<path opacity="0.5" d="M35.9742 15.5172L42.2746 19.2155V26.612L35.9742 30.3102L29.6738 26.612V19.2155L35.9742 15.5172Z" fill="url(#paint2_linear_2018_1282)"/>
<path d="M36.0521 15.59L42.384 19.3061V26.7383L36.0521 30.4544L29.7202 26.7383V19.3061L36.0521 15.59Z" fill="url(#paint3_linear_2018_1282)" stroke="#736FA1" stroke-linejoin="round"/>
<path d="M36.052 18.3427L39.6309 20.6824V25.6372L36.052 27.977L32.4731 25.6372V20.6824L36.052 18.3427Z" fill="white" fill-opacity="0.2"/>
<path opacity="0.5" d="M36.0521 15.59L42.384 19.3061V26.7383L36.0521 30.4544L29.7202 26.7383V19.3061L36.0521 15.59Z" fill="url(#paint4_linear_2018_1282)"/>
<defs>
<linearGradient id="paint0_linear_2018_1282" x1="0" y1="40.7064" x2="71.3682" y2="40.7064" gradientUnits="userSpaceOnUse">
<stop stop-color="#DAA33A"/>
<stop offset="0.25" stop-color="#D2C8B6"/>
<stop offset="0.5" stop-color="#FFA000"/>
<stop offset="0.75" stop-color="#DED2C0"/>
<stop offset="1" stop-color="#F8CD92"/>
</linearGradient>
<linearGradient id="paint1_linear_2018_1282" x1="29.6738" y1="15.5172" x2="44.2786" y2="27.9576" gradientUnits="userSpaceOnUse">
<stop stop-color="#E91E63"/>
<stop offset="0.2" stop-color="#9C27B0"/>
<stop offset="0.4" stop-color="#3F51B5"/>
<stop offset="0.6" stop-color="#2196F3"/>
<stop offset="0.8" stop-color="#00BCD4"/>
<stop offset="1" stop-color="#4CAF50"/>
</linearGradient>
<linearGradient id="paint2_linear_2018_1282" x1="29.6738" y1="15.5172" x2="44.2786" y2="27.9576" gradientUnits="userSpaceOnUse">
<stop stop-color="white" stop-opacity="0"/>
<stop offset="0.45" stop-color="white" stop-opacity="0"/>
<stop offset="0.55" stop-color="white" stop-opacity="0.4"/>
<stop offset="0.7" stop-color="white" stop-opacity="0"/>
<stop offset="1" stop-color="white" stop-opacity="0"/>
</linearGradient>
<linearGradient id="paint3_linear_2018_1282" x1="29.7202" y1="15.59" x2="44.3959" y2="28.0929" gradientUnits="userSpaceOnUse">
<stop stop-color="#E91E63"/>
<stop offset="0.2" stop-color="#9C27B0"/>
<stop offset="0.4" stop-color="#3F51B5"/>
<stop offset="0.6" stop-color="#2196F3"/>
<stop offset="0.8" stop-color="#00BCD4"/>
<stop offset="1" stop-color="#4CAF50"/>
</linearGradient>
<linearGradient id="paint4_linear_2018_1282" x1="29.7202" y1="15.59" x2="44.3959" y2="28.0929" gradientUnits="userSpaceOnUse">
<stop stop-color="white" stop-opacity="0"/>
<stop offset="0.45" stop-color="white" stop-opacity="0"/>
<stop offset="0.55" stop-color="white" stop-opacity="0.4"/>
<stop offset="0.7" stop-color="white" stop-opacity="0"/>
<stop offset="1" stop-color="white" stop-opacity="0"/>
</linearGradient>
</defs>
</svg>
