<svg width="764" height="88" viewBox="0 0 764 88" fill="none" xmlns="http://www.w3.org/2000/svg">
<path d="M93.9168 64.0001V19.5851H114.203C117.521 19.5851 120.335 20.1521 122.645 21.2861C124.955 22.4201 126.698 24.0371 127.874 26.1371C129.092 28.2371 129.701 30.7781 129.701 33.7601C129.701 36.7421 129.092 39.3041 127.874 41.4461C126.698 43.5461 124.955 45.1631 122.645 46.2971C120.335 47.4311 117.521 47.9981 114.203 47.9981H103.682V64.0001H93.9168ZM103.682 40.4381H112.565C115.085 40.4381 116.996 39.8711 118.298 38.7371C119.642 37.6031 120.314 35.9441 120.314 33.7601C120.314 31.5761 119.642 29.9381 118.298 28.8461C116.996 27.7541 115.085 27.2081 112.565 27.2081H103.682V40.4381ZM146.463 64.6931C142.473 64.6931 139.554 63.6641 137.706 61.6061C135.858 59.5061 134.934 56.3981 134.934 52.2821V19.5851H144.447V51.9041C144.447 52.9541 144.615 53.8781 144.951 54.6761C145.287 55.4321 145.77 55.9991 146.4 56.3771C147.072 56.7551 147.912 56.9441 148.92 56.9441C149.34 56.9441 149.781 56.9231 150.243 56.8811C150.705 56.8391 151.146 56.7551 151.566 56.6291L151.44 64.0001C150.642 64.2101 149.823 64.3781 148.983 64.5041C148.185 64.6301 147.345 64.6931 146.463 64.6931ZM166.371 64.6931C164.103 64.6931 162.066 64.2521 160.26 63.3701C158.454 62.4881 157.047 61.2911 156.039 59.7791C155.031 58.2671 154.527 56.5661 154.527 54.6761C154.527 52.4081 155.115 50.6231 156.291 49.3211C157.467 47.9771 159.378 47.0321 162.024 46.4861C164.67 45.8981 168.177 45.6041 172.545 45.6041H175.884V50.5181H172.608C170.97 50.5181 169.584 50.5811 168.45 50.7071C167.358 50.8331 166.455 51.0641 165.741 51.4001C165.027 51.6941 164.502 52.0721 164.166 52.5341C163.872 52.9961 163.725 53.5841 163.725 54.2981C163.725 55.4741 164.124 56.4401 164.922 57.1961C165.762 57.9521 166.959 58.3301 168.513 58.3301C169.731 58.3301 170.802 58.0571 171.726 57.5111C172.692 56.9231 173.448 56.1461 173.994 55.1801C174.54 54.1721 174.813 53.0381 174.813 51.7781V44.5331C174.813 42.6851 174.393 41.3831 173.553 40.6271C172.713 39.8291 171.285 39.4301 169.269 39.4301C167.589 39.4301 165.804 39.7031 163.914 40.2491C162.066 40.7531 160.218 41.5301 158.37 42.5801L155.787 36.2171C156.879 35.4611 158.202 34.8101 159.756 34.2641C161.352 33.6761 163.011 33.2351 164.733 32.9411C166.455 32.6051 168.093 32.4371 169.647 32.4371C172.881 32.4371 175.527 32.9201 177.585 33.8861C179.685 34.8101 181.26 36.2591 182.31 38.2331C183.36 40.1651 183.885 42.6641 183.885 45.7301V64.0001H175.002V57.7631H175.443C175.191 59.1911 174.645 60.4301 173.805 61.4801C173.007 62.4881 171.978 63.2861 170.718 63.8741C169.458 64.4201 168.009 64.6931 166.371 64.6931ZM193.068 75.3401L199.872 60.4091V64.3151L186.264 33.0671H196.281L205.038 55.2431H203.022L212.031 33.0671H221.481L202.77 75.3401H193.068ZM224.266 64.0001V33.0671H233.59V38.8631H232.897C233.863 36.8051 235.291 35.2301 237.181 34.1381C239.113 33.0041 241.297 32.4371 243.733 32.4371C246.211 32.4371 248.248 32.9201 249.844 33.8861C251.44 34.8101 252.637 36.2381 253.435 38.1701C254.233 40.0601 254.632 42.4751 254.632 45.4151V64.0001H245.119V45.8561C245.119 44.4281 244.93 43.2731 244.552 42.3911C244.216 41.4671 243.691 40.8161 242.977 40.4381C242.305 40.0181 241.444 39.8081 240.394 39.8081C239.05 39.8081 237.874 40.1021 236.866 40.6901C235.9 41.2361 235.144 42.0341 234.598 43.0841C234.052 44.1341 233.779 45.3521 233.779 46.7381V64.0001H224.266ZM261.356 27.0821V18.1991H271.625V27.0821H261.356ZM261.734 64.0001V33.0671H271.247V64.0001H261.734ZM293.774 64.6931C289.364 64.6931 286.088 63.6221 283.946 61.4801C281.804 59.3381 280.733 56.1881 280.733 52.0301V40.1861H274.874V33.0671H280.733V23.9951H290.246V33.0671H299.381V40.1861H290.246V51.6521C290.246 53.4161 290.645 54.7391 291.443 55.6211C292.283 56.5031 293.606 56.9441 295.412 56.9441C295.958 56.9441 296.525 56.8811 297.113 56.7551C297.743 56.6291 298.415 56.4611 299.129 56.2511L300.515 63.1811C299.633 63.6431 298.583 64.0001 297.365 64.2521C296.147 64.5461 294.95 64.6931 293.774 64.6931ZM319.819 64.6931C316.165 64.6931 313.015 64.0421 310.369 62.7401C307.765 61.3961 305.749 59.5271 304.321 57.1331C302.935 54.6971 302.242 51.8411 302.242 48.5651C302.242 45.3731 302.914 42.5801 304.258 40.1861C305.602 37.7501 307.471 35.8601 309.865 34.5161C312.301 33.1301 315.052 32.4371 318.118 32.4371C321.142 32.4371 323.746 33.0881 325.93 34.3901C328.114 35.6501 329.794 37.4561 330.97 39.8081C332.188 42.1601 332.797 44.9531 332.797 48.1871V50.5811H310.054V45.6671H325.93L324.922 46.5491C324.922 43.9871 324.355 42.0551 323.221 40.7531C322.129 39.4091 320.554 38.7371 318.496 38.7371C316.942 38.7371 315.619 39.0941 314.527 39.8081C313.435 40.5221 312.595 41.5511 312.007 42.8951C311.419 44.2391 311.125 45.8561 311.125 47.7461V48.2501C311.125 50.3921 311.44 52.1561 312.07 53.5421C312.742 54.8861 313.729 55.8941 315.031 56.5661C316.375 57.2381 318.034 57.5741 320.008 57.5741C321.688 57.5741 323.389 57.3221 325.111 56.8181C326.833 56.3141 328.387 55.5371 329.773 54.4871L332.293 60.8501C330.739 62.0261 328.828 62.9711 326.56 63.6851C324.334 64.3571 322.087 64.6931 319.819 64.6931Z" fill="white"/>
<path d="M344.87 64.0001L365.282 19.5851H373.157L393.569 64.0001H383.741L378.449 51.6521L382.355 54.3611H356.084L359.99 51.6521L354.761 64.0001H344.87ZM369.125 29.9801L361.061 49.1951L359.36 46.7381H379.079L377.378 49.1951L369.251 29.9801H369.125ZM411.338 64.6931C407.978 64.6931 405.038 64.0421 402.518 62.7401C400.04 61.3961 398.129 59.5061 396.785 57.0701C395.441 54.6341 394.769 51.7571 394.769 48.4391C394.769 45.1211 395.441 42.2651 396.785 39.8711C398.129 37.4771 400.04 35.6501 402.518 34.3901C405.038 33.0881 407.978 32.4371 411.338 32.4371C413.354 32.4371 415.349 32.7311 417.323 33.3191C419.339 33.9071 420.977 34.7471 422.237 35.8391L419.591 42.3911C418.583 41.5511 417.407 40.9001 416.063 40.4381C414.719 39.9341 413.459 39.6821 412.283 39.6821C409.805 39.6821 407.873 40.4591 406.487 42.0131C405.143 43.5251 404.471 45.6881 404.471 48.5021C404.471 51.2741 405.143 53.4581 406.487 55.0541C407.873 56.6081 409.805 57.3851 412.283 57.3851C413.459 57.3851 414.719 57.1541 416.063 56.6921C417.407 56.2301 418.583 55.5581 419.591 54.6761L422.237 61.2281C420.977 62.2781 419.339 63.1181 417.323 63.7481C415.307 64.3781 413.312 64.6931 411.338 64.6931ZM426.366 64.0001V19.5851H435.879V38.8631H434.997C435.963 36.8051 437.391 35.2301 439.281 34.1381C441.213 33.0041 443.397 32.4371 445.833 32.4371C448.311 32.4371 450.348 32.9201 451.944 33.8861C453.54 34.8101 454.737 36.2381 455.535 38.1701C456.333 40.0601 456.732 42.4751 456.732 45.4151V64.0001H447.219V45.8561C447.219 44.4281 447.03 43.2731 446.652 42.3911C446.316 41.4671 445.791 40.8161 445.077 40.4381C444.405 40.0181 443.544 39.8081 442.494 39.8081C441.15 39.8081 439.974 40.1021 438.966 40.6901C438 41.2361 437.244 42.0341 436.698 43.0841C436.152 44.1341 435.879 45.3521 435.879 46.7381V64.0001H426.366ZM463.456 27.0821V18.1991H473.725V27.0821H463.456ZM463.834 64.0001V33.0671H473.347V64.0001H463.834ZM496.756 64.6931C493.102 64.6931 489.952 64.0421 487.306 62.7401C484.702 61.3961 482.686 59.5271 481.258 57.1331C479.872 54.6971 479.179 51.8411 479.179 48.5651C479.179 45.3731 479.851 42.5801 481.195 40.1861C482.539 37.7501 484.408 35.8601 486.802 34.5161C489.238 33.1301 491.989 32.4371 495.055 32.4371C498.079 32.4371 500.683 33.0881 502.867 34.3901C505.051 35.6501 506.731 37.4561 507.907 39.8081C509.125 42.1601 509.734 44.9531 509.734 48.1871V50.5811H486.991V45.6671H502.867L501.859 46.5491C501.859 43.9871 501.292 42.0551 500.158 40.7531C499.066 39.4091 497.491 38.7371 495.433 38.7371C493.879 38.7371 492.556 39.0941 491.464 39.8081C490.372 40.5221 489.532 41.5511 488.944 42.8951C488.356 44.2391 488.062 45.8561 488.062 47.7461V48.2501C488.062 50.3921 488.377 52.1561 489.007 53.5421C489.679 54.8861 490.666 55.8941 491.968 56.5661C493.312 57.2381 494.971 57.5741 496.945 57.5741C498.625 57.5741 500.326 57.3221 502.048 56.8181C503.77 56.3141 505.324 55.5371 506.71 54.4871L509.23 60.8501C507.676 62.0261 505.765 62.9711 503.497 63.6851C501.271 64.3571 499.024 64.6931 496.756 64.6931ZM523.849 64.0001L510.367 33.0671H520.384L529.078 55.2431H527.062L536.134 33.0671H545.521L531.85 64.0001H523.849ZM563.694 64.6931C560.04 64.6931 556.89 64.0421 554.244 62.7401C551.64 61.3961 549.624 59.5271 548.196 57.1331C546.81 54.6971 546.117 51.8411 546.117 48.5651C546.117 45.3731 546.789 42.5801 548.133 40.1861C549.477 37.7501 551.346 35.8601 553.74 34.5161C556.176 33.1301 558.927 32.4371 561.993 32.4371C565.017 32.4371 567.621 33.0881 569.805 34.3901C571.989 35.6501 573.669 37.4561 574.845 39.8081C576.063 42.1601 576.672 44.9531 576.672 48.1871V50.5811H553.929V45.6671H569.805L568.797 46.5491C568.797 43.9871 568.23 42.0551 567.096 40.7531C566.004 39.4091 564.429 38.7371 562.371 38.7371C560.817 38.7371 559.494 39.0941 558.402 39.8081C557.31 40.5221 556.47 41.5511 555.882 42.8951C555.294 44.2391 555 45.8561 555 47.7461V48.2501C555 50.3921 555.315 52.1561 555.945 53.5421C556.617 54.8861 557.604 55.8941 558.906 56.5661C560.25 57.2381 561.909 57.5741 563.883 57.5741C565.563 57.5741 567.264 57.3221 568.986 56.8181C570.708 56.3141 572.262 55.5371 573.648 54.4871L576.168 60.8501C574.614 62.0261 572.703 62.9711 570.435 63.6851C568.209 64.3571 565.962 64.6931 563.694 64.6931ZM582.331 64.0001V33.0671H591.655V38.8631H590.962C591.508 37.5611 592.264 36.4271 593.23 35.4611C594.196 34.4951 595.351 33.7601 596.695 33.2561C598.039 32.7101 599.509 32.4371 601.105 32.4371C603.499 32.4371 605.494 33.0041 607.09 34.1381C608.686 35.2721 609.82 37.0151 610.492 39.3671H609.61C610.534 37.2251 611.941 35.5451 613.831 34.3271C615.763 33.0671 617.968 32.4371 620.446 32.4371C622.84 32.4371 624.793 32.9201 626.305 33.8861C627.859 34.8101 629.014 36.2381 629.77 38.1701C630.526 40.0601 630.904 42.4751 630.904 45.4151V64.0001H621.391V45.7301C621.391 43.6721 621.055 42.1811 620.383 41.2571C619.753 40.2911 618.661 39.8081 617.107 39.8081C615.931 39.8081 614.902 40.1021 614.02 40.6901C613.138 41.2361 612.466 42.0551 612.004 43.1471C611.584 44.1971 611.374 45.4991 611.374 47.0531V64.0001H601.861V45.7301C601.861 43.6721 601.525 42.1811 600.853 41.2571C600.223 40.2911 599.131 39.8081 597.577 39.8081C596.359 39.8081 595.33 40.1021 594.49 40.6901C593.65 41.2361 592.999 42.0551 592.537 43.1471C592.075 44.1971 591.844 45.4991 591.844 47.0531V64.0001H582.331ZM654.256 64.6931C650.602 64.6931 647.452 64.0421 644.806 62.7401C642.202 61.3961 640.186 59.5271 638.758 57.1331C637.372 54.6971 636.679 51.8411 636.679 48.5651C636.679 45.3731 637.351 42.5801 638.695 40.1861C640.039 37.7501 641.908 35.8601 644.302 34.5161C646.738 33.1301 649.489 32.4371 652.555 32.4371C655.579 32.4371 658.183 33.0881 660.367 34.3901C662.551 35.6501 664.231 37.4561 665.407 39.8081C666.625 42.1601 667.234 44.9531 667.234 48.1871V50.5811H644.491V45.6671H660.367L659.359 46.5491C659.359 43.9871 658.792 42.0551 657.658 40.7531C656.566 39.4091 654.991 38.7371 652.933 38.7371C651.379 38.7371 650.056 39.0941 648.964 39.8081C647.872 40.5221 647.032 41.5511 646.444 42.8951C645.856 44.2391 645.562 45.8561 645.562 47.7461V48.2501C645.562 50.3921 645.877 52.1561 646.507 53.5421C647.179 54.8861 648.166 55.8941 649.468 56.5661C650.812 57.2381 652.471 57.5741 654.445 57.5741C656.125 57.5741 657.826 57.3221 659.548 56.8181C661.27 56.3141 662.824 55.5371 664.21 54.4871L666.73 60.8501C665.176 62.0261 663.265 62.9711 660.997 63.6851C658.771 64.3571 656.524 64.6931 654.256 64.6931ZM672.767 64.0001V33.0671H682.091V38.8631H681.398C682.364 36.8051 683.792 35.2301 685.682 34.1381C687.614 33.0041 689.798 32.4371 692.234 32.4371C694.712 32.4371 696.749 32.9201 698.345 33.8861C699.941 34.8101 701.138 36.2381 701.936 38.1701C702.734 40.0601 703.133 42.4751 703.133 45.4151V64.0001H693.62V45.8561C693.62 44.4281 693.431 43.2731 693.053 42.3911C692.717 41.4671 692.192 40.8161 691.478 40.4381C690.806 40.0181 689.945 39.8081 688.895 39.8081C687.551 39.8081 686.375 40.1021 685.367 40.6901C684.401 41.2361 683.645 42.0341 683.099 43.0841C682.553 44.1341 682.28 45.3521 682.28 46.7381V64.0001H672.767ZM725.418 64.6931C721.008 64.6931 717.732 63.6221 715.59 61.4801C713.448 59.3381 712.377 56.1881 712.377 52.0301V40.1861H706.518V33.0671H712.377V23.9951H721.89V33.0671H731.025V40.1861H721.89V51.6521C721.89 53.4161 722.289 54.7391 723.087 55.6211C723.927 56.5031 725.25 56.9441 727.056 56.9441C727.602 56.9441 728.169 56.8811 728.757 56.7551C729.387 56.6291 730.059 56.4611 730.773 56.2511L732.159 63.1811C731.277 63.6431 730.227 64.0001 729.009 64.2521C727.791 64.5461 726.594 64.6931 725.418 64.6931ZM747.55 64.6931C745.744 64.6931 744.001 64.5461 742.321 64.2521C740.641 63.9581 739.108 63.5591 737.722 63.0551C736.336 62.5511 735.118 61.9211 734.068 61.1651L736.336 54.9911C737.386 55.6211 738.52 56.1881 739.738 56.6921C740.998 57.1541 742.3 57.5111 743.644 57.7631C744.988 58.0151 746.311 58.1411 747.613 58.1411C749.419 58.1411 750.721 57.8681 751.519 57.3221C752.359 56.7341 752.779 55.9781 752.779 55.0541C752.779 54.2141 752.506 53.5841 751.96 53.1641C751.414 52.7441 750.616 52.4501 749.566 52.2821L742.951 51.0851C740.347 50.6231 738.331 49.6781 736.903 48.2501C735.517 46.7801 734.824 44.9111 734.824 42.6431C734.824 40.5431 735.412 38.7371 736.588 37.2251C737.764 35.6711 739.381 34.4951 741.439 33.6971C743.539 32.8571 745.912 32.4371 748.558 32.4371C750.07 32.4371 751.54 32.5631 752.968 32.8151C754.396 33.0671 755.74 33.4451 757 33.9491C758.302 34.4531 759.457 35.1251 760.465 35.9651L758.071 42.0761C757.273 41.4461 756.328 40.9001 755.236 40.4381C754.144 39.9761 753.031 39.6191 751.897 39.3671C750.763 39.0731 749.692 38.9261 748.684 38.9261C746.794 38.9261 745.429 39.2411 744.589 39.8711C743.749 40.4591 743.329 41.2151 743.329 42.1391C743.329 42.8531 743.56 43.4621 744.022 43.9661C744.526 44.4281 745.282 44.7431 746.29 44.9111L752.905 46.1081C755.635 46.5701 757.714 47.4941 759.142 48.8801C760.57 50.2241 761.284 52.0721 761.284 54.4241C761.284 56.5661 760.717 58.4141 759.583 59.9681C758.449 61.4801 756.853 62.6561 754.795 63.4961C752.737 64.2941 750.322 64.6931 747.55 64.6931Z" fill="white"/>
<path d="M57.8848 7.82324L58.0303 7.9668C58.3749 8.30633 58.7131 8.92093 58.6084 9.67578C58.5468 10.1189 58.3381 10.5664 57.9521 11.002H71.1367V11.502C71.1366 15.8607 69.8787 22.5736 66.1035 28.6064C62.3351 34.6285 56.0594 39.9648 46.0684 41.5938L44.7783 42.6748C45.0444 42.8335 45.2986 43.0164 45.5137 43.2217C45.9075 43.5978 46.2538 44.1338 46.1455 44.7773C46.0394 45.4063 45.5292 45.9387 44.7197 46.3945C43.966 46.8189 42.8669 47.2252 41.334 47.6064C41.7045 50.5254 42.4374 54.7051 43.5088 58.2812C44.0727 60.1635 44.7219 61.8542 45.4463 63.1016C46.1889 64.3802 46.9311 65.0556 47.6211 65.1689L48.04 65.2373V69.0947C48.0401 69.2721 48.1748 69.7987 48.8271 70.0195L48.8496 70.0273L48.8721 70.0371C49.2304 70.199 49.7185 70.7101 49.5889 71.5459V74.1719H21.5479V71.5459C21.4183 70.7101 21.9064 70.1989 22.2646 70.0371L22.2871 70.0273L22.3096 70.0195C22.9617 69.7986 23.0966 69.2721 23.0967 69.0947V65.2373L23.5156 65.1689C24.2055 65.0556 24.9478 64.3802 25.6904 63.1016C26.4147 61.8542 27.064 60.1634 27.6279 58.2812C28.6993 54.7051 29.4322 50.5254 29.8027 47.6064C28.2698 47.2252 27.1708 46.8189 26.417 46.3945C25.6075 45.9387 25.0974 45.4063 24.9912 44.7773C24.8829 44.1338 25.2292 43.5978 25.623 43.2217C25.8381 43.0164 26.0923 42.8335 26.3584 42.6748L25.0684 41.5938C15.0773 39.9648 8.80167 34.6285 5.0332 28.6064C1.25805 22.5736 9.1821e-05 15.8607 0 11.502V11.002H13.1846C12.7987 10.5664 12.5899 10.1189 12.5283 9.67578C12.4237 8.92094 12.7618 8.3063 13.1064 7.9668L13.252 7.82324H57.8848ZM5.99316 15.8242C7.79589 29.0462 17.3535 35.0647 21.9072 36.4209C17.6259 32.1491 15.2412 20.9098 14.584 15.8242H5.99316ZM56.5527 15.8242C55.8955 20.9097 53.5108 32.1491 49.2295 36.4209C53.7833 35.0646 63.3409 29.0461 65.1436 15.8242H56.5527Z" fill="url(#paint0_linear_2018_1458)"/>
<path d="M35.7377 15.4218L42.5957 19.3809V27.2991L35.7377 31.2582L28.8798 27.2991V19.3809L35.7377 15.4218Z" fill="url(#paint1_linear_2018_1458)"/>
<defs>
<linearGradient id="paint0_linear_2018_1458" x1="0" y1="40.9976" x2="71.1367" y2="40.9976" gradientUnits="userSpaceOnUse">
<stop stop-color="#DAA33A"/>
<stop offset="1" stop-color="#F8CD92"/>
</linearGradient>
<linearGradient id="paint1_linear_2018_1458" x1="27.8188" y1="23.34" x2="43.6566" y2="23.34" gradientUnits="userSpaceOnUse">
<stop stop-color="#7841C5"/>
<stop offset="1" stop-color="#2879CB"/>
</linearGradient>
</defs>
</svg>
