<svg width="764" height="88" viewBox="0 0 764 88" fill="none" xmlns="http://www.w3.org/2000/svg">
<path d="M94.1668 64V19.585H114.453C117.771 19.585 120.585 20.152 122.895 21.286C125.205 22.42 126.948 24.037 128.124 26.137C129.342 28.237 129.951 30.778 129.951 33.76C129.951 36.742 129.342 39.304 128.124 41.446C126.948 43.546 125.205 45.163 122.895 46.297C120.585 47.431 117.771 47.998 114.453 47.998H103.932V64H94.1668ZM103.932 40.438H112.815C115.335 40.438 117.246 39.871 118.548 38.737C119.892 37.603 120.564 35.944 120.564 33.76C120.564 31.576 119.892 29.938 118.548 28.846C117.246 27.754 115.335 27.208 112.815 27.208H103.932V40.438ZM146.713 64.693C142.723 64.693 139.804 63.664 137.956 61.606C136.108 59.506 135.184 56.398 135.184 52.282V19.585H144.697V51.904C144.697 52.954 144.865 53.878 145.201 54.676C145.537 55.432 146.02 55.999 146.65 56.377C147.322 56.755 148.162 56.944 149.17 56.944C149.59 56.944 150.031 56.923 150.493 56.881C150.955 56.839 151.396 56.755 151.816 56.629L151.69 64C150.892 64.21 150.073 64.378 149.233 64.504C148.435 64.63 147.595 64.693 146.713 64.693ZM166.621 64.693C164.353 64.693 162.316 64.252 160.51 63.37C158.704 62.488 157.297 61.291 156.289 59.779C155.281 58.267 154.777 56.566 154.777 54.676C154.777 52.408 155.365 50.623 156.541 49.321C157.717 47.977 159.628 47.032 162.274 46.486C164.92 45.898 168.427 45.604 172.795 45.604H176.134V50.518H172.858C171.22 50.518 169.834 50.581 168.7 50.707C167.608 50.833 166.705 51.064 165.991 51.4C165.277 51.694 164.752 52.072 164.416 52.534C164.122 52.996 163.975 53.584 163.975 54.298C163.975 55.474 164.374 56.44 165.172 57.196C166.012 57.952 167.209 58.33 168.763 58.33C169.981 58.33 171.052 58.057 171.976 57.511C172.942 56.923 173.698 56.146 174.244 55.18C174.79 54.172 175.063 53.038 175.063 51.778V44.533C175.063 42.685 174.643 41.383 173.803 40.627C172.963 39.829 171.535 39.43 169.519 39.43C167.839 39.43 166.054 39.703 164.164 40.249C162.316 40.753 160.468 41.53 158.62 42.58L156.037 36.217C157.129 35.461 158.452 34.81 160.006 34.264C161.602 33.676 163.261 33.235 164.983 32.941C166.705 32.605 168.343 32.437 169.897 32.437C173.131 32.437 175.777 32.92 177.835 33.886C179.935 34.81 181.51 36.259 182.56 38.233C183.61 40.165 184.135 42.664 184.135 45.73V64H175.252V57.763H175.693C175.441 59.191 174.895 60.43 174.055 61.48C173.257 62.488 172.228 63.286 170.968 63.874C169.708 64.42 168.259 64.693 166.621 64.693ZM193.318 75.34L200.122 60.409V64.315L186.514 33.067H196.531L205.288 55.243H203.272L212.281 33.067H221.731L203.02 75.34H193.318ZM224.516 64V33.067H233.84V38.863H233.147C234.113 36.805 235.541 35.23 237.431 34.138C239.363 33.004 241.547 32.437 243.983 32.437C246.461 32.437 248.498 32.92 250.094 33.886C251.69 34.81 252.887 36.238 253.685 38.17C254.483 40.06 254.882 42.475 254.882 45.415V64H245.369V45.856C245.369 44.428 245.18 43.273 244.802 42.391C244.466 41.467 243.941 40.816 243.227 40.438C242.555 40.018 241.694 39.808 240.644 39.808C239.3 39.808 238.124 40.102 237.116 40.69C236.15 41.236 235.394 42.034 234.848 43.084C234.302 44.134 234.029 45.352 234.029 46.738V64H224.516ZM261.606 27.082V18.199H271.875V27.082H261.606ZM261.984 64V33.067H271.497V64H261.984ZM294.024 64.693C289.614 64.693 286.338 63.622 284.196 61.48C282.054 59.338 280.983 56.188 280.983 52.03V40.186H275.124V33.067H280.983V23.995H290.496V33.067H299.631V40.186H290.496V51.652C290.496 53.416 290.895 54.739 291.693 55.621C292.533 56.503 293.856 56.944 295.662 56.944C296.208 56.944 296.775 56.881 297.363 56.755C297.993 56.629 298.665 56.461 299.379 56.251L300.765 63.181C299.883 63.643 298.833 64 297.615 64.252C296.397 64.546 295.2 64.693 294.024 64.693ZM320.069 64.693C316.415 64.693 313.265 64.042 310.619 62.74C308.015 61.396 305.999 59.527 304.571 57.133C303.185 54.697 302.492 51.841 302.492 48.565C302.492 45.373 303.164 42.58 304.508 40.186C305.852 37.75 307.721 35.86 310.115 34.516C312.551 33.13 315.302 32.437 318.368 32.437C321.392 32.437 323.996 33.088 326.18 34.39C328.364 35.65 330.044 37.456 331.22 39.808C332.438 42.16 333.047 44.953 333.047 48.187V50.581H310.304V45.667H326.18L325.172 46.549C325.172 43.987 324.605 42.055 323.471 40.753C322.379 39.409 320.804 38.737 318.746 38.737C317.192 38.737 315.869 39.094 314.777 39.808C313.685 40.522 312.845 41.551 312.257 42.895C311.669 44.239 311.375 45.856 311.375 47.746V48.25C311.375 50.392 311.69 52.156 312.32 53.542C312.992 54.886 313.979 55.894 315.281 56.566C316.625 57.238 318.284 57.574 320.258 57.574C321.938 57.574 323.639 57.322 325.361 56.818C327.083 56.314 328.637 55.537 330.023 54.487L332.543 60.85C330.989 62.026 329.078 62.971 326.81 63.685C324.584 64.357 322.337 64.693 320.069 64.693Z" fill="white"/>
<path d="M345.12 64L365.532 19.585H373.407L393.819 64H383.991L378.699 51.652L382.605 54.361H356.334L360.24 51.652L355.011 64H345.12ZM369.375 29.98L361.311 49.195L359.61 46.738H379.329L377.628 49.195L369.501 29.98H369.375ZM411.588 64.693C408.228 64.693 405.288 64.042 402.768 62.74C400.29 61.396 398.379 59.506 397.035 57.07C395.691 54.634 395.019 51.757 395.019 48.439C395.019 45.121 395.691 42.265 397.035 39.871C398.379 37.477 400.29 35.65 402.768 34.39C405.288 33.088 408.228 32.437 411.588 32.437C413.604 32.437 415.599 32.731 417.573 33.319C419.589 33.907 421.227 34.747 422.487 35.839L419.841 42.391C418.833 41.551 417.657 40.9 416.313 40.438C414.969 39.934 413.709 39.682 412.533 39.682C410.055 39.682 408.123 40.459 406.737 42.013C405.393 43.525 404.721 45.688 404.721 48.502C404.721 51.274 405.393 53.458 406.737 55.054C408.123 56.608 410.055 57.385 412.533 57.385C413.709 57.385 414.969 57.154 416.313 56.692C417.657 56.23 418.833 55.558 419.841 54.676L422.487 61.228C421.227 62.278 419.589 63.118 417.573 63.748C415.557 64.378 413.562 64.693 411.588 64.693ZM426.616 64V19.585H436.129V38.863H435.247C436.213 36.805 437.641 35.23 439.531 34.138C441.463 33.004 443.647 32.437 446.083 32.437C448.561 32.437 450.598 32.92 452.194 33.886C453.79 34.81 454.987 36.238 455.785 38.17C456.583 40.06 456.982 42.475 456.982 45.415V64H447.469V45.856C447.469 44.428 447.28 43.273 446.902 42.391C446.566 41.467 446.041 40.816 445.327 40.438C444.655 40.018 443.794 39.808 442.744 39.808C441.4 39.808 440.224 40.102 439.216 40.69C438.25 41.236 437.494 42.034 436.948 43.084C436.402 44.134 436.129 45.352 436.129 46.738V64H426.616ZM463.706 27.082V18.199H473.975V27.082H463.706ZM464.084 64V33.067H473.597V64H464.084ZM497.006 64.693C493.352 64.693 490.202 64.042 487.556 62.74C484.952 61.396 482.936 59.527 481.508 57.133C480.122 54.697 479.429 51.841 479.429 48.565C479.429 45.373 480.101 42.58 481.445 40.186C482.789 37.75 484.658 35.86 487.052 34.516C489.488 33.13 492.239 32.437 495.305 32.437C498.329 32.437 500.933 33.088 503.117 34.39C505.301 35.65 506.981 37.456 508.157 39.808C509.375 42.16 509.984 44.953 509.984 48.187V50.581H487.241V45.667H503.117L502.109 46.549C502.109 43.987 501.542 42.055 500.408 40.753C499.316 39.409 497.741 38.737 495.683 38.737C494.129 38.737 492.806 39.094 491.714 39.808C490.622 40.522 489.782 41.551 489.194 42.895C488.606 44.239 488.312 45.856 488.312 47.746V48.25C488.312 50.392 488.627 52.156 489.257 53.542C489.929 54.886 490.916 55.894 492.218 56.566C493.562 57.238 495.221 57.574 497.195 57.574C498.875 57.574 500.576 57.322 502.298 56.818C504.02 56.314 505.574 55.537 506.96 54.487L509.48 60.85C507.926 62.026 506.015 62.971 503.747 63.685C501.521 64.357 499.274 64.693 497.006 64.693ZM524.099 64L510.617 33.067H520.634L529.328 55.243H527.312L536.384 33.067H545.771L532.1 64H524.099ZM563.944 64.693C560.29 64.693 557.14 64.042 554.494 62.74C551.89 61.396 549.874 59.527 548.446 57.133C547.06 54.697 546.367 51.841 546.367 48.565C546.367 45.373 547.039 42.58 548.383 40.186C549.727 37.75 551.596 35.86 553.99 34.516C556.426 33.13 559.177 32.437 562.243 32.437C565.267 32.437 567.871 33.088 570.055 34.39C572.239 35.65 573.919 37.456 575.095 39.808C576.313 42.16 576.922 44.953 576.922 48.187V50.581H554.179V45.667H570.055L569.047 46.549C569.047 43.987 568.48 42.055 567.346 40.753C566.254 39.409 564.679 38.737 562.621 38.737C561.067 38.737 559.744 39.094 558.652 39.808C557.56 40.522 556.72 41.551 556.132 42.895C555.544 44.239 555.25 45.856 555.25 47.746V48.25C555.25 50.392 555.565 52.156 556.195 53.542C556.867 54.886 557.854 55.894 559.156 56.566C560.5 57.238 562.159 57.574 564.133 57.574C565.813 57.574 567.514 57.322 569.236 56.818C570.958 56.314 572.512 55.537 573.898 54.487L576.418 60.85C574.864 62.026 572.953 62.971 570.685 63.685C568.459 64.357 566.212 64.693 563.944 64.693ZM582.581 64V33.067H591.905V38.863H591.212C591.758 37.561 592.514 36.427 593.48 35.461C594.446 34.495 595.601 33.76 596.945 33.256C598.289 32.71 599.759 32.437 601.355 32.437C603.749 32.437 605.744 33.004 607.34 34.138C608.936 35.272 610.07 37.015 610.742 39.367H609.86C610.784 37.225 612.191 35.545 614.081 34.327C616.013 33.067 618.218 32.437 620.696 32.437C623.09 32.437 625.043 32.92 626.555 33.886C628.109 34.81 629.264 36.238 630.02 38.17C630.776 40.06 631.154 42.475 631.154 45.415V64H621.641V45.73C621.641 43.672 621.305 42.181 620.633 41.257C620.003 40.291 618.911 39.808 617.357 39.808C616.181 39.808 615.152 40.102 614.27 40.69C613.388 41.236 612.716 42.055 612.254 43.147C611.834 44.197 611.624 45.499 611.624 47.053V64H602.111V45.73C602.111 43.672 601.775 42.181 601.103 41.257C600.473 40.291 599.381 39.808 597.827 39.808C596.609 39.808 595.58 40.102 594.74 40.69C593.9 41.236 593.249 42.055 592.787 43.147C592.325 44.197 592.094 45.499 592.094 47.053V64H582.581ZM654.506 64.693C650.852 64.693 647.702 64.042 645.056 62.74C642.452 61.396 640.436 59.527 639.008 57.133C637.622 54.697 636.929 51.841 636.929 48.565C636.929 45.373 637.601 42.58 638.945 40.186C640.289 37.75 642.158 35.86 644.552 34.516C646.988 33.13 649.739 32.437 652.805 32.437C655.829 32.437 658.433 33.088 660.617 34.39C662.801 35.65 664.481 37.456 665.657 39.808C666.875 42.16 667.484 44.953 667.484 48.187V50.581H644.741V45.667H660.617L659.609 46.549C659.609 43.987 659.042 42.055 657.908 40.753C656.816 39.409 655.241 38.737 653.183 38.737C651.629 38.737 650.306 39.094 649.214 39.808C648.122 40.522 647.282 41.551 646.694 42.895C646.106 44.239 645.812 45.856 645.812 47.746V48.25C645.812 50.392 646.127 52.156 646.757 53.542C647.429 54.886 648.416 55.894 649.718 56.566C651.062 57.238 652.721 57.574 654.695 57.574C656.375 57.574 658.076 57.322 659.798 56.818C661.52 56.314 663.074 55.537 664.46 54.487L666.98 60.85C665.426 62.026 663.515 62.971 661.247 63.685C659.021 64.357 656.774 64.693 654.506 64.693ZM673.017 64V33.067H682.341V38.863H681.648C682.614 36.805 684.042 35.23 685.932 34.138C687.864 33.004 690.048 32.437 692.484 32.437C694.962 32.437 696.999 32.92 698.595 33.886C700.191 34.81 701.388 36.238 702.186 38.17C702.984 40.06 703.383 42.475 703.383 45.415V64H693.87V45.856C693.87 44.428 693.681 43.273 693.303 42.391C692.967 41.467 692.442 40.816 691.728 40.438C691.056 40.018 690.195 39.808 689.145 39.808C687.801 39.808 686.625 40.102 685.617 40.69C684.651 41.236 683.895 42.034 683.349 43.084C682.803 44.134 682.53 45.352 682.53 46.738V64H673.017ZM725.668 64.693C721.258 64.693 717.982 63.622 715.84 61.48C713.698 59.338 712.627 56.188 712.627 52.03V40.186H706.768V33.067H712.627V23.995H722.14V33.067H731.275V40.186H722.14V51.652C722.14 53.416 722.539 54.739 723.337 55.621C724.177 56.503 725.5 56.944 727.306 56.944C727.852 56.944 728.419 56.881 729.007 56.755C729.637 56.629 730.309 56.461 731.023 56.251L732.409 63.181C731.527 63.643 730.477 64 729.259 64.252C728.041 64.546 726.844 64.693 725.668 64.693ZM747.8 64.693C745.994 64.693 744.251 64.546 742.571 64.252C740.891 63.958 739.358 63.559 737.972 63.055C736.586 62.551 735.368 61.921 734.318 61.165L736.586 54.991C737.636 55.621 738.77 56.188 739.988 56.692C741.248 57.154 742.55 57.511 743.894 57.763C745.238 58.015 746.561 58.141 747.863 58.141C749.669 58.141 750.971 57.868 751.769 57.322C752.609 56.734 753.029 55.978 753.029 55.054C753.029 54.214 752.756 53.584 752.21 53.164C751.664 52.744 750.866 52.45 749.816 52.282L743.201 51.085C740.597 50.623 738.581 49.678 737.153 48.25C735.767 46.78 735.074 44.911 735.074 42.643C735.074 40.543 735.662 38.737 736.838 37.225C738.014 35.671 739.631 34.495 741.689 33.697C743.789 32.857 746.162 32.437 748.808 32.437C750.32 32.437 751.79 32.563 753.218 32.815C754.646 33.067 755.99 33.445 757.25 33.949C758.552 34.453 759.707 35.125 760.715 35.965L758.321 42.076C757.523 41.446 756.578 40.9 755.486 40.438C754.394 39.976 753.281 39.619 752.147 39.367C751.013 39.073 749.942 38.926 748.934 38.926C747.044 38.926 745.679 39.241 744.839 39.871C743.999 40.459 743.579 41.215 743.579 42.139C743.579 42.853 743.81 43.462 744.272 43.966C744.776 44.428 745.532 44.743 746.54 44.911L753.155 46.108C755.885 46.57 757.964 47.494 759.392 48.88C760.82 50.224 761.534 52.072 761.534 54.424C761.534 56.566 760.967 58.414 759.833 59.968C758.699 61.48 757.103 62.656 755.045 63.496C752.987 64.294 750.572 64.693 747.8 64.693Z" fill="white"/>
<path d="M58.3291 7.64551L58.4746 7.78906C58.8621 8.17089 59.2428 8.86036 59.125 9.70996C59.0758 10.0631 58.9428 10.4124 58.7236 10.752H71.6592V11.502C71.659 15.9 70.3908 22.6607 66.5859 28.7393C62.7909 34.8016 56.4736 40.1734 46.4404 41.8281L45.4619 42.6484C45.6351 42.7681 45.8017 42.8983 45.9512 43.041C46.3697 43.4407 46.7846 44.0548 46.6562 44.8184V44.8193C46.5309 45.5606 45.9388 46.1442 45.1074 46.6123C44.3628 47.0314 43.3064 47.4238 41.874 47.792C42.2519 50.6903 42.9716 54.739 44.0117 58.21C44.5734 60.0841 45.2166 61.753 45.9268 62.9756C46.6644 64.2452 47.3562 64.8281 47.9268 64.9219H47.9258L48.3447 64.9902L48.5547 65.0244V69.0947L48.5596 69.1436C48.5837 69.2884 48.7088 69.6262 49.1729 69.7832H49.1748L49.1973 69.791L49.2109 69.7959L49.2227 69.8018L49.2451 69.8125H49.2441C49.6835 70.013 50.2385 70.6118 50.1045 71.5566V74.4219H21.5547V71.5566C21.4207 70.6123 21.9748 70.0134 22.4141 69.8125L22.4365 69.8018L22.4482 69.7959L22.4619 69.791L22.4844 69.7832H22.4863C22.9504 69.6261 23.0755 69.2884 23.0996 69.1436L23.1045 69.0947V65.0244L23.3145 64.9902L23.7334 64.9219C24.3039 64.8279 24.995 64.2448 25.7324 62.9756C26.4426 61.753 27.0858 60.0841 27.6475 58.21C28.6876 54.739 29.4063 50.6903 29.7842 47.792C28.3522 47.4239 27.2963 47.0314 26.5518 46.6123C25.7203 46.1442 25.1283 45.5606 25.0029 44.8193C24.8743 44.0556 25.2894 43.4407 25.708 43.041C25.8573 42.8985 26.0234 42.768 26.1963 42.6484L25.2178 41.8281C15.1851 40.1732 8.86813 34.8015 5.07324 28.7393C1.26833 22.6607 0.000121489 15.9 0 11.502V10.752H12.9355C12.7164 10.4124 12.5833 10.0631 12.5342 9.70996C12.4164 8.86033 12.7971 8.17089 13.1846 7.78906L13.3301 7.64551L13.4033 7.57324H58.2559L58.3291 7.64551ZM6.53418 16.0742C8.29877 28.1603 16.6261 34.0804 21.332 35.8721C19.4609 33.6072 17.9938 30.0755 16.9033 26.501C15.7187 22.6179 14.9657 18.6397 14.6211 16.0742H6.53418ZM57.0381 16.0742C56.6935 18.6396 55.9403 22.6172 54.7559 26.5C53.6655 30.0746 52.1984 33.6061 50.3271 35.8711C55.033 34.0796 63.3603 28.1605 65.125 16.0742H57.0381ZM36.376 15.2832C36.2393 15.203 36.0735 15.1938 35.9297 15.2539L35.8691 15.2832L29.543 18.9951C29.39 19.0849 29.2959 19.2494 29.2959 19.4268V26.8506C29.296 27.0279 29.39 27.1925 29.543 27.2822L35.8691 30.9941C36.0253 31.0856 36.2199 31.0857 36.376 30.9941L42.7021 27.2822C42.855 27.1925 42.9491 27.0278 42.9492 26.8506V19.4268C42.9492 19.2496 42.8549 19.0849 42.7021 18.9951L36.376 15.2832Z" fill="url(#paint0_linear_2018_1480)"/>
<defs>
<linearGradient id="paint0_linear_2018_1480" x1="0.25" y1="40.9976" x2="71.4092" y2="40.9976" gradientUnits="userSpaceOnUse">
<stop stop-color="#4E77D4"/>
<stop offset="1" stop-color="#79A3D7"/>
</linearGradient>
</defs>
</svg>
