<svg width="320" height="298" viewBox="0 0 320 298" fill="none" xmlns="http://www.w3.org/2000/svg">
<path d="M223.761 281.203C204.259 291.909 181.864 298 158.046 298L156.278 297.988C138.116 297.758 120.807 293.986 105.01 287.333L111.217 268.229C125.552 274.513 141.392 278 158.046 278C176.283 278 193.542 273.818 208.92 266.362L223.761 281.203ZM41.3271 158.093C41.2995 159.138 41.2852 160.187 41.2852 161.239C41.2852 190.224 51.848 216.74 69.332 237.153L53.1074 248.94C33.595 225.618 21.7099 195.695 21.2959 163.007L21.2852 161.239C21.2852 160.568 21.2911 159.898 21.3008 159.229L27.3311 162.71L30.3311 164.442L33.3311 162.71L41.3271 158.093ZM294.599 153.67C294.735 156.176 294.807 158.699 294.807 161.239L294.795 163.007C294.397 194.401 283.42 223.244 265.267 246.139L251.014 231.886C265.942 212.271 274.807 187.791 274.807 161.239C274.807 158.696 274.726 156.172 274.565 153.67H294.599ZM193.079 29.0088C228.299 38.3154 257.952 61.3182 275.994 91.9756L264.162 112.47C250.478 82.744 224.673 59.7509 193.079 49.8262V29.0088ZM123.012 49.8271C94.2393 58.8659 70.2675 78.742 55.8799 104.672L38.5527 94.668C56.419 62.6672 86.7685 38.5871 123.012 29.0098V49.8271ZM129.013 48.1172H129.012V27.5684H129.013V48.1172Z" fill="url(#paint0_linear_2156_1153)"/>
<path d="M79.2892 237.336L108.137 258.295L97.118 292.207H61.4604L50.4416 258.295L79.2892 237.336Z" fill="url(#paint1_linear_2156_1153)"/>
<path d="M30.3321 96.85L56.6006 112.016V142.348L30.3321 157.514L4.06374 142.348V112.016L30.3321 96.85Z" fill="url(#paint2_linear_2156_1153)"/>
<path d="M158.046 0L187.08 16.7625V50.2875L158.046 67.05L129.013 50.2875V16.7625L158.046 0Z" fill="url(#paint3_linear_2156_1153)"/>
<path d="M239.464 228.821L269.264 258.621L239.464 288.421L209.664 258.621L239.464 228.821Z" fill="url(#paint4_linear_2156_1153)"/>
<path d="M282.567 92.5929L314.366 147.67H250.769L282.567 92.5929Z" fill="url(#paint5_linear_2156_1153)"/>
<path d="M203.539 101.156L203.686 101.3C204.294 101.899 204.89 102.987 204.705 104.319C204.56 105.366 203.941 106.483 202.617 107.579H230.014V108.079C230.014 116.806 227.49 130.273 219.921 142.37C212.358 154.457 199.758 165.168 179.648 168.406L176.37 171.155C177.111 171.533 177.833 172.001 178.4 172.543C179.144 173.253 179.704 174.176 179.526 175.231C179.351 176.273 178.489 177.244 176.899 178.14C175.362 179.005 173.051 179.85 169.739 180.646C170.47 186.578 171.982 195.302 174.213 202.75C175.357 206.569 176.683 210.029 178.176 212.6C179.687 215.202 181.289 216.755 182.928 217.024L183.347 217.093V224.454C183.347 224.977 183.711 226.274 185.283 226.807L185.307 226.814L185.329 226.824C185.88 227.073 186.72 227.913 186.477 229.369V234.202H130.84V229.369C130.596 227.913 131.437 227.073 131.987 226.824L132.01 226.814L132.033 226.807C133.605 226.274 133.97 224.977 133.97 224.454V217.093L134.389 217.024C136.027 216.755 137.63 215.202 139.141 212.6C140.633 210.029 141.959 206.569 143.104 202.75C145.335 195.302 146.846 186.578 147.577 180.646C144.265 179.85 141.954 179.005 140.417 178.14C138.827 177.244 137.966 176.273 137.79 175.231C137.612 174.175 138.172 173.254 138.916 172.543C139.483 172.002 140.205 171.533 140.946 171.155L137.668 168.406C117.558 165.169 104.959 154.457 97.3955 142.37C89.8261 130.273 87.3028 116.807 87.3027 108.079V107.579H114.699C113.375 106.483 112.757 105.366 112.611 104.319C112.426 102.987 113.023 101.899 113.631 101.3L113.777 101.156H203.539ZM98.9023 116.813C102.545 143.531 121.857 155.691 131.058 158.432C122.407 149.8 117.589 127.09 116.261 116.813H98.9023ZM201.056 116.813C199.728 127.089 194.909 149.8 186.259 158.432C195.46 155.691 214.771 143.53 218.413 116.813H201.056Z" fill="url(#paint6_linear_2156_1153)"/>
<defs>
<linearGradient id="paint0_linear_2156_1153" x1="21.2852" y1="162.784" x2="294.807" y2="162.784" gradientUnits="userSpaceOnUse">
<stop stop-color="#DAA33A"/>
<stop offset="1" stop-color="#F8CD92"/>
</linearGradient>
<linearGradient id="paint1_linear_2156_1153" x1="48.957" y1="267.668" x2="109.621" y2="267.668" gradientUnits="userSpaceOnUse">
<stop stop-color="#DAA33A"/>
<stop offset="1" stop-color="#F8CD92"/>
</linearGradient>
<linearGradient id="paint2_linear_2156_1153" x1="0" y1="127.182" x2="60.6643" y2="127.182" gradientUnits="userSpaceOnUse">
<stop stop-color="#DAA33A"/>
<stop offset="1" stop-color="#F8CD92"/>
</linearGradient>
<linearGradient id="paint3_linear_2156_1153" x1="124.521" y1="33.525" x2="191.571" y2="33.525" gradientUnits="userSpaceOnUse">
<stop stop-color="#DAA33A"/>
<stop offset="1" stop-color="#F8CD92"/>
</linearGradient>
<linearGradient id="paint4_linear_2156_1153" x1="209.664" y1="258.621" x2="269.264" y2="258.621" gradientUnits="userSpaceOnUse">
<stop stop-color="#DAA33A"/>
<stop offset="1" stop-color="#F8CD92"/>
</linearGradient>
<linearGradient id="paint5_linear_2156_1153" x1="245.85" y1="129.311" x2="319.285" y2="129.311" gradientUnits="userSpaceOnUse">
<stop stop-color="#DAA33A"/>
<stop offset="1" stop-color="#F8CD92"/>
</linearGradient>
<linearGradient id="paint6_linear_2156_1153" x1="87.3027" y1="167.679" x2="230.014" y2="167.679" gradientUnits="userSpaceOnUse">
<stop stop-color="#DAA33A"/>
<stop offset="1" stop-color="#F8CD92"/>
</linearGradient>
</defs>
</svg>
