<svg width="766" height="88" viewBox="0 0 766 88" fill="none" xmlns="http://www.w3.org/2000/svg">
<path d="M94.9393 64V19.585H115.225C118.543 19.585 121.357 20.152 123.667 21.286C125.977 22.42 127.72 24.037 128.896 26.137C130.114 28.237 130.723 30.778 130.723 33.76C130.723 36.742 130.114 39.304 128.896 41.446C127.72 43.546 125.977 45.163 123.667 46.297C121.357 47.431 118.543 47.998 115.225 47.998H104.704V64H94.9393ZM104.704 40.438H113.587C116.107 40.438 118.018 39.871 119.32 38.737C120.664 37.603 121.336 35.944 121.336 33.76C121.336 31.576 120.664 29.938 119.32 28.846C118.018 27.754 116.107 27.208 113.587 27.208H104.704V40.438ZM147.485 64.693C143.495 64.693 140.576 63.664 138.728 61.606C136.88 59.506 135.956 56.398 135.956 52.282V19.585H145.469V51.904C145.469 52.954 145.637 53.878 145.973 54.676C146.309 55.432 146.792 55.999 147.422 56.377C148.094 56.755 148.934 56.944 149.942 56.944C150.362 56.944 150.803 56.923 151.265 56.881C151.727 56.839 152.168 56.755 152.588 56.629L152.462 64C151.664 64.21 150.845 64.378 150.005 64.504C149.207 64.63 148.367 64.693 147.485 64.693ZM167.394 64.693C165.126 64.693 163.089 64.252 161.283 63.37C159.477 62.488 158.07 61.291 157.062 59.779C156.054 58.267 155.55 56.566 155.55 54.676C155.55 52.408 156.138 50.623 157.314 49.321C158.49 47.977 160.401 47.032 163.047 46.486C165.693 45.898 169.2 45.604 173.568 45.604H176.907V50.518H173.631C171.993 50.518 170.607 50.581 169.473 50.707C168.381 50.833 167.478 51.064 166.764 51.4C166.05 51.694 165.525 52.072 165.189 52.534C164.895 52.996 164.748 53.584 164.748 54.298C164.748 55.474 165.147 56.44 165.945 57.196C166.785 57.952 167.982 58.33 169.536 58.33C170.754 58.33 171.825 58.057 172.749 57.511C173.715 56.923 174.471 56.146 175.017 55.18C175.563 54.172 175.836 53.038 175.836 51.778V44.533C175.836 42.685 175.416 41.383 174.576 40.627C173.736 39.829 172.308 39.43 170.292 39.43C168.612 39.43 166.827 39.703 164.937 40.249C163.089 40.753 161.241 41.53 159.393 42.58L156.81 36.217C157.902 35.461 159.225 34.81 160.779 34.264C162.375 33.676 164.034 33.235 165.756 32.941C167.478 32.605 169.116 32.437 170.67 32.437C173.904 32.437 176.55 32.92 178.608 33.886C180.708 34.81 182.283 36.259 183.333 38.233C184.383 40.165 184.908 42.664 184.908 45.73V64H176.025V57.763H176.466C176.214 59.191 175.668 60.43 174.828 61.48C174.03 62.488 173.001 63.286 171.741 63.874C170.481 64.42 169.032 64.693 167.394 64.693ZM194.09 75.34L200.894 60.409V64.315L187.286 33.067H197.303L206.06 55.243H204.044L213.053 33.067H222.503L203.792 75.34H194.09ZM225.288 64V33.067H234.612V38.863H233.919C234.885 36.805 236.313 35.23 238.203 34.138C240.135 33.004 242.319 32.437 244.755 32.437C247.233 32.437 249.27 32.92 250.866 33.886C252.462 34.81 253.659 36.238 254.457 38.17C255.255 40.06 255.654 42.475 255.654 45.415V64H246.141V45.856C246.141 44.428 245.952 43.273 245.574 42.391C245.238 41.467 244.713 40.816 243.999 40.438C243.327 40.018 242.466 39.808 241.416 39.808C240.072 39.808 238.896 40.102 237.888 40.69C236.922 41.236 236.166 42.034 235.62 43.084C235.074 44.134 234.801 45.352 234.801 46.738V64H225.288ZM262.378 27.082V18.199H272.647V27.082H262.378ZM262.756 64V33.067H272.269V64H262.756ZM294.796 64.693C290.386 64.693 287.11 63.622 284.968 61.48C282.826 59.338 281.755 56.188 281.755 52.03V40.186H275.896V33.067H281.755V23.995H291.268V33.067H300.403V40.186H291.268V51.652C291.268 53.416 291.667 54.739 292.465 55.621C293.305 56.503 294.628 56.944 296.434 56.944C296.98 56.944 297.547 56.881 298.135 56.755C298.765 56.629 299.437 56.461 300.151 56.251L301.537 63.181C300.655 63.643 299.605 64 298.387 64.252C297.169 64.546 295.972 64.693 294.796 64.693ZM320.842 64.693C317.188 64.693 314.038 64.042 311.392 62.74C308.788 61.396 306.772 59.527 305.344 57.133C303.958 54.697 303.265 51.841 303.265 48.565C303.265 45.373 303.937 42.58 305.281 40.186C306.625 37.75 308.494 35.86 310.888 34.516C313.324 33.13 316.075 32.437 319.141 32.437C322.165 32.437 324.769 33.088 326.953 34.39C329.137 35.65 330.817 37.456 331.993 39.808C333.211 42.16 333.82 44.953 333.82 48.187V50.581H311.077V45.667H326.953L325.945 46.549C325.945 43.987 325.378 42.055 324.244 40.753C323.152 39.409 321.577 38.737 319.519 38.737C317.965 38.737 316.642 39.094 315.55 39.808C314.458 40.522 313.618 41.551 313.03 42.895C312.442 44.239 312.148 45.856 312.148 47.746V48.25C312.148 50.392 312.463 52.156 313.093 53.542C313.765 54.886 314.752 55.894 316.054 56.566C317.398 57.238 319.057 57.574 321.031 57.574C322.711 57.574 324.412 57.322 326.134 56.818C327.856 56.314 329.41 55.537 330.796 54.487L333.316 60.85C331.762 62.026 329.851 62.971 327.583 63.685C325.357 64.357 323.11 64.693 320.842 64.693Z" fill="#151630"/>
<path d="M345.569 64L365.981 19.585H373.856L394.268 64H384.44L379.148 51.652L383.054 54.361H356.783L360.689 51.652L355.46 64H345.569ZM369.824 29.98L361.76 49.195L360.059 46.738H379.778L378.077 49.195L369.95 29.98H369.824ZM412.037 64.693C408.677 64.693 405.737 64.042 403.217 62.74C400.739 61.396 398.828 59.506 397.484 57.07C396.14 54.634 395.468 51.757 395.468 48.439C395.468 45.121 396.14 42.265 397.484 39.871C398.828 37.477 400.739 35.65 403.217 34.39C405.737 33.088 408.677 32.437 412.037 32.437C414.053 32.437 416.048 32.731 418.022 33.319C420.038 33.907 421.676 34.747 422.936 35.839L420.29 42.391C419.282 41.551 418.106 40.9 416.762 40.438C415.418 39.934 414.158 39.682 412.982 39.682C410.504 39.682 408.572 40.459 407.186 42.013C405.842 43.525 405.17 45.688 405.17 48.502C405.17 51.274 405.842 53.458 407.186 55.054C408.572 56.608 410.504 57.385 412.982 57.385C414.158 57.385 415.418 57.154 416.762 56.692C418.106 56.23 419.282 55.558 420.29 54.676L422.936 61.228C421.676 62.278 420.038 63.118 418.022 63.748C416.006 64.378 414.011 64.693 412.037 64.693ZM427.065 64V19.585H436.578V38.863H435.696C436.662 36.805 438.09 35.23 439.98 34.138C441.912 33.004 444.096 32.437 446.532 32.437C449.01 32.437 451.047 32.92 452.643 33.886C454.239 34.81 455.436 36.238 456.234 38.17C457.032 40.06 457.431 42.475 457.431 45.415V64H447.918V45.856C447.918 44.428 447.729 43.273 447.351 42.391C447.015 41.467 446.49 40.816 445.776 40.438C445.104 40.018 444.243 39.808 443.193 39.808C441.849 39.808 440.673 40.102 439.665 40.69C438.699 41.236 437.943 42.034 437.397 43.084C436.851 44.134 436.578 45.352 436.578 46.738V64H427.065ZM464.155 27.082V18.199H474.424V27.082H464.155ZM464.533 64V33.067H474.046V64H464.533ZM497.455 64.693C493.801 64.693 490.651 64.042 488.005 62.74C485.401 61.396 483.385 59.527 481.957 57.133C480.571 54.697 479.878 51.841 479.878 48.565C479.878 45.373 480.55 42.58 481.894 40.186C483.238 37.75 485.107 35.86 487.501 34.516C489.937 33.13 492.688 32.437 495.754 32.437C498.778 32.437 501.382 33.088 503.566 34.39C505.75 35.65 507.43 37.456 508.606 39.808C509.824 42.16 510.433 44.953 510.433 48.187V50.581H487.69V45.667H503.566L502.558 46.549C502.558 43.987 501.991 42.055 500.857 40.753C499.765 39.409 498.19 38.737 496.132 38.737C494.578 38.737 493.255 39.094 492.163 39.808C491.071 40.522 490.231 41.551 489.643 42.895C489.055 44.239 488.761 45.856 488.761 47.746V48.25C488.761 50.392 489.076 52.156 489.706 53.542C490.378 54.886 491.365 55.894 492.667 56.566C494.011 57.238 495.67 57.574 497.644 57.574C499.324 57.574 501.025 57.322 502.747 56.818C504.469 56.314 506.023 55.537 507.409 54.487L509.929 60.85C508.375 62.026 506.464 62.971 504.196 63.685C501.97 64.357 499.723 64.693 497.455 64.693ZM524.548 64L511.066 33.067H521.083L529.777 55.243H527.761L536.833 33.067H546.22L532.549 64H524.548ZM564.393 64.693C560.739 64.693 557.589 64.042 554.943 62.74C552.339 61.396 550.323 59.527 548.895 57.133C547.509 54.697 546.816 51.841 546.816 48.565C546.816 45.373 547.488 42.58 548.832 40.186C550.176 37.75 552.045 35.86 554.439 34.516C556.875 33.13 559.626 32.437 562.692 32.437C565.716 32.437 568.32 33.088 570.504 34.39C572.688 35.65 574.368 37.456 575.544 39.808C576.762 42.16 577.371 44.953 577.371 48.187V50.581H554.628V45.667H570.504L569.496 46.549C569.496 43.987 568.929 42.055 567.795 40.753C566.703 39.409 565.128 38.737 563.07 38.737C561.516 38.737 560.193 39.094 559.101 39.808C558.009 40.522 557.169 41.551 556.581 42.895C555.993 44.239 555.699 45.856 555.699 47.746V48.25C555.699 50.392 556.014 52.156 556.644 53.542C557.316 54.886 558.303 55.894 559.605 56.566C560.949 57.238 562.608 57.574 564.582 57.574C566.262 57.574 567.963 57.322 569.685 56.818C571.407 56.314 572.961 55.537 574.347 54.487L576.867 60.85C575.313 62.026 573.402 62.971 571.134 63.685C568.908 64.357 566.661 64.693 564.393 64.693ZM583.03 64V33.067H592.354V38.863H591.661C592.207 37.561 592.963 36.427 593.929 35.461C594.895 34.495 596.05 33.76 597.394 33.256C598.738 32.71 600.208 32.437 601.804 32.437C604.198 32.437 606.193 33.004 607.789 34.138C609.385 35.272 610.519 37.015 611.191 39.367H610.309C611.233 37.225 612.64 35.545 614.53 34.327C616.462 33.067 618.667 32.437 621.145 32.437C623.539 32.437 625.492 32.92 627.004 33.886C628.558 34.81 629.713 36.238 630.469 38.17C631.225 40.06 631.603 42.475 631.603 45.415V64H622.09V45.73C622.09 43.672 621.754 42.181 621.082 41.257C620.452 40.291 619.36 39.808 617.806 39.808C616.63 39.808 615.601 40.102 614.719 40.69C613.837 41.236 613.165 42.055 612.703 43.147C612.283 44.197 612.073 45.499 612.073 47.053V64H602.56V45.73C602.56 43.672 602.224 42.181 601.552 41.257C600.922 40.291 599.83 39.808 598.276 39.808C597.058 39.808 596.029 40.102 595.189 40.69C594.349 41.236 593.698 42.055 593.236 43.147C592.774 44.197 592.543 45.499 592.543 47.053V64H583.03ZM654.955 64.693C651.301 64.693 648.151 64.042 645.505 62.74C642.901 61.396 640.885 59.527 639.457 57.133C638.071 54.697 637.378 51.841 637.378 48.565C637.378 45.373 638.05 42.58 639.394 40.186C640.738 37.75 642.607 35.86 645.001 34.516C647.437 33.13 650.188 32.437 653.254 32.437C656.278 32.437 658.882 33.088 661.066 34.39C663.25 35.65 664.93 37.456 666.106 39.808C667.324 42.16 667.933 44.953 667.933 48.187V50.581H645.19V45.667H661.066L660.058 46.549C660.058 43.987 659.491 42.055 658.357 40.753C657.265 39.409 655.69 38.737 653.632 38.737C652.078 38.737 650.755 39.094 649.663 39.808C648.571 40.522 647.731 41.551 647.143 42.895C646.555 44.239 646.261 45.856 646.261 47.746V48.25C646.261 50.392 646.576 52.156 647.206 53.542C647.878 54.886 648.865 55.894 650.167 56.566C651.511 57.238 653.17 57.574 655.144 57.574C656.824 57.574 658.525 57.322 660.247 56.818C661.969 56.314 663.523 55.537 664.909 54.487L667.429 60.85C665.875 62.026 663.964 62.971 661.696 63.685C659.47 64.357 657.223 64.693 654.955 64.693ZM673.467 64V33.067H682.791V38.863H682.098C683.064 36.805 684.492 35.23 686.382 34.138C688.314 33.004 690.498 32.437 692.934 32.437C695.412 32.437 697.449 32.92 699.045 33.886C700.641 34.81 701.838 36.238 702.636 38.17C703.434 40.06 703.833 42.475 703.833 45.415V64H694.32V45.856C694.32 44.428 694.131 43.273 693.753 42.391C693.417 41.467 692.892 40.816 692.178 40.438C691.506 40.018 690.645 39.808 689.595 39.808C688.251 39.808 687.075 40.102 686.067 40.69C685.101 41.236 684.345 42.034 683.799 43.084C683.253 44.134 682.98 45.352 682.98 46.738V64H673.467ZM726.117 64.693C721.707 64.693 718.431 63.622 716.289 61.48C714.147 59.338 713.076 56.188 713.076 52.03V40.186H707.217V33.067H713.076V23.995H722.589V33.067H731.724V40.186H722.589V51.652C722.589 53.416 722.988 54.739 723.786 55.621C724.626 56.503 725.949 56.944 727.755 56.944C728.301 56.944 728.868 56.881 729.456 56.755C730.086 56.629 730.758 56.461 731.472 56.251L732.858 63.181C731.976 63.643 730.926 64 729.708 64.252C728.49 64.546 727.293 64.693 726.117 64.693ZM748.249 64.693C746.443 64.693 744.7 64.546 743.02 64.252C741.34 63.958 739.807 63.559 738.421 63.055C737.035 62.551 735.817 61.921 734.767 61.165L737.035 54.991C738.085 55.621 739.219 56.188 740.437 56.692C741.697 57.154 742.999 57.511 744.343 57.763C745.687 58.015 747.01 58.141 748.312 58.141C750.118 58.141 751.42 57.868 752.218 57.322C753.058 56.734 753.478 55.978 753.478 55.054C753.478 54.214 753.205 53.584 752.659 53.164C752.113 52.744 751.315 52.45 750.265 52.282L743.65 51.085C741.046 50.623 739.03 49.678 737.602 48.25C736.216 46.78 735.523 44.911 735.523 42.643C735.523 40.543 736.111 38.737 737.287 37.225C738.463 35.671 740.08 34.495 742.138 33.697C744.238 32.857 746.611 32.437 749.257 32.437C750.769 32.437 752.239 32.563 753.667 32.815C755.095 33.067 756.439 33.445 757.699 33.949C759.001 34.453 760.156 35.125 761.164 35.965L758.77 42.076C757.972 41.446 757.027 40.9 755.935 40.438C754.843 39.976 753.73 39.619 752.596 39.367C751.462 39.073 750.391 38.926 749.383 38.926C747.493 38.926 746.128 39.241 745.288 39.871C744.448 40.459 744.028 41.215 744.028 42.139C744.028 42.853 744.259 43.462 744.721 43.966C745.225 44.428 745.981 44.743 746.989 44.911L753.604 46.108C756.334 46.57 758.413 47.494 759.841 48.88C761.269 50.224 761.983 52.072 761.983 54.424C761.983 56.566 761.416 58.414 760.282 59.968C759.148 61.48 757.552 62.656 755.494 63.496C753.436 64.294 751.021 64.693 748.249 64.693Z" fill="#151630"/>
<path d="M37.0234 6.80078H59.6787L59.8252 6.94434C60.178 7.29174 60.5232 7.92075 60.416 8.69336C60.3517 9.15546 60.131 9.62277 59.7197 10.0781H73.3379V10.5781C73.3379 15.0702 72.0404 21.989 68.1484 28.207C64.2632 34.4142 57.7935 39.9148 47.4912 41.5928L46.1406 42.7246C46.4212 42.8904 46.6891 43.0822 46.915 43.2979C47.3197 43.6841 47.6729 44.2314 47.5625 44.8877C47.4542 45.5293 46.9331 46.0747 46.0996 46.5439C45.3216 46.9818 44.1853 47.4019 42.5977 47.7959C42.9793 50.8069 43.7358 55.1251 44.8428 58.8193C45.4245 60.7606 46.0948 62.5052 46.8428 63.793C47.609 65.112 48.3775 65.8144 49.0967 65.9326L49.5156 66.001V69.9648C49.5157 70.1527 49.6577 70.7031 50.3379 70.9336L50.3613 70.9414L50.3838 70.9512C50.7478 71.1155 51.2457 71.6361 51.1133 72.4902V75.1846H36.3145V75.1836H22.2246V72.4893C22.0925 71.6354 22.5902 71.1145 22.9541 70.9502L22.9766 70.9404L23 70.9326C23.6802 70.702 23.8223 70.1515 23.8223 69.9639V66L24.2412 65.9316C24.9603 65.8133 25.729 65.1109 26.4951 63.792C27.243 62.5043 27.9135 60.7595 28.4951 58.8184C29.602 55.1242 30.3586 50.8058 30.7402 47.7949C29.1526 47.4009 28.0163 46.9809 27.2383 46.543C26.4048 46.0737 25.8836 45.5284 25.7754 44.8867C25.6652 44.2307 26.0183 43.6831 26.4229 43.2969C26.6487 43.0814 26.9168 42.8893 27.1973 42.7236L25.8467 41.5918C15.5443 39.9138 9.07467 34.4133 5.18945 28.2061C1.2976 21.988 0 15.0691 0 10.5771V10.0771H13.6182C13.207 9.62178 12.9861 9.15449 12.9219 8.69238C12.8149 7.91998 13.1599 7.29068 13.5127 6.94336L13.6592 6.7998H37.0234V6.80078ZM6.16504 15.0352C8.02441 28.6686 17.8824 34.8739 22.5791 36.2725C18.1637 31.8675 15.7043 20.2791 15.0264 15.0352H6.16504ZM58.3115 15.0352C57.6336 20.2791 55.1735 31.8676 50.7578 36.2725C55.4544 34.8741 65.3125 28.6692 67.1719 15.0352H58.3115ZM37.2168 15.2988C37.0832 15.2233 36.9233 15.2139 36.7832 15.2705L36.7246 15.2988L30.6777 18.7207C30.5209 18.8094 30.4238 18.9761 30.4238 19.1562V25.999C30.4239 26.1791 30.521 26.3459 30.6777 26.4346L36.7246 29.8564C36.8773 29.9426 37.0642 29.9427 37.2168 29.8564L43.2637 26.4346C43.4204 26.3458 43.5175 26.1791 43.5176 25.999V19.1562C43.5176 18.9762 43.4204 18.8095 43.2637 18.7207L37.2168 15.2988Z" fill="url(#paint0_linear_2018_1589)"/>
<defs>
<linearGradient id="paint0_linear_2018_1589" x1="0" y1="40.9922" x2="73.3379" y2="40.9922" gradientUnits="userSpaceOnUse">
<stop stop-color="#4E77D4"/>
<stop offset="1" stop-color="#79A3D7"/>
</linearGradient>
</defs>
</svg>
