<svg width="765" height="88" viewBox="0 0 765 88" fill="none" xmlns="http://www.w3.org/2000/svg">
<path d="M93.9168 64V19.585H114.203C117.521 19.585 120.335 20.152 122.645 21.286C124.955 22.42 126.698 24.037 127.874 26.137C129.092 28.237 129.701 30.778 129.701 33.76C129.701 36.742 129.092 39.304 127.874 41.446C126.698 43.546 124.955 45.163 122.645 46.297C120.335 47.431 117.521 47.998 114.203 47.998H103.682V64H93.9168ZM103.682 40.438H112.565C115.085 40.438 116.996 39.871 118.298 38.737C119.642 37.603 120.314 35.944 120.314 33.76C120.314 31.576 119.642 29.938 118.298 28.846C116.996 27.754 115.085 27.208 112.565 27.208H103.682V40.438ZM146.463 64.693C142.473 64.693 139.554 63.664 137.706 61.606C135.858 59.506 134.934 56.398 134.934 52.282V19.585H144.447V51.904C144.447 52.954 144.615 53.878 144.951 54.676C145.287 55.432 145.77 55.999 146.4 56.377C147.072 56.755 147.912 56.944 148.92 56.944C149.34 56.944 149.781 56.923 150.243 56.881C150.705 56.839 151.146 56.755 151.566 56.629L151.44 64C150.642 64.21 149.823 64.378 148.983 64.504C148.185 64.63 147.345 64.693 146.463 64.693ZM166.371 64.693C164.103 64.693 162.066 64.252 160.26 63.37C158.454 62.488 157.047 61.291 156.039 59.779C155.031 58.267 154.527 56.566 154.527 54.676C154.527 52.408 155.115 50.623 156.291 49.321C157.467 47.977 159.378 47.032 162.024 46.486C164.67 45.898 168.177 45.604 172.545 45.604H175.884V50.518H172.608C170.97 50.518 169.584 50.581 168.45 50.707C167.358 50.833 166.455 51.064 165.741 51.4C165.027 51.694 164.502 52.072 164.166 52.534C163.872 52.996 163.725 53.584 163.725 54.298C163.725 55.474 164.124 56.44 164.922 57.196C165.762 57.952 166.959 58.33 168.513 58.33C169.731 58.33 170.802 58.057 171.726 57.511C172.692 56.923 173.448 56.146 173.994 55.18C174.54 54.172 174.813 53.038 174.813 51.778V44.533C174.813 42.685 174.393 41.383 173.553 40.627C172.713 39.829 171.285 39.43 169.269 39.43C167.589 39.43 165.804 39.703 163.914 40.249C162.066 40.753 160.218 41.53 158.37 42.58L155.787 36.217C156.879 35.461 158.202 34.81 159.756 34.264C161.352 33.676 163.011 33.235 164.733 32.941C166.455 32.605 168.093 32.437 169.647 32.437C172.881 32.437 175.527 32.92 177.585 33.886C179.685 34.81 181.26 36.259 182.31 38.233C183.36 40.165 183.885 42.664 183.885 45.73V64H175.002V57.763H175.443C175.191 59.191 174.645 60.43 173.805 61.48C173.007 62.488 171.978 63.286 170.718 63.874C169.458 64.42 168.009 64.693 166.371 64.693ZM193.068 75.34L199.872 60.409V64.315L186.264 33.067H196.281L205.038 55.243H203.022L212.031 33.067H221.481L202.77 75.34H193.068ZM224.266 64V33.067H233.59V38.863H232.897C233.863 36.805 235.291 35.23 237.181 34.138C239.113 33.004 241.297 32.437 243.733 32.437C246.211 32.437 248.248 32.92 249.844 33.886C251.44 34.81 252.637 36.238 253.435 38.17C254.233 40.06 254.632 42.475 254.632 45.415V64H245.119V45.856C245.119 44.428 244.93 43.273 244.552 42.391C244.216 41.467 243.691 40.816 242.977 40.438C242.305 40.018 241.444 39.808 240.394 39.808C239.05 39.808 237.874 40.102 236.866 40.69C235.9 41.236 235.144 42.034 234.598 43.084C234.052 44.134 233.779 45.352 233.779 46.738V64H224.266ZM261.356 27.082V18.199H271.625V27.082H261.356ZM261.734 64V33.067H271.247V64H261.734ZM293.774 64.693C289.364 64.693 286.088 63.622 283.946 61.48C281.804 59.338 280.733 56.188 280.733 52.03V40.186H274.874V33.067H280.733V23.995H290.246V33.067H299.381V40.186H290.246V51.652C290.246 53.416 290.645 54.739 291.443 55.621C292.283 56.503 293.606 56.944 295.412 56.944C295.958 56.944 296.525 56.881 297.113 56.755C297.743 56.629 298.415 56.461 299.129 56.251L300.515 63.181C299.633 63.643 298.583 64 297.365 64.252C296.147 64.546 294.95 64.693 293.774 64.693ZM319.819 64.693C316.165 64.693 313.015 64.042 310.369 62.74C307.765 61.396 305.749 59.527 304.321 57.133C302.935 54.697 302.242 51.841 302.242 48.565C302.242 45.373 302.914 42.58 304.258 40.186C305.602 37.75 307.471 35.86 309.865 34.516C312.301 33.13 315.052 32.437 318.118 32.437C321.142 32.437 323.746 33.088 325.93 34.39C328.114 35.65 329.794 37.456 330.97 39.808C332.188 42.16 332.797 44.953 332.797 48.187V50.581H310.054V45.667H325.93L324.922 46.549C324.922 43.987 324.355 42.055 323.221 40.753C322.129 39.409 320.554 38.737 318.496 38.737C316.942 38.737 315.619 39.094 314.527 39.808C313.435 40.522 312.595 41.551 312.007 42.895C311.419 44.239 311.125 45.856 311.125 47.746V48.25C311.125 50.392 311.44 52.156 312.07 53.542C312.742 54.886 313.729 55.894 315.031 56.566C316.375 57.238 318.034 57.574 320.008 57.574C321.688 57.574 323.389 57.322 325.111 56.818C326.833 56.314 328.387 55.537 329.773 54.487L332.293 60.85C330.739 62.026 328.828 62.971 326.56 63.685C324.334 64.357 322.087 64.693 319.819 64.693Z" fill="#151630"/>
<path d="M344.547 64L364.959 19.585H372.834L393.246 64H383.418L378.126 51.652L382.032 54.361H355.761L359.667 51.652L354.438 64H344.547ZM368.802 29.98L360.738 49.195L359.037 46.738H378.756L377.055 49.195L368.928 29.98H368.802ZM411.015 64.693C407.655 64.693 404.715 64.042 402.195 62.74C399.717 61.396 397.806 59.506 396.462 57.07C395.118 54.634 394.446 51.757 394.446 48.439C394.446 45.121 395.118 42.265 396.462 39.871C397.806 37.477 399.717 35.65 402.195 34.39C404.715 33.088 407.655 32.437 411.015 32.437C413.031 32.437 415.026 32.731 417 33.319C419.016 33.907 420.654 34.747 421.914 35.839L419.268 42.391C418.26 41.551 417.084 40.9 415.74 40.438C414.396 39.934 413.136 39.682 411.96 39.682C409.482 39.682 407.55 40.459 406.164 42.013C404.82 43.525 404.148 45.688 404.148 48.502C404.148 51.274 404.82 53.458 406.164 55.054C407.55 56.608 409.482 57.385 411.96 57.385C413.136 57.385 414.396 57.154 415.74 56.692C417.084 56.23 418.26 55.558 419.268 54.676L421.914 61.228C420.654 62.278 419.016 63.118 417 63.748C414.984 64.378 412.989 64.693 411.015 64.693ZM426.043 64V19.585H435.556V38.863H434.674C435.64 36.805 437.068 35.23 438.958 34.138C440.89 33.004 443.074 32.437 445.51 32.437C447.988 32.437 450.025 32.92 451.621 33.886C453.217 34.81 454.414 36.238 455.212 38.17C456.01 40.06 456.409 42.475 456.409 45.415V64H446.896V45.856C446.896 44.428 446.707 43.273 446.329 42.391C445.993 41.467 445.468 40.816 444.754 40.438C444.082 40.018 443.221 39.808 442.171 39.808C440.827 39.808 439.651 40.102 438.643 40.69C437.677 41.236 436.921 42.034 436.375 43.084C435.829 44.134 435.556 45.352 435.556 46.738V64H426.043ZM463.132 27.082V18.199H473.401V27.082H463.132ZM463.51 64V33.067H473.023V64H463.51ZM496.433 64.693C492.779 64.693 489.629 64.042 486.983 62.74C484.379 61.396 482.363 59.527 480.935 57.133C479.549 54.697 478.856 51.841 478.856 48.565C478.856 45.373 479.528 42.58 480.872 40.186C482.216 37.75 484.085 35.86 486.479 34.516C488.915 33.13 491.666 32.437 494.732 32.437C497.756 32.437 500.36 33.088 502.544 34.39C504.728 35.65 506.408 37.456 507.584 39.808C508.802 42.16 509.411 44.953 509.411 48.187V50.581H486.668V45.667H502.544L501.536 46.549C501.536 43.987 500.969 42.055 499.835 40.753C498.743 39.409 497.168 38.737 495.11 38.737C493.556 38.737 492.233 39.094 491.141 39.808C490.049 40.522 489.209 41.551 488.621 42.895C488.033 44.239 487.739 45.856 487.739 47.746V48.25C487.739 50.392 488.054 52.156 488.684 53.542C489.356 54.886 490.343 55.894 491.645 56.566C492.989 57.238 494.648 57.574 496.622 57.574C498.302 57.574 500.003 57.322 501.725 56.818C503.447 56.314 505.001 55.537 506.387 54.487L508.907 60.85C507.353 62.026 505.442 62.971 503.174 63.685C500.948 64.357 498.701 64.693 496.433 64.693ZM523.525 64L510.043 33.067H520.06L528.754 55.243H526.738L535.81 33.067H545.197L531.526 64H523.525ZM563.37 64.693C559.716 64.693 556.566 64.042 553.92 62.74C551.316 61.396 549.3 59.527 547.872 57.133C546.486 54.697 545.793 51.841 545.793 48.565C545.793 45.373 546.465 42.58 547.809 40.186C549.153 37.75 551.022 35.86 553.416 34.516C555.852 33.13 558.603 32.437 561.669 32.437C564.693 32.437 567.297 33.088 569.481 34.39C571.665 35.65 573.345 37.456 574.521 39.808C575.739 42.16 576.348 44.953 576.348 48.187V50.581H553.605V45.667H569.481L568.473 46.549C568.473 43.987 567.906 42.055 566.772 40.753C565.68 39.409 564.105 38.737 562.047 38.737C560.493 38.737 559.17 39.094 558.078 39.808C556.986 40.522 556.146 41.551 555.558 42.895C554.97 44.239 554.676 45.856 554.676 47.746V48.25C554.676 50.392 554.991 52.156 555.621 53.542C556.293 54.886 557.28 55.894 558.582 56.566C559.926 57.238 561.585 57.574 563.559 57.574C565.239 57.574 566.94 57.322 568.662 56.818C570.384 56.314 571.938 55.537 573.324 54.487L575.844 60.85C574.29 62.026 572.379 62.971 570.111 63.685C567.885 64.357 565.638 64.693 563.37 64.693ZM582.008 64V33.067H591.332V38.863H590.639C591.185 37.561 591.941 36.427 592.907 35.461C593.873 34.495 595.028 33.76 596.372 33.256C597.716 32.71 599.186 32.437 600.782 32.437C603.176 32.437 605.171 33.004 606.767 34.138C608.363 35.272 609.497 37.015 610.169 39.367H609.287C610.211 37.225 611.618 35.545 613.508 34.327C615.44 33.067 617.645 32.437 620.123 32.437C622.517 32.437 624.47 32.92 625.982 33.886C627.536 34.81 628.691 36.238 629.447 38.17C630.203 40.06 630.581 42.475 630.581 45.415V64H621.068V45.73C621.068 43.672 620.732 42.181 620.06 41.257C619.43 40.291 618.338 39.808 616.784 39.808C615.608 39.808 614.579 40.102 613.697 40.69C612.815 41.236 612.143 42.055 611.681 43.147C611.261 44.197 611.051 45.499 611.051 47.053V64H601.538V45.73C601.538 43.672 601.202 42.181 600.53 41.257C599.9 40.291 598.808 39.808 597.254 39.808C596.036 39.808 595.007 40.102 594.167 40.69C593.327 41.236 592.676 42.055 592.214 43.147C591.752 44.197 591.521 45.499 591.521 47.053V64H582.008ZM653.933 64.693C650.279 64.693 647.129 64.042 644.483 62.74C641.879 61.396 639.863 59.527 638.435 57.133C637.049 54.697 636.356 51.841 636.356 48.565C636.356 45.373 637.028 42.58 638.372 40.186C639.716 37.75 641.585 35.86 643.979 34.516C646.415 33.13 649.166 32.437 652.232 32.437C655.256 32.437 657.86 33.088 660.044 34.39C662.228 35.65 663.908 37.456 665.084 39.808C666.302 42.16 666.911 44.953 666.911 48.187V50.581H644.168V45.667H660.044L659.036 46.549C659.036 43.987 658.469 42.055 657.335 40.753C656.243 39.409 654.668 38.737 652.61 38.737C651.056 38.737 649.733 39.094 648.641 39.808C647.549 40.522 646.709 41.551 646.121 42.895C645.533 44.239 645.239 45.856 645.239 47.746V48.25C645.239 50.392 645.554 52.156 646.184 53.542C646.856 54.886 647.843 55.894 649.145 56.566C650.489 57.238 652.148 57.574 654.122 57.574C655.802 57.574 657.503 57.322 659.225 56.818C660.947 56.314 662.501 55.537 663.887 54.487L666.407 60.85C664.853 62.026 662.942 62.971 660.674 63.685C658.448 64.357 656.201 64.693 653.933 64.693ZM672.444 64V33.067H681.768V38.863H681.075C682.041 36.805 683.469 35.23 685.359 34.138C687.291 33.004 689.475 32.437 691.911 32.437C694.389 32.437 696.426 32.92 698.022 33.886C699.618 34.81 700.815 36.238 701.613 38.17C702.411 40.06 702.81 42.475 702.81 45.415V64H693.297V45.856C693.297 44.428 693.108 43.273 692.73 42.391C692.394 41.467 691.869 40.816 691.155 40.438C690.483 40.018 689.622 39.808 688.572 39.808C687.228 39.808 686.052 40.102 685.044 40.69C684.078 41.236 683.322 42.034 682.776 43.084C682.23 44.134 681.957 45.352 681.957 46.738V64H672.444ZM725.095 64.693C720.685 64.693 717.409 63.622 715.267 61.48C713.125 59.338 712.054 56.188 712.054 52.03V40.186H706.195V33.067H712.054V23.995H721.567V33.067H730.702V40.186H721.567V51.652C721.567 53.416 721.966 54.739 722.764 55.621C723.604 56.503 724.927 56.944 726.733 56.944C727.279 56.944 727.846 56.881 728.434 56.755C729.064 56.629 729.736 56.461 730.45 56.251L731.836 63.181C730.954 63.643 729.904 64 728.686 64.252C727.468 64.546 726.271 64.693 725.095 64.693ZM747.227 64.693C745.421 64.693 743.678 64.546 741.998 64.252C740.318 63.958 738.785 63.559 737.399 63.055C736.013 62.551 734.795 61.921 733.745 61.165L736.013 54.991C737.063 55.621 738.197 56.188 739.415 56.692C740.675 57.154 741.977 57.511 743.321 57.763C744.665 58.015 745.988 58.141 747.29 58.141C749.096 58.141 750.398 57.868 751.196 57.322C752.036 56.734 752.456 55.978 752.456 55.054C752.456 54.214 752.183 53.584 751.637 53.164C751.091 52.744 750.293 52.45 749.243 52.282L742.628 51.085C740.024 50.623 738.008 49.678 736.58 48.25C735.194 46.78 734.501 44.911 734.501 42.643C734.501 40.543 735.089 38.737 736.265 37.225C737.441 35.671 739.058 34.495 741.116 33.697C743.216 32.857 745.589 32.437 748.235 32.437C749.747 32.437 751.217 32.563 752.645 32.815C754.073 33.067 755.417 33.445 756.677 33.949C757.979 34.453 759.134 35.125 760.142 35.965L757.748 42.076C756.95 41.446 756.005 40.9 754.913 40.438C753.821 39.976 752.708 39.619 751.574 39.367C750.44 39.073 749.369 38.926 748.361 38.926C746.471 38.926 745.106 39.241 744.266 39.871C743.426 40.459 743.006 41.215 743.006 42.139C743.006 42.853 743.237 43.462 743.699 43.966C744.203 44.428 744.959 44.743 745.967 44.911L752.582 46.108C755.312 46.57 757.391 47.494 758.819 48.88C760.247 50.224 760.961 52.072 760.961 54.424C760.961 56.566 760.394 58.414 759.26 59.968C758.126 61.48 756.53 62.656 754.472 63.496C752.414 64.294 749.999 64.693 747.227 64.693Z" fill="#151630"/>
<path d="M57.8848 7.82324L58.0303 7.9668C58.3749 8.30633 58.7131 8.92093 58.6084 9.67578C58.5468 10.1189 58.3381 10.5664 57.9521 11.002H71.1367V11.502C71.1366 15.8607 69.8787 22.5736 66.1035 28.6064C62.3351 34.6285 56.0594 39.9648 46.0684 41.5938L44.7783 42.6748C45.0444 42.8335 45.2986 43.0164 45.5137 43.2217C45.9075 43.5978 46.2538 44.1338 46.1455 44.7773C46.0394 45.4063 45.5292 45.9387 44.7197 46.3945C43.966 46.8189 42.8669 47.2252 41.334 47.6064C41.7045 50.5254 42.4374 54.7051 43.5088 58.2812C44.0727 60.1635 44.7219 61.8542 45.4463 63.1016C46.1889 64.3802 46.9311 65.0556 47.6211 65.1689L48.04 65.2373V69.0947C48.0401 69.2721 48.1748 69.7987 48.8271 70.0195L48.8496 70.0273L48.8721 70.0371C49.2304 70.199 49.7185 70.7101 49.5889 71.5459V74.1719H21.5479V71.5459C21.4183 70.7101 21.9064 70.1989 22.2646 70.0371L22.2871 70.0273L22.3096 70.0195C22.9617 69.7986 23.0966 69.2721 23.0967 69.0947V65.2373L23.5156 65.1689C24.2055 65.0556 24.9478 64.3802 25.6904 63.1016C26.4147 61.8542 27.064 60.1634 27.6279 58.2812C28.6993 54.7051 29.4322 50.5254 29.8027 47.6064C28.2698 47.2252 27.1708 46.8189 26.417 46.3945C25.6075 45.9387 25.0974 45.4063 24.9912 44.7773C24.8829 44.1338 25.2292 43.5978 25.623 43.2217C25.8381 43.0164 26.0923 42.8335 26.3584 42.6748L25.0684 41.5938C15.0773 39.9648 8.80167 34.6285 5.0332 28.6064C1.25805 22.5736 9.18262e-05 15.8607 0 11.502V11.002H13.1846C12.7987 10.5664 12.5899 10.1189 12.5283 9.67578C12.4237 8.92094 12.7618 8.3063 13.1064 7.9668L13.252 7.82324H57.8848ZM5.99316 15.8242C7.79589 29.0462 17.3535 35.0647 21.9072 36.4209C17.6259 32.1491 15.2412 20.9098 14.584 15.8242H5.99316ZM56.5527 15.8242C55.8955 20.9097 53.5108 32.1491 49.2295 36.4209C53.7833 35.0646 63.3409 29.0461 65.1436 15.8242H56.5527Z" fill="url(#paint0_linear_2018_1608)"/>
<path d="M35.7377 15.4216L42.5957 19.3808V27.299L35.7377 31.2581L28.8798 27.299V19.3808L35.7377 15.4216Z" fill="url(#paint1_linear_2018_1608)"/>
<defs>
<linearGradient id="paint0_linear_2018_1608" x1="0" y1="40.9976" x2="71.1367" y2="40.9976" gradientUnits="userSpaceOnUse">
<stop stop-color="#DAA33A"/>
<stop offset="1" stop-color="#F8CD92"/>
</linearGradient>
<linearGradient id="paint1_linear_2018_1608" x1="27.8188" y1="23.3399" x2="43.6566" y2="23.3399" gradientUnits="userSpaceOnUse">
<stop stop-color="#7841C5"/>
<stop offset="1" stop-color="#2879CB"/>
</linearGradient>
</defs>
</svg>
