<svg width="764" height="88" viewBox="0 0 764 88" fill="none" xmlns="http://www.w3.org/2000/svg">
<path d="M93.7401 64V19.585H114.026C117.344 19.585 120.158 20.152 122.468 21.286C124.778 22.42 126.521 24.037 127.697 26.137C128.915 28.237 129.524 30.778 129.524 33.76C129.524 36.742 128.915 39.304 127.697 41.446C126.521 43.546 124.778 45.163 122.468 46.297C120.158 47.431 117.344 47.998 114.026 47.998H103.505V64H93.7401ZM103.505 40.438H112.388C114.908 40.438 116.819 39.871 118.121 38.737C119.465 37.603 120.137 35.944 120.137 33.76C120.137 31.576 119.465 29.938 118.121 28.846C116.819 27.754 114.908 27.208 112.388 27.208H103.505V40.438ZM146.286 64.693C142.296 64.693 139.377 63.664 137.529 61.606C135.681 59.506 134.757 56.398 134.757 52.282V19.585H144.27V51.904C144.27 52.954 144.438 53.878 144.774 54.676C145.11 55.432 145.593 55.999 146.223 56.377C146.895 56.755 147.735 56.944 148.743 56.944C149.163 56.944 149.604 56.923 150.066 56.881C150.528 56.839 150.969 56.755 151.389 56.629L151.263 64C150.465 64.21 149.646 64.378 148.806 64.504C148.008 64.63 147.168 64.693 146.286 64.693ZM166.195 64.693C163.927 64.693 161.89 64.252 160.084 63.37C158.278 62.488 156.871 61.291 155.863 59.779C154.855 58.267 154.351 56.566 154.351 54.676C154.351 52.408 154.939 50.623 156.115 49.321C157.291 47.977 159.202 47.032 161.848 46.486C164.494 45.898 168.001 45.604 172.369 45.604H175.708V50.518H172.432C170.794 50.518 169.408 50.581 168.274 50.707C167.182 50.833 166.279 51.064 165.565 51.4C164.851 51.694 164.326 52.072 163.99 52.534C163.696 52.996 163.549 53.584 163.549 54.298C163.549 55.474 163.948 56.44 164.746 57.196C165.586 57.952 166.783 58.33 168.337 58.33C169.555 58.33 170.626 58.057 171.55 57.511C172.516 56.923 173.272 56.146 173.818 55.18C174.364 54.172 174.637 53.038 174.637 51.778V44.533C174.637 42.685 174.217 41.383 173.377 40.627C172.537 39.829 171.109 39.43 169.093 39.43C167.413 39.43 165.628 39.703 163.738 40.249C161.89 40.753 160.042 41.53 158.194 42.58L155.611 36.217C156.703 35.461 158.026 34.81 159.58 34.264C161.176 33.676 162.835 33.235 164.557 32.941C166.279 32.605 167.917 32.437 169.471 32.437C172.705 32.437 175.351 32.92 177.409 33.886C179.509 34.81 181.084 36.259 182.134 38.233C183.184 40.165 183.709 42.664 183.709 45.73V64H174.826V57.763H175.267C175.015 59.191 174.469 60.43 173.629 61.48C172.831 62.488 171.802 63.286 170.542 63.874C169.282 64.42 167.833 64.693 166.195 64.693ZM192.891 75.34L199.695 60.409V64.315L186.087 33.067H196.104L204.861 55.243H202.845L211.854 33.067H221.304L202.593 75.34H192.891ZM224.089 64V33.067H233.413V38.863H232.72C233.686 36.805 235.114 35.23 237.004 34.138C238.936 33.004 241.12 32.437 243.556 32.437C246.034 32.437 248.071 32.92 249.667 33.886C251.263 34.81 252.46 36.238 253.258 38.17C254.056 40.06 254.455 42.475 254.455 45.415V64H244.942V45.856C244.942 44.428 244.753 43.273 244.375 42.391C244.039 41.467 243.514 40.816 242.8 40.438C242.128 40.018 241.267 39.808 240.217 39.808C238.873 39.808 237.697 40.102 236.689 40.69C235.723 41.236 234.967 42.034 234.421 43.084C233.875 44.134 233.602 45.352 233.602 46.738V64H224.089ZM261.179 27.082V18.199H271.448V27.082H261.179ZM261.557 64V33.067H271.07V64H261.557ZM293.597 64.693C289.187 64.693 285.911 63.622 283.769 61.48C281.627 59.338 280.556 56.188 280.556 52.03V40.186H274.697V33.067H280.556V23.995H290.069V33.067H299.204V40.186H290.069V51.652C290.069 53.416 290.468 54.739 291.266 55.621C292.106 56.503 293.429 56.944 295.235 56.944C295.781 56.944 296.348 56.881 296.936 56.755C297.566 56.629 298.238 56.461 298.952 56.251L300.338 63.181C299.456 63.643 298.406 64 297.188 64.252C295.97 64.546 294.773 64.693 293.597 64.693ZM319.642 64.693C315.988 64.693 312.838 64.042 310.192 62.74C307.588 61.396 305.572 59.527 304.144 57.133C302.758 54.697 302.065 51.841 302.065 48.565C302.065 45.373 302.737 42.58 304.081 40.186C305.425 37.75 307.294 35.86 309.688 34.516C312.124 33.13 314.875 32.437 317.941 32.437C320.965 32.437 323.569 33.088 325.753 34.39C327.937 35.65 329.617 37.456 330.793 39.808C332.011 42.16 332.62 44.953 332.62 48.187V50.581H309.877V45.667H325.753L324.745 46.549C324.745 43.987 324.178 42.055 323.044 40.753C321.952 39.409 320.377 38.737 318.319 38.737C316.765 38.737 315.442 39.094 314.35 39.808C313.258 40.522 312.418 41.551 311.83 42.895C311.242 44.239 310.948 45.856 310.948 47.746V48.25C310.948 50.392 311.263 52.156 311.893 53.542C312.565 54.886 313.552 55.894 314.854 56.566C316.198 57.238 317.857 57.574 319.831 57.574C321.511 57.574 323.212 57.322 324.934 56.818C326.656 56.314 328.21 55.537 329.596 54.487L332.116 60.85C330.562 62.026 328.651 62.971 326.383 63.685C324.157 64.357 321.91 64.693 319.642 64.693Z" fill="#151630"/>
<path d="M344.37 64L364.782 19.585H372.657L393.069 64H383.241L377.949 51.652L381.855 54.361H355.584L359.49 51.652L354.261 64H344.37ZM368.625 29.98L360.561 49.195L358.86 46.738H378.579L376.878 49.195L368.751 29.98H368.625ZM410.838 64.693C407.478 64.693 404.538 64.042 402.018 62.74C399.54 61.396 397.629 59.506 396.285 57.07C394.941 54.634 394.269 51.757 394.269 48.439C394.269 45.121 394.941 42.265 396.285 39.871C397.629 37.477 399.54 35.65 402.018 34.39C404.538 33.088 407.478 32.437 410.838 32.437C412.854 32.437 414.849 32.731 416.823 33.319C418.839 33.907 420.477 34.747 421.737 35.839L419.091 42.391C418.083 41.551 416.907 40.9 415.563 40.438C414.219 39.934 412.959 39.682 411.783 39.682C409.305 39.682 407.373 40.459 405.987 42.013C404.643 43.525 403.971 45.688 403.971 48.502C403.971 51.274 404.643 53.458 405.987 55.054C407.373 56.608 409.305 57.385 411.783 57.385C412.959 57.385 414.219 57.154 415.563 56.692C416.907 56.23 418.083 55.558 419.091 54.676L421.737 61.228C420.477 62.278 418.839 63.118 416.823 63.748C414.807 64.378 412.812 64.693 410.838 64.693ZM425.866 64V19.585H435.379V38.863H434.497C435.463 36.805 436.891 35.23 438.781 34.138C440.713 33.004 442.897 32.437 445.333 32.437C447.811 32.437 449.848 32.92 451.444 33.886C453.04 34.81 454.237 36.238 455.035 38.17C455.833 40.06 456.232 42.475 456.232 45.415V64H446.719V45.856C446.719 44.428 446.53 43.273 446.152 42.391C445.816 41.467 445.291 40.816 444.577 40.438C443.905 40.018 443.044 39.808 441.994 39.808C440.65 39.808 439.474 40.102 438.466 40.69C437.5 41.236 436.744 42.034 436.198 43.084C435.652 44.134 435.379 45.352 435.379 46.738V64H425.866ZM462.956 27.082V18.199H473.225V27.082H462.956ZM463.334 64V33.067H472.847V64H463.334ZM496.256 64.693C492.602 64.693 489.452 64.042 486.806 62.74C484.202 61.396 482.186 59.527 480.758 57.133C479.372 54.697 478.679 51.841 478.679 48.565C478.679 45.373 479.351 42.58 480.695 40.186C482.039 37.75 483.908 35.86 486.302 34.516C488.738 33.13 491.489 32.437 494.555 32.437C497.579 32.437 500.183 33.088 502.367 34.39C504.551 35.65 506.231 37.456 507.407 39.808C508.625 42.16 509.234 44.953 509.234 48.187V50.581H486.491V45.667H502.367L501.359 46.549C501.359 43.987 500.792 42.055 499.658 40.753C498.566 39.409 496.991 38.737 494.933 38.737C493.379 38.737 492.056 39.094 490.964 39.808C489.872 40.522 489.032 41.551 488.444 42.895C487.856 44.239 487.562 45.856 487.562 47.746V48.25C487.562 50.392 487.877 52.156 488.507 53.542C489.179 54.886 490.166 55.894 491.468 56.566C492.812 57.238 494.471 57.574 496.445 57.574C498.125 57.574 499.826 57.322 501.548 56.818C503.27 56.314 504.824 55.537 506.21 54.487L508.73 60.85C507.176 62.026 505.265 62.971 502.997 63.685C500.771 64.357 498.524 64.693 496.256 64.693ZM523.349 64L509.867 33.067H519.884L528.578 55.243H526.562L535.634 33.067H545.021L531.35 64H523.349ZM563.194 64.693C559.54 64.693 556.39 64.042 553.744 62.74C551.14 61.396 549.124 59.527 547.696 57.133C546.31 54.697 545.617 51.841 545.617 48.565C545.617 45.373 546.289 42.58 547.633 40.186C548.977 37.75 550.846 35.86 553.24 34.516C555.676 33.13 558.427 32.437 561.493 32.437C564.517 32.437 567.121 33.088 569.305 34.39C571.489 35.65 573.169 37.456 574.345 39.808C575.563 42.16 576.172 44.953 576.172 48.187V50.581H553.429V45.667H569.305L568.297 46.549C568.297 43.987 567.73 42.055 566.596 40.753C565.504 39.409 563.929 38.737 561.871 38.737C560.317 38.737 558.994 39.094 557.902 39.808C556.81 40.522 555.97 41.551 555.382 42.895C554.794 44.239 554.5 45.856 554.5 47.746V48.25C554.5 50.392 554.815 52.156 555.445 53.542C556.117 54.886 557.104 55.894 558.406 56.566C559.75 57.238 561.409 57.574 563.383 57.574C565.063 57.574 566.764 57.322 568.486 56.818C570.208 56.314 571.762 55.537 573.148 54.487L575.668 60.85C574.114 62.026 572.203 62.971 569.935 63.685C567.709 64.357 565.462 64.693 563.194 64.693ZM581.831 64V33.067H591.155V38.863H590.462C591.008 37.561 591.764 36.427 592.73 35.461C593.696 34.495 594.851 33.76 596.195 33.256C597.539 32.71 599.009 32.437 600.605 32.437C602.999 32.437 604.994 33.004 606.59 34.138C608.186 35.272 609.32 37.015 609.992 39.367H609.11C610.034 37.225 611.441 35.545 613.331 34.327C615.263 33.067 617.468 32.437 619.946 32.437C622.34 32.437 624.293 32.92 625.805 33.886C627.359 34.81 628.514 36.238 629.27 38.17C630.026 40.06 630.404 42.475 630.404 45.415V64H620.891V45.73C620.891 43.672 620.555 42.181 619.883 41.257C619.253 40.291 618.161 39.808 616.607 39.808C615.431 39.808 614.402 40.102 613.52 40.69C612.638 41.236 611.966 42.055 611.504 43.147C611.084 44.197 610.874 45.499 610.874 47.053V64H601.361V45.73C601.361 43.672 601.025 42.181 600.353 41.257C599.723 40.291 598.631 39.808 597.077 39.808C595.859 39.808 594.83 40.102 593.99 40.69C593.15 41.236 592.499 42.055 592.037 43.147C591.575 44.197 591.344 45.499 591.344 47.053V64H581.831ZM653.756 64.693C650.102 64.693 646.952 64.042 644.306 62.74C641.702 61.396 639.686 59.527 638.258 57.133C636.872 54.697 636.179 51.841 636.179 48.565C636.179 45.373 636.851 42.58 638.195 40.186C639.539 37.75 641.408 35.86 643.802 34.516C646.238 33.13 648.989 32.437 652.055 32.437C655.079 32.437 657.683 33.088 659.867 34.39C662.051 35.65 663.731 37.456 664.907 39.808C666.125 42.16 666.734 44.953 666.734 48.187V50.581H643.991V45.667H659.867L658.859 46.549C658.859 43.987 658.292 42.055 657.158 40.753C656.066 39.409 654.491 38.737 652.433 38.737C650.879 38.737 649.556 39.094 648.464 39.808C647.372 40.522 646.532 41.551 645.944 42.895C645.356 44.239 645.062 45.856 645.062 47.746V48.25C645.062 50.392 645.377 52.156 646.007 53.542C646.679 54.886 647.666 55.894 648.968 56.566C650.312 57.238 651.971 57.574 653.945 57.574C655.625 57.574 657.326 57.322 659.048 56.818C660.77 56.314 662.324 55.537 663.71 54.487L666.23 60.85C664.676 62.026 662.765 62.971 660.497 63.685C658.271 64.357 656.024 64.693 653.756 64.693ZM672.267 64V33.067H681.591V38.863H680.898C681.864 36.805 683.292 35.23 685.182 34.138C687.114 33.004 689.298 32.437 691.734 32.437C694.212 32.437 696.249 32.92 697.845 33.886C699.441 34.81 700.638 36.238 701.436 38.17C702.234 40.06 702.633 42.475 702.633 45.415V64H693.12V45.856C693.12 44.428 692.931 43.273 692.553 42.391C692.217 41.467 691.692 40.816 690.978 40.438C690.306 40.018 689.445 39.808 688.395 39.808C687.051 39.808 685.875 40.102 684.867 40.69C683.901 41.236 683.145 42.034 682.599 43.084C682.053 44.134 681.78 45.352 681.78 46.738V64H672.267ZM724.918 64.693C720.508 64.693 717.232 63.622 715.09 61.48C712.948 59.338 711.877 56.188 711.877 52.03V40.186H706.018V33.067H711.877V23.995H721.39V33.067H730.525V40.186H721.39V51.652C721.39 53.416 721.789 54.739 722.587 55.621C723.427 56.503 724.75 56.944 726.556 56.944C727.102 56.944 727.669 56.881 728.257 56.755C728.887 56.629 729.559 56.461 730.273 56.251L731.659 63.181C730.777 63.643 729.727 64 728.509 64.252C727.291 64.546 726.094 64.693 724.918 64.693ZM747.05 64.693C745.244 64.693 743.501 64.546 741.821 64.252C740.141 63.958 738.608 63.559 737.222 63.055C735.836 62.551 734.618 61.921 733.568 61.165L735.836 54.991C736.886 55.621 738.02 56.188 739.238 56.692C740.498 57.154 741.8 57.511 743.144 57.763C744.488 58.015 745.811 58.141 747.113 58.141C748.919 58.141 750.221 57.868 751.019 57.322C751.859 56.734 752.279 55.978 752.279 55.054C752.279 54.214 752.006 53.584 751.46 53.164C750.914 52.744 750.116 52.45 749.066 52.282L742.451 51.085C739.847 50.623 737.831 49.678 736.403 48.25C735.017 46.78 734.324 44.911 734.324 42.643C734.324 40.543 734.912 38.737 736.088 37.225C737.264 35.671 738.881 34.495 740.939 33.697C743.039 32.857 745.412 32.437 748.058 32.437C749.57 32.437 751.04 32.563 752.468 32.815C753.896 33.067 755.24 33.445 756.5 33.949C757.802 34.453 758.957 35.125 759.965 35.965L757.571 42.076C756.773 41.446 755.828 40.9 754.736 40.438C753.644 39.976 752.531 39.619 751.397 39.367C750.263 39.073 749.192 38.926 748.184 38.926C746.294 38.926 744.929 39.241 744.089 39.871C743.249 40.459 742.829 41.215 742.829 42.139C742.829 42.853 743.06 43.462 743.522 43.966C744.026 44.428 744.782 44.743 745.79 44.911L752.405 46.108C755.135 46.57 757.214 47.494 758.642 48.88C760.07 50.224 760.784 52.072 760.784 54.424C760.784 56.566 760.217 58.414 759.083 59.968C757.949 61.48 756.353 62.656 754.295 63.496C752.237 64.294 749.822 64.693 747.05 64.693Z" fill="#151630"/>
<path d="M57.666 7.65283L57.8115 7.79639C58.1553 8.13504 58.4923 8.7484 58.3877 9.50146C58.3263 9.94221 58.1191 10.3868 57.7363 10.8198H70.8682V11.3198C70.8681 15.6628 69.6145 22.3509 65.8535 28.3618C62.0993 34.3619 55.8477 39.6791 45.8945 41.3022L44.6123 42.3774C44.8767 42.5353 45.129 42.7173 45.3428 42.9214C45.7353 43.2963 46.0807 43.8301 45.9727 44.4722C45.8669 45.0997 45.3584 45.6302 44.5518 46.0845C43.8008 46.5073 42.7056 46.9116 41.1787 47.2915C41.5478 50.1996 42.2785 54.3636 43.3457 57.9263C43.9074 59.8015 44.5549 61.4855 45.2764 62.728C46.016 64.0017 46.7542 64.6738 47.4404 64.7866L47.8594 64.855V68.6997C47.8594 68.8758 47.9937 69.3998 48.6426 69.6196L48.665 69.6274L48.6875 69.6372C49.0441 69.7983 49.5289 70.3056 49.4033 71.1353V73.7603H21.4648V71.1353C21.3393 70.3056 21.824 69.7983 22.1807 69.6372L22.2031 69.6274L22.2256 69.6196C22.8748 69.3998 23.0088 68.8757 23.0088 68.6997V64.855L23.4277 64.7866C24.1141 64.6739 24.8521 64.0018 25.5918 62.728C26.3133 61.4855 26.9607 59.8015 27.5225 57.9263C28.5896 54.3636 29.3203 50.1996 29.6895 47.2915C28.1625 46.9116 27.0674 46.5074 26.3164 46.0845C25.5098 45.6301 25.0012 45.0998 24.8955 44.4722C24.7874 43.8301 25.1328 43.2963 25.5254 42.9214C25.7391 42.7173 25.9914 42.5354 26.2559 42.3774L24.9736 41.3022C15.0204 39.6791 8.76887 34.3619 5.01465 28.3618C1.25368 22.3508 5.90841e-05 15.6627 0 11.3198V10.8198H13.1318C12.749 10.3867 12.5418 9.94225 12.4805 9.50146C12.3758 8.74843 12.7129 8.13504 13.0566 7.79639L13.2021 7.65283H57.666ZM5.97266 15.6255C7.76842 28.7987 17.2899 34.7948 21.8262 36.146C17.5612 31.8899 15.185 20.6921 14.5303 15.6255H5.97266ZM56.3379 15.6255C55.6832 20.6922 53.3069 31.89 49.042 36.146C53.5782 34.7949 63.0997 28.7988 64.8955 15.6255H56.3379Z" fill="url(#paint0_linear_2018_1567)"/>
<path d="M35.7242 15.5171L42.0246 19.2153V26.6119L35.7242 30.3101L29.4238 26.6119V19.2153L35.7242 15.5171Z" fill="url(#paint1_linear_2018_1567)" stroke="#6763A1" stroke-linejoin="round"/>
<path opacity="0.5" d="M35.7242 15.5171L42.0246 19.2153V26.6119L35.7242 30.3101L29.4238 26.6119V19.2153L35.7242 15.5171Z" fill="url(#paint2_linear_2018_1567)"/>
<path d="M35.8021 15.5901L42.134 19.3062V26.7384L35.8021 30.4545L29.4702 26.7384V19.3062L35.8021 15.5901Z" fill="url(#paint3_linear_2018_1567)" stroke="#736FA1" stroke-linejoin="round"/>
<path d="M35.802 18.3428L39.3809 20.6825V25.6374L35.802 27.9771L32.2231 25.6374V20.6825L35.802 18.3428Z" fill="white" fill-opacity="0.2"/>
<path opacity="0.5" d="M35.8021 15.5901L42.134 19.3062V26.7384L35.8021 30.4545L29.4702 26.7384V19.3062L35.8021 15.5901Z" fill="url(#paint4_linear_2018_1567)"/>
<defs>
<linearGradient id="paint0_linear_2018_1567" x1="0" y1="40.7065" x2="70.8682" y2="40.7065" gradientUnits="userSpaceOnUse">
<stop stop-color="#DAA33A"/>
<stop offset="0.25" stop-color="#D2C8B6"/>
<stop offset="0.5" stop-color="#FFA000"/>
<stop offset="0.75" stop-color="#DED2C0"/>
<stop offset="1" stop-color="#F8CD92"/>
</linearGradient>
<linearGradient id="paint1_linear_2018_1567" x1="29.4238" y1="15.5171" x2="44.0286" y2="27.9575" gradientUnits="userSpaceOnUse">
<stop stop-color="#E91E63"/>
<stop offset="0.2" stop-color="#9C27B0"/>
<stop offset="0.4" stop-color="#3F51B5"/>
<stop offset="0.6" stop-color="#2196F3"/>
<stop offset="0.8" stop-color="#00BCD4"/>
<stop offset="1" stop-color="#4CAF50"/>
</linearGradient>
<linearGradient id="paint2_linear_2018_1567" x1="29.4238" y1="15.5171" x2="44.0286" y2="27.9575" gradientUnits="userSpaceOnUse">
<stop stop-color="white" stop-opacity="0"/>
<stop offset="0.45" stop-color="white" stop-opacity="0"/>
<stop offset="0.55" stop-color="white" stop-opacity="0.4"/>
<stop offset="0.7" stop-color="white" stop-opacity="0"/>
<stop offset="1" stop-color="white" stop-opacity="0"/>
</linearGradient>
<linearGradient id="paint3_linear_2018_1567" x1="29.4702" y1="15.5901" x2="44.1459" y2="28.093" gradientUnits="userSpaceOnUse">
<stop stop-color="#E91E63"/>
<stop offset="0.2" stop-color="#9C27B0"/>
<stop offset="0.4" stop-color="#3F51B5"/>
<stop offset="0.6" stop-color="#2196F3"/>
<stop offset="0.8" stop-color="#00BCD4"/>
<stop offset="1" stop-color="#4CAF50"/>
</linearGradient>
<linearGradient id="paint4_linear_2018_1567" x1="29.4702" y1="15.5901" x2="44.1459" y2="28.093" gradientUnits="userSpaceOnUse">
<stop stop-color="white" stop-opacity="0"/>
<stop offset="0.45" stop-color="white" stop-opacity="0"/>
<stop offset="0.55" stop-color="white" stop-opacity="0.4"/>
<stop offset="0.7" stop-color="white" stop-opacity="0"/>
<stop offset="1" stop-color="white" stop-opacity="0"/>
</linearGradient>
</defs>
</svg>
