<svg width="765" height="88" viewBox="0 0 765 88" fill="none" xmlns="http://www.w3.org/2000/svg">
<path d="M93.9481 64V19.585H114.234C117.552 19.585 120.366 20.152 122.676 21.286C124.986 22.42 126.729 24.037 127.905 26.137C129.123 28.237 129.732 30.778 129.732 33.76C129.732 36.742 129.123 39.304 127.905 41.446C126.729 43.546 124.986 45.163 122.676 46.297C120.366 47.431 117.552 47.998 114.234 47.998H103.713V64H93.9481ZM103.713 40.438H112.596C115.116 40.438 117.027 39.871 118.329 38.737C119.673 37.603 120.345 35.944 120.345 33.76C120.345 31.576 119.673 29.938 118.329 28.846C117.027 27.754 115.116 27.208 112.596 27.208H103.713V40.438ZM146.494 64.693C142.504 64.693 139.585 63.664 137.737 61.606C135.889 59.506 134.965 56.398 134.965 52.282V19.585H144.478V51.904C144.478 52.954 144.646 53.878 144.982 54.676C145.318 55.432 145.801 55.999 146.431 56.377C147.103 56.755 147.943 56.944 148.951 56.944C149.371 56.944 149.812 56.923 150.274 56.881C150.736 56.839 151.177 56.755 151.597 56.629L151.471 64C150.673 64.21 149.854 64.378 149.014 64.504C148.216 64.63 147.376 64.693 146.494 64.693ZM166.403 64.693C164.135 64.693 162.098 64.252 160.292 63.37C158.486 62.488 157.079 61.291 156.071 59.779C155.063 58.267 154.559 56.566 154.559 54.676C154.559 52.408 155.147 50.623 156.323 49.321C157.499 47.977 159.41 47.032 162.056 46.486C164.702 45.898 168.209 45.604 172.577 45.604H175.916V50.518H172.64C171.002 50.518 169.616 50.581 168.482 50.707C167.39 50.833 166.487 51.064 165.773 51.4C165.059 51.694 164.534 52.072 164.198 52.534C163.904 52.996 163.757 53.584 163.757 54.298C163.757 55.474 164.156 56.44 164.954 57.196C165.794 57.952 166.991 58.33 168.545 58.33C169.763 58.33 170.834 58.057 171.758 57.511C172.724 56.923 173.48 56.146 174.026 55.18C174.572 54.172 174.845 53.038 174.845 51.778V44.533C174.845 42.685 174.425 41.383 173.585 40.627C172.745 39.829 171.317 39.43 169.301 39.43C167.621 39.43 165.836 39.703 163.946 40.249C162.098 40.753 160.25 41.53 158.402 42.58L155.819 36.217C156.911 35.461 158.234 34.81 159.788 34.264C161.384 33.676 163.043 33.235 164.765 32.941C166.487 32.605 168.125 32.437 169.679 32.437C172.913 32.437 175.559 32.92 177.617 33.886C179.717 34.81 181.292 36.259 182.342 38.233C183.392 40.165 183.917 42.664 183.917 45.73V64H175.034V57.763H175.475C175.223 59.191 174.677 60.43 173.837 61.48C173.039 62.488 172.01 63.286 170.75 63.874C169.49 64.42 168.041 64.693 166.403 64.693ZM193.099 75.34L199.903 60.409V64.315L186.295 33.067H196.312L205.069 55.243H203.053L212.062 33.067H221.512L202.801 75.34H193.099ZM224.297 64V33.067H233.621V38.863H232.928C233.894 36.805 235.322 35.23 237.212 34.138C239.144 33.004 241.328 32.437 243.764 32.437C246.242 32.437 248.279 32.92 249.875 33.886C251.471 34.81 252.668 36.238 253.466 38.17C254.264 40.06 254.663 42.475 254.663 45.415V64H245.15V45.856C245.15 44.428 244.961 43.273 244.583 42.391C244.247 41.467 243.722 40.816 243.008 40.438C242.336 40.018 241.475 39.808 240.425 39.808C239.081 39.808 237.905 40.102 236.897 40.69C235.931 41.236 235.175 42.034 234.629 43.084C234.083 44.134 233.81 45.352 233.81 46.738V64H224.297ZM261.387 27.082V18.199H271.656V27.082H261.387ZM261.765 64V33.067H271.278V64H261.765ZM293.805 64.693C289.395 64.693 286.119 63.622 283.977 61.48C281.835 59.338 280.764 56.188 280.764 52.03V40.186H274.905V33.067H280.764V23.995H290.277V33.067H299.412V40.186H290.277V51.652C290.277 53.416 290.676 54.739 291.474 55.621C292.314 56.503 293.637 56.944 295.443 56.944C295.989 56.944 296.556 56.881 297.144 56.755C297.774 56.629 298.446 56.461 299.16 56.251L300.546 63.181C299.664 63.643 298.614 64 297.396 64.252C296.178 64.546 294.981 64.693 293.805 64.693ZM319.85 64.693C316.196 64.693 313.046 64.042 310.4 62.74C307.796 61.396 305.78 59.527 304.352 57.133C302.966 54.697 302.273 51.841 302.273 48.565C302.273 45.373 302.945 42.58 304.289 40.186C305.633 37.75 307.502 35.86 309.896 34.516C312.332 33.13 315.083 32.437 318.149 32.437C321.173 32.437 323.777 33.088 325.961 34.39C328.145 35.65 329.825 37.456 331.001 39.808C332.219 42.16 332.828 44.953 332.828 48.187V50.581H310.085V45.667H325.961L324.953 46.549C324.953 43.987 324.386 42.055 323.252 40.753C322.16 39.409 320.585 38.737 318.527 38.737C316.973 38.737 315.65 39.094 314.558 39.808C313.466 40.522 312.626 41.551 312.038 42.895C311.45 44.239 311.156 45.856 311.156 47.746V48.25C311.156 50.392 311.471 52.156 312.101 53.542C312.773 54.886 313.76 55.894 315.062 56.566C316.406 57.238 318.065 57.574 320.039 57.574C321.719 57.574 323.42 57.322 325.142 56.818C326.864 56.314 328.418 55.537 329.804 54.487L332.324 60.85C330.77 62.026 328.859 62.971 326.591 63.685C324.365 64.357 322.118 64.693 319.85 64.693Z" fill="#151630"/>
<path d="M344.578 64L364.99 19.585H372.865L393.277 64H383.449L378.157 51.652L382.063 54.361H355.792L359.698 51.652L354.469 64H344.578ZM368.833 29.98L360.769 49.195L359.068 46.738H378.787L377.086 49.195L368.959 29.98H368.833ZM411.046 64.693C407.686 64.693 404.746 64.042 402.226 62.74C399.748 61.396 397.837 59.506 396.493 57.07C395.149 54.634 394.477 51.757 394.477 48.439C394.477 45.121 395.149 42.265 396.493 39.871C397.837 37.477 399.748 35.65 402.226 34.39C404.746 33.088 407.686 32.437 411.046 32.437C413.062 32.437 415.057 32.731 417.031 33.319C419.047 33.907 420.685 34.747 421.945 35.839L419.299 42.391C418.291 41.551 417.115 40.9 415.771 40.438C414.427 39.934 413.167 39.682 411.991 39.682C409.513 39.682 407.581 40.459 406.195 42.013C404.851 43.525 404.179 45.688 404.179 48.502C404.179 51.274 404.851 53.458 406.195 55.054C407.581 56.608 409.513 57.385 411.991 57.385C413.167 57.385 414.427 57.154 415.771 56.692C417.115 56.23 418.291 55.558 419.299 54.676L421.945 61.228C420.685 62.278 419.047 63.118 417.031 63.748C415.015 64.378 413.02 64.693 411.046 64.693ZM426.074 64V19.585H435.587V38.863H434.705C435.671 36.805 437.099 35.23 438.989 34.138C440.921 33.004 443.105 32.437 445.541 32.437C448.019 32.437 450.056 32.92 451.652 33.886C453.248 34.81 454.445 36.238 455.243 38.17C456.041 40.06 456.44 42.475 456.44 45.415V64H446.927V45.856C446.927 44.428 446.738 43.273 446.36 42.391C446.024 41.467 445.499 40.816 444.785 40.438C444.113 40.018 443.252 39.808 442.202 39.808C440.858 39.808 439.682 40.102 438.674 40.69C437.708 41.236 436.952 42.034 436.406 43.084C435.86 44.134 435.587 45.352 435.587 46.738V64H426.074ZM463.164 27.082V18.199H473.433V27.082H463.164ZM463.542 64V33.067H473.055V64H463.542ZM496.464 64.693C492.81 64.693 489.66 64.042 487.014 62.74C484.41 61.396 482.394 59.527 480.966 57.133C479.58 54.697 478.887 51.841 478.887 48.565C478.887 45.373 479.559 42.58 480.903 40.186C482.247 37.75 484.116 35.86 486.51 34.516C488.946 33.13 491.697 32.437 494.763 32.437C497.787 32.437 500.391 33.088 502.575 34.39C504.759 35.65 506.439 37.456 507.615 39.808C508.833 42.16 509.442 44.953 509.442 48.187V50.581H486.699V45.667H502.575L501.567 46.549C501.567 43.987 501 42.055 499.866 40.753C498.774 39.409 497.199 38.737 495.141 38.737C493.587 38.737 492.264 39.094 491.172 39.808C490.08 40.522 489.24 41.551 488.652 42.895C488.064 44.239 487.77 45.856 487.77 47.746V48.25C487.77 50.392 488.085 52.156 488.715 53.542C489.387 54.886 490.374 55.894 491.676 56.566C493.02 57.238 494.679 57.574 496.653 57.574C498.333 57.574 500.034 57.322 501.756 56.818C503.478 56.314 505.032 55.537 506.418 54.487L508.938 60.85C507.384 62.026 505.473 62.971 503.205 63.685C500.979 64.357 498.732 64.693 496.464 64.693ZM523.557 64L510.075 33.067H520.092L528.786 55.243H526.77L535.842 33.067H545.229L531.558 64H523.557ZM563.402 64.693C559.748 64.693 556.598 64.042 553.952 62.74C551.348 61.396 549.332 59.527 547.904 57.133C546.518 54.697 545.825 51.841 545.825 48.565C545.825 45.373 546.497 42.58 547.841 40.186C549.185 37.75 551.054 35.86 553.448 34.516C555.884 33.13 558.635 32.437 561.701 32.437C564.725 32.437 567.329 33.088 569.513 34.39C571.697 35.65 573.377 37.456 574.553 39.808C575.771 42.16 576.38 44.953 576.38 48.187V50.581H553.637V45.667H569.513L568.505 46.549C568.505 43.987 567.938 42.055 566.804 40.753C565.712 39.409 564.137 38.737 562.079 38.737C560.525 38.737 559.202 39.094 558.11 39.808C557.018 40.522 556.178 41.551 555.59 42.895C555.002 44.239 554.708 45.856 554.708 47.746V48.25C554.708 50.392 555.023 52.156 555.653 53.542C556.325 54.886 557.312 55.894 558.614 56.566C559.958 57.238 561.617 57.574 563.591 57.574C565.271 57.574 566.972 57.322 568.694 56.818C570.416 56.314 571.97 55.537 573.356 54.487L575.876 60.85C574.322 62.026 572.411 62.971 570.143 63.685C567.917 64.357 565.67 64.693 563.402 64.693ZM582.039 64V33.067H591.363V38.863H590.67C591.216 37.561 591.972 36.427 592.938 35.461C593.904 34.495 595.059 33.76 596.403 33.256C597.747 32.71 599.217 32.437 600.813 32.437C603.207 32.437 605.202 33.004 606.798 34.138C608.394 35.272 609.528 37.015 610.2 39.367H609.318C610.242 37.225 611.649 35.545 613.539 34.327C615.471 33.067 617.676 32.437 620.154 32.437C622.548 32.437 624.501 32.92 626.013 33.886C627.567 34.81 628.722 36.238 629.478 38.17C630.234 40.06 630.612 42.475 630.612 45.415V64H621.099V45.73C621.099 43.672 620.763 42.181 620.091 41.257C619.461 40.291 618.369 39.808 616.815 39.808C615.639 39.808 614.61 40.102 613.728 40.69C612.846 41.236 612.174 42.055 611.712 43.147C611.292 44.197 611.082 45.499 611.082 47.053V64H601.569V45.73C601.569 43.672 601.233 42.181 600.561 41.257C599.931 40.291 598.839 39.808 597.285 39.808C596.067 39.808 595.038 40.102 594.198 40.69C593.358 41.236 592.707 42.055 592.245 43.147C591.783 44.197 591.552 45.499 591.552 47.053V64H582.039ZM653.964 64.693C650.31 64.693 647.16 64.042 644.514 62.74C641.91 61.396 639.894 59.527 638.466 57.133C637.08 54.697 636.387 51.841 636.387 48.565C636.387 45.373 637.059 42.58 638.403 40.186C639.747 37.75 641.616 35.86 644.01 34.516C646.446 33.13 649.197 32.437 652.263 32.437C655.287 32.437 657.891 33.088 660.075 34.39C662.259 35.65 663.939 37.456 665.115 39.808C666.333 42.16 666.942 44.953 666.942 48.187V50.581H644.199V45.667H660.075L659.067 46.549C659.067 43.987 658.5 42.055 657.366 40.753C656.274 39.409 654.699 38.737 652.641 38.737C651.087 38.737 649.764 39.094 648.672 39.808C647.58 40.522 646.74 41.551 646.152 42.895C645.564 44.239 645.27 45.856 645.27 47.746V48.25C645.27 50.392 645.585 52.156 646.215 53.542C646.887 54.886 647.874 55.894 649.176 56.566C650.52 57.238 652.179 57.574 654.153 57.574C655.833 57.574 657.534 57.322 659.256 56.818C660.978 56.314 662.532 55.537 663.918 54.487L666.438 60.85C664.884 62.026 662.973 62.971 660.705 63.685C658.479 64.357 656.232 64.693 653.964 64.693ZM672.475 64V33.067H681.799V38.863H681.106C682.072 36.805 683.5 35.23 685.39 34.138C687.322 33.004 689.506 32.437 691.942 32.437C694.42 32.437 696.457 32.92 698.053 33.886C699.649 34.81 700.846 36.238 701.644 38.17C702.442 40.06 702.841 42.475 702.841 45.415V64H693.328V45.856C693.328 44.428 693.139 43.273 692.761 42.391C692.425 41.467 691.9 40.816 691.186 40.438C690.514 40.018 689.653 39.808 688.603 39.808C687.259 39.808 686.083 40.102 685.075 40.69C684.109 41.236 683.353 42.034 682.807 43.084C682.261 44.134 681.988 45.352 681.988 46.738V64H672.475ZM725.126 64.693C720.716 64.693 717.44 63.622 715.298 61.48C713.156 59.338 712.085 56.188 712.085 52.03V40.186H706.226V33.067H712.085V23.995H721.598V33.067H730.733V40.186H721.598V51.652C721.598 53.416 721.997 54.739 722.795 55.621C723.635 56.503 724.958 56.944 726.764 56.944C727.31 56.944 727.877 56.881 728.465 56.755C729.095 56.629 729.767 56.461 730.481 56.251L731.867 63.181C730.985 63.643 729.935 64 728.717 64.252C727.499 64.546 726.302 64.693 725.126 64.693ZM747.258 64.693C745.452 64.693 743.709 64.546 742.029 64.252C740.349 63.958 738.816 63.559 737.43 63.055C736.044 62.551 734.826 61.921 733.776 61.165L736.044 54.991C737.094 55.621 738.228 56.188 739.446 56.692C740.706 57.154 742.008 57.511 743.352 57.763C744.696 58.015 746.019 58.141 747.321 58.141C749.127 58.141 750.429 57.868 751.227 57.322C752.067 56.734 752.487 55.978 752.487 55.054C752.487 54.214 752.214 53.584 751.668 53.164C751.122 52.744 750.324 52.45 749.274 52.282L742.659 51.085C740.055 50.623 738.039 49.678 736.611 48.25C735.225 46.78 734.532 44.911 734.532 42.643C734.532 40.543 735.12 38.737 736.296 37.225C737.472 35.671 739.089 34.495 741.147 33.697C743.247 32.857 745.62 32.437 748.266 32.437C749.778 32.437 751.248 32.563 752.676 32.815C754.104 33.067 755.448 33.445 756.708 33.949C758.01 34.453 759.165 35.125 760.173 35.965L757.779 42.076C756.981 41.446 756.036 40.9 754.944 40.438C753.852 39.976 752.739 39.619 751.605 39.367C750.471 39.073 749.4 38.926 748.392 38.926C746.502 38.926 745.137 39.241 744.297 39.871C743.457 40.459 743.037 41.215 743.037 42.139C743.037 42.853 743.268 43.462 743.73 43.966C744.234 44.428 744.99 44.743 745.998 44.911L752.613 46.108C755.343 46.57 757.422 47.494 758.85 48.88C760.278 50.224 760.992 52.072 760.992 54.424C760.992 56.566 760.425 58.414 759.291 59.968C758.157 61.48 756.561 62.656 754.503 63.496C752.445 64.294 750.03 64.693 747.258 64.693Z" fill="#151630"/>
<path d="M58.0898 7.93652C58.4349 8.2764 58.772 8.89162 58.667 9.64746C58.6052 10.0909 58.397 10.5387 58.0107 10.9746H71.209V11.4746C71.2089 15.8383 69.9489 22.5589 66.1699 28.5986C62.3976 34.6273 56.1162 39.9708 46.1152 41.6016L44.8232 42.6846C45.0899 42.8436 45.3441 43.0267 45.5596 43.2324C45.9539 43.609 46.3009 44.1449 46.1924 44.7891C46.0861 45.4183 45.5757 45.951 44.7656 46.4072C44.011 46.8321 42.9099 47.2393 41.375 47.6211C41.7459 50.5435 42.4802 54.728 43.5527 58.3086C44.1173 60.1931 44.767 61.8859 45.4922 63.1348C46.2354 64.4146 46.9782 65.0903 47.6689 65.2041L48.0879 65.2734V69.1348C48.0882 69.3129 48.2237 69.8404 48.876 70.0615L48.8994 70.0693L48.9219 70.0791C49.2803 70.241 49.7681 70.7516 49.6387 71.5879V74.2168H21.5703V71.5879C21.4409 70.7521 21.9287 70.2413 22.2871 70.0791L22.3096 70.0693L22.333 70.0615C22.9854 69.8405 23.1207 69.3131 23.1211 69.1348V65.2734L23.54 65.2041C24.2308 65.0905 24.9735 64.4146 25.7168 63.1348C26.4419 61.886 27.0918 60.193 27.6562 58.3086C28.7287 54.7282 29.4631 50.5435 29.834 47.6211C28.2989 47.2393 27.198 46.8322 26.4434 46.4072C25.6334 45.951 25.1229 45.4182 25.0166 44.7891C24.9082 44.1452 25.2553 43.6089 25.6494 43.2324C25.8647 43.0268 26.1193 42.8435 26.3857 42.6846L25.0938 41.6016C15.0928 39.9707 8.81131 34.6274 5.03906 28.5986C1.2601 22.559 0.000118524 15.8383 0 11.4746V10.9746H13.1982C12.812 10.5387 12.6038 10.0909 12.542 9.64746C12.437 8.89199 12.7743 8.27651 13.1191 7.93652L13.2656 7.79297H57.9434L58.0898 7.93652ZM5.99902 15.8018C7.80368 29.0391 17.3723 35.0642 21.9307 36.4219C17.6449 32.1452 15.2576 20.8933 14.5996 15.8018H5.99902ZM56.6104 15.8027C55.9523 20.8944 53.5649 32.1453 49.2793 36.4219C53.8376 35.0642 63.4052 29.0398 65.21 15.8027H56.6104ZM36.1445 16.0244C36.0108 15.9487 35.8502 15.9393 35.71 15.9961L35.6514 16.0244L29.7646 19.3574C29.608 19.4461 29.5109 19.612 29.5107 19.792V26.457C29.5108 26.6372 29.6079 26.8038 29.7646 26.8926L35.6514 30.2246C35.8042 30.3111 35.9917 30.3111 36.1445 30.2246L42.0312 26.8926C42.188 26.8038 42.2851 26.6371 42.2852 26.457V19.792C42.285 19.6121 42.1878 19.4461 42.0312 19.3574L36.1445 16.0244Z" fill="#151630"/>
</svg>
