<svg width="278" height="258" viewBox="0 0 278 258" fill="none" xmlns="http://www.w3.org/2000/svg">
<g clip-path="url(#clip0_2028_2751)">
<path d="M197.266 241.622C179.725 251.719 159.348 257.5 137.61 257.5L136.84 257.498C119.785 257.39 103.582 253.725 88.9447 247.212L94.1875 231.198C107.367 237.344 122.084 240.779 137.61 240.779C154.658 240.779 170.73 236.637 184.863 229.313L197.266 241.622ZM35.5322 133.776C35.4324 135.613 35.3817 137.464 35.3817 139.326C35.3817 165.46 45.3396 189.287 61.6948 207.272L47.9974 217.149C29.8088 196.538 18.724 169.597 18.5357 140.09L18.5332 139.326C18.5332 137.725 18.5655 136.131 18.629 134.545L25.1463 138.279L26.41 139.004L27.6736 138.279L35.5322 133.776ZM256.329 130.109C256.565 133.15 256.686 136.224 256.686 139.326L256.684 140.09C256.502 168.479 246.235 194.492 229.258 214.778L217.285 202.896C231.393 185.502 239.838 163.393 239.838 139.326C239.838 136.219 239.697 133.144 239.421 130.109H256.329ZM165.415 24.3915C198.302 32.1989 225.887 53.547 241.855 82.1667L231.707 99.6103C219.686 71.595 195.334 50.0445 165.415 41.6707V24.3915ZM109.802 41.6715C82.4593 49.3246 59.7652 67.9833 46.8854 92.5236L32.2798 84.1548C48.0635 54.5377 76.1592 32.3795 109.802 24.3919V41.6715Z" fill="url(#paint0_linear_2028_2751)"/>
<path d="M49.6919 219.027L63.4226 209.127M197.266 241.622C179.725 251.719 159.348 257.5 137.61 257.5L136.84 257.498C119.785 257.39 103.582 253.725 88.9447 247.212L94.1875 231.198C107.367 237.344 122.084 240.779 137.61 240.779C154.658 240.779 170.73 236.637 184.863 229.313L197.266 241.622ZM35.5322 133.776C35.4324 135.613 35.3817 137.464 35.3817 139.326C35.3817 165.46 45.3396 189.287 61.6948 207.272L47.9974 217.149C29.8088 196.538 18.724 169.597 18.5357 140.09L18.5332 139.326C18.5332 137.725 18.5655 136.131 18.629 134.545L25.1463 138.279L26.41 139.004L27.6736 138.279L35.5322 133.776ZM256.329 130.109C256.565 133.15 256.686 136.224 256.686 139.326L256.684 140.09C256.502 168.479 246.235 194.492 229.258 214.778L217.285 202.896C231.393 185.502 239.838 163.393 239.838 139.326C239.838 136.219 239.697 133.144 239.421 130.109H256.329ZM165.415 24.3915C198.302 32.1989 225.887 53.547 241.855 82.1667L231.707 99.6103C219.686 71.595 195.334 50.0445 165.415 41.6707V24.3915ZM109.802 41.6715C82.4593 49.3246 59.7652 67.9833 46.8854 92.5236L32.2798 84.1548C48.0635 54.5377 76.1592 32.3795 109.802 24.3919V41.6715Z" stroke="url(#paint1_linear_2028_2751)"/>
<path d="M86.6909 101.438C89.7858 122.28 104.158 132.583 112.446 135.799C109.219 131.828 106.687 125.744 104.798 119.599C102.722 112.843 101.398 105.922 100.789 101.438H86.6909ZM175.494 101.438C174.884 105.922 173.561 112.843 171.485 119.599C169.597 125.744 167.064 131.828 163.836 135.799C172.123 132.583 186.496 122.279 189.591 101.438H175.494ZM159.913 193.95C159.913 194.309 160.177 195.303 161.408 195.719L161.418 195.723L161.434 195.727L161.45 195.734L161.458 195.737L161.467 195.741L161.475 195.744C162.046 196 162.858 196.828 162.638 198.214V202.65H137.679V202.612H114.197V198.18C113.972 196.794 114.79 195.969 115.362 195.71L115.371 195.706L115.398 195.692L115.427 195.682L115.437 195.68C116.696 195.263 116.961 194.263 116.961 193.91V187.312L117.382 187.244L117.559 187.216C118.882 187.003 120.242 185.757 121.569 183.521C122.871 181.327 124.034 178.362 125.042 175.07C126.976 168.756 128.295 161.372 128.951 156.263C126.142 155.588 124.149 154.872 122.798 154.128C121.373 153.342 120.517 152.448 120.34 151.419C120.159 150.366 120.736 149.481 121.418 148.843V148.842C121.845 148.443 122.362 148.093 122.899 147.797L120.384 145.734C102.581 142.91 91.4076 133.615 84.6968 123.123C77.9773 112.616 75.7369 100.923 75.7368 93.3348V92.6259H99.4849C98.6471 91.8006 98.2151 90.9539 98.0972 90.1268V90.1259C97.9181 88.8632 98.4951 87.8373 99.0796 87.2743V87.2753L99.1392 87.2167L99.2847 87.0751H139.498V87.1317H177.332L177.477 87.2743L177.538 87.3339C178.115 87.8983 178.682 88.9226 178.506 90.1805C178.391 91.0067 177.964 91.8548 177.136 92.6815H200.545V93.3905C200.545 100.976 198.337 112.666 191.714 123.17C185.101 133.659 174.087 142.954 156.536 145.78L154.055 147.845C154.587 148.142 155.098 148.492 155.52 148.892C156.196 149.532 156.76 150.416 156.583 151.464C156.408 152.49 155.566 153.385 154.158 154.172C152.826 154.916 150.861 155.632 148.093 156.307C148.74 161.415 150.042 168.8 151.948 175.115C152.941 178.407 154.089 181.373 155.373 183.566C156.682 185.804 158.021 187.045 159.317 187.257H159.316L159.493 187.285L159.913 187.352V193.95Z" fill="url(#paint2_linear_2028_2751)" stroke="url(#paint3_linear_2028_2751)"/>
<path d="M69.0353 205.08L94.1526 223.191L84.5586 252.494H53.5119L43.918 223.191L69.0353 205.08Z" fill="url(#paint4_linear_2028_2751)"/>
<path d="M26.4098 83.6875L49.2816 96.7924V123.002L26.4098 136.107L3.53809 123.002V96.7924L26.4098 83.6875Z" fill="url(#paint5_linear_2028_2751)"/>
<path d="M137.609 0L162.889 14.4844V43.4531L137.609 57.9375L112.33 43.4531V14.4844L137.609 0Z" fill="url(#paint6_linear_2028_2751)"/>
<path d="M208.499 197.723L234.446 223.473L208.499 249.223L182.552 223.473L208.499 197.723Z" fill="url(#paint7_linear_2028_2751)"/>
<path d="M246.028 80.0089L273.716 127.6H218.342L246.028 80.0089Z" fill="url(#paint8_linear_2028_2751)"/>
</g>
<defs>
<linearGradient id="paint0_linear_2028_2751" x1="18.5332" y1="140.429" x2="256.686" y2="140.429" gradientUnits="userSpaceOnUse">
<stop stop-color="#272A78"/>
<stop offset="0.216346" stop-color="#6088BA"/>
<stop offset="0.504808" stop-color="#151630"/>
<stop offset="0.774038" stop-color="#638DC3"/>
<stop offset="1" stop-color="#2C2E61"/>
</linearGradient>
<linearGradient id="paint1_linear_2028_2751" x1="18.5332" y1="140.429" x2="256.686" y2="140.429" gradientUnits="userSpaceOnUse">
<stop stop-color="#272A78"/>
<stop offset="0.221154" stop-color="#6088BA"/>
<stop offset="0.5" stop-color="#151630"/>
<stop offset="0.788462" stop-color="#638DC3"/>
<stop offset="1" stop-color="#2C2E61"/>
</linearGradient>
<linearGradient id="paint2_linear_2028_2751" x1="76.2368" y1="144.863" x2="200.045" y2="144.863" gradientUnits="userSpaceOnUse">
<stop stop-color="#272A78"/>
<stop offset="0.216346" stop-color="#6088BA"/>
<stop offset="0.504808" stop-color="#151630"/>
<stop offset="0.774038" stop-color="#638DC3"/>
<stop offset="1" stop-color="#2C2E61"/>
</linearGradient>
<linearGradient id="paint3_linear_2028_2751" x1="76.2368" y1="144.863" x2="200.045" y2="144.863" gradientUnits="userSpaceOnUse">
<stop stop-color="#272A78"/>
<stop offset="0.211538" stop-color="#6088BA"/>
<stop offset="0.495192" stop-color="#151630"/>
<stop offset="0.778846" stop-color="#638DC3"/>
<stop offset="1" stop-color="#2C2E61"/>
</linearGradient>
<linearGradient id="paint4_linear_2028_2751" x1="42.6253" y1="231.29" x2="95.4453" y2="231.29" gradientUnits="userSpaceOnUse">
<stop stop-color="#8B7913"/>
<stop offset="1" stop-color="#D6C879"/>
</linearGradient>
<linearGradient id="paint5_linear_2028_2751" x1="-0.000179493" y1="109.897" x2="52.8198" y2="109.897" gradientUnits="userSpaceOnUse">
<stop stop-color="#3F8BBC"/>
<stop offset="1" stop-color="#81C1EA"/>
</linearGradient>
<linearGradient id="paint6_linear_2028_2751" x1="108.419" y1="28.9688" x2="166.799" y2="28.9688" gradientUnits="userSpaceOnUse">
<stop stop-color="#7841C5"/>
<stop offset="1" stop-color="#2879CB"/>
</linearGradient>
<linearGradient id="paint7_linear_2028_2751" x1="182.552" y1="223.473" x2="234.446" y2="223.473" gradientUnits="userSpaceOnUse">
<stop stop-color="#6E7682"/>
<stop offset="1" stop-color="#969DA8"/>
</linearGradient>
<linearGradient id="paint8_linear_2028_2751" x1="214.058" y1="111.737" x2="277.998" y2="111.737" gradientUnits="userSpaceOnUse">
<stop stop-color="#93521F"/>
<stop offset="1" stop-color="#C47F49"/>
</linearGradient>
<clipPath id="clip0_2028_2751">
<rect width="278" height="257.5" fill="white"/>
</clipPath>
</defs>
</svg>
