<svg width="278" height="257" viewBox="0 0 278 257" fill="none" xmlns="http://www.w3.org/2000/svg">
<g clip-path="url(#clip0_2029_42)">
<path d="M197.266 240.684C179.725 250.741 159.348 256.5 137.61 256.5L136.84 256.498C119.785 256.39 103.582 252.74 88.9447 246.252L94.1875 230.3C107.367 236.422 122.084 239.844 137.61 239.844C154.658 239.844 170.73 235.718 184.863 228.422L197.266 240.684ZM35.5322 133.257C35.4324 135.087 35.3817 136.93 35.3817 138.785C35.3817 164.818 45.3396 188.552 61.6948 206.468L47.9974 216.305C29.8088 195.774 18.724 168.938 18.5357 139.546L18.5332 138.785C18.5332 137.19 18.5655 135.602 18.629 134.023L25.1463 137.742L26.41 138.464L27.6736 137.742L35.5322 133.257ZM256.329 129.603C256.565 132.633 256.686 135.695 256.686 138.785L256.684 139.546C256.502 167.824 246.235 193.737 229.258 213.944L217.285 202.108C231.393 184.782 239.838 162.758 239.838 138.785C239.838 135.69 239.697 132.627 239.421 129.603H256.329ZM35.7408 130.253L26.41 135.579L26.4095 135.579L35.7408 130.252V130.253ZM165.415 24.2968C198.302 32.0738 225.888 53.3391 241.855 81.8477L231.707 99.2234C219.686 71.317 195.334 49.8501 165.415 41.5089V24.2968ZM109.802 41.5097C82.4593 49.1331 59.7652 67.7193 46.8854 92.1643L32.2798 83.828C48.0635 54.3259 76.1592 32.2537 109.802 24.2972V41.5097Z" fill="url(#paint0_linear_2029_42)"/>
<path d="M138.997 87.2916H177.127L177.188 87.3512C177.679 87.8292 178.16 88.699 178.011 89.7617C177.877 90.7123 177.246 91.7733 175.757 92.8197H200.045V93.0279C200.045 100.505 197.857 112.054 191.292 122.426C184.73 132.793 173.795 141.982 156.321 144.745L153.154 147.37C153.891 147.711 154.625 148.155 155.176 148.675C155.801 149.266 156.226 149.989 156.089 150.792C155.954 151.589 155.278 152.379 153.913 153.138C152.571 153.885 150.522 154.625 147.542 155.322C148.17 160.438 149.497 168.07 151.47 174.579C152.468 177.874 153.628 180.87 154.941 183.105C156.261 185.352 157.702 186.772 159.236 187.021L159.413 187.049V193.197C159.413 193.719 159.771 194.936 161.251 195.432L161.261 195.435L161.271 195.439C161.674 195.619 162.344 196.259 162.138 197.415V201.365H138.179V201.328H114.696V197.378C114.486 196.219 115.168 195.579 115.576 195.4L115.584 195.396L115.594 195.393C117.099 194.896 117.461 193.678 117.461 193.157V187.009L117.638 186.981C119.197 186.731 120.659 185.31 121.999 183.063C123.33 180.828 124.507 177.832 125.52 174.536C127.521 168.027 128.867 160.394 129.505 155.277C126.481 154.58 124.402 153.841 123.04 153.093C121.657 152.334 120.97 151.544 120.833 150.746C120.694 149.942 121.126 149.218 121.76 148.628C122.319 148.108 123.062 147.664 123.81 147.323L120.598 144.699C102.87 141.935 91.7758 132.746 85.1177 122.377C78.457 112.003 76.2368 100.451 76.2368 92.9721V92.7639H100.877C99.3685 91.7179 98.7279 90.6573 98.5918 89.7063C98.4402 88.642 98.9292 87.7713 99.4266 87.2941L99.4877 87.235H138.997V87.2916ZM86.1117 100.546C89.283 123.543 106.097 134.009 114.108 136.368C106.577 128.938 102.381 109.391 101.225 100.546H86.1117ZM175.057 100.546C173.902 109.391 169.706 128.938 162.174 136.368C170.185 134.009 186.999 123.542 190.17 100.546H175.057Z" fill="url(#paint1_linear_2029_42)"/>
<path d="M69.0353 204.284L94.1526 222.324L84.5586 251.514H53.5119L43.918 222.324L69.0353 204.284Z" fill="url(#paint2_linear_2029_42)"/>
<path d="M26.4098 83.3625L49.2816 96.4166V122.525L26.4098 135.579L3.53809 122.525V96.4166L26.4098 83.3625Z" fill="url(#paint3_linear_2029_42)"/>
<path d="M137.609 0L162.889 14.4281V43.2844L137.609 57.7125L112.33 43.2844V14.4281L137.609 0Z" fill="url(#paint4_linear_2029_42)"/>
<path d="M208.499 196.955L234.446 222.605L208.499 248.255L182.552 222.605L208.499 196.955Z" fill="url(#paint5_linear_2029_42)"/>
<path d="M246.028 79.6981L273.716 127.105H218.342L246.028 79.6981Z" fill="url(#paint6_linear_2029_42)"/>
</g>
<defs>
<linearGradient id="paint0_linear_2029_42" x1="18.5332" y1="140.456" x2="256.686" y2="140.456" gradientUnits="userSpaceOnUse">
<stop stop-color="#D9A748"/>
<stop offset="0.216346" stop-color="#D9AA5A"/>
<stop offset="0.504808" stop-color="#E5BC7B"/>
<stop offset="0.774038" stop-color="#EBC48C"/>
<stop offset="1" stop-color="#F1CD9C"/>
</linearGradient>
<linearGradient id="paint1_linear_2029_42" x1="76.2368" y1="144.328" x2="200.045" y2="144.328" gradientUnits="userSpaceOnUse">
<stop stop-color="#D9A748"/>
<stop offset="0.216346" stop-color="#D9AA5A"/>
<stop offset="0.504808" stop-color="#E5BC7B"/>
<stop offset="0.774038" stop-color="#EBC48C"/>
<stop offset="1" stop-color="#F1CD9C"/>
</linearGradient>
<linearGradient id="paint2_linear_2029_42" x1="43.918" y1="227.91" x2="94.1526" y2="227.91" gradientUnits="userSpaceOnUse">
<stop stop-color="#D9A748"/>
<stop offset="0.216346" stop-color="#D9AA5A"/>
<stop offset="0.504808" stop-color="#E5BC7B"/>
<stop offset="0.774038" stop-color="#EBC48C"/>
<stop offset="1" stop-color="#F1CD9C"/>
</linearGradient>
<linearGradient id="paint3_linear_2029_42" x1="3.53809" y1="109.484" x2="49.2816" y2="109.484" gradientUnits="userSpaceOnUse">
<stop stop-color="#D9A748"/>
<stop offset="0.216346" stop-color="#D9AA5A"/>
<stop offset="0.504808" stop-color="#E5BC7B"/>
<stop offset="0.774038" stop-color="#EBC48C"/>
<stop offset="1" stop-color="#F1CD9C"/>
</linearGradient>
<linearGradient id="paint4_linear_2029_42" x1="112.33" y1="28.8706" x2="162.889" y2="28.8706" gradientUnits="userSpaceOnUse">
<stop stop-color="#D9A748"/>
<stop offset="0.216346" stop-color="#D9AA5A"/>
<stop offset="0.504808" stop-color="#E5BC7B"/>
<stop offset="0.774038" stop-color="#EBC48C"/>
<stop offset="1" stop-color="#F1CD9C"/>
</linearGradient>
<linearGradient id="paint5_linear_2029_42" x1="182.552" y1="222.618" x2="234.446" y2="222.618" gradientUnits="userSpaceOnUse">
<stop stop-color="#D9A748"/>
<stop offset="0.216346" stop-color="#D9AA5A"/>
<stop offset="0.504808" stop-color="#E5BC7B"/>
<stop offset="0.774038" stop-color="#EBC48C"/>
<stop offset="1" stop-color="#F1CD9C"/>
</linearGradient>
<linearGradient id="paint6_linear_2029_42" x1="218.342" y1="103.413" x2="273.716" y2="103.413" gradientUnits="userSpaceOnUse">
<stop stop-color="#D9A748"/>
<stop offset="0.216346" stop-color="#D9AA5A"/>
<stop offset="0.504808" stop-color="#E5BC7B"/>
<stop offset="0.774038" stop-color="#EBC48C"/>
<stop offset="1" stop-color="#F1CD9C"/>
</linearGradient>
<clipPath id="clip0_2029_42">
<rect width="278" height="256.5" fill="white"/>
</clipPath>
</defs>
</svg>
