<svg width="494" height="136" viewBox="0 0 494 136" fill="none" xmlns="http://www.w3.org/2000/svg">
<path d="M130.566 58V17.815H148.92C151.922 17.815 154.468 18.328 156.558 19.354C158.648 20.38 160.225 21.843 161.289 23.743C162.391 25.643 162.942 27.942 162.942 30.64C162.942 33.338 162.391 35.656 161.289 37.594C160.225 39.494 158.648 40.957 156.558 41.983C154.468 43.009 151.922 43.522 148.92 43.522H139.401V58H130.566ZM139.401 36.682H147.438C149.718 36.682 151.447 36.169 152.625 35.143C153.841 34.117 154.449 32.616 154.449 30.64C154.449 28.664 153.841 27.182 152.625 26.194C151.447 25.206 149.718 24.712 147.438 24.712H139.401V36.682ZM178.108 58.627C174.498 58.627 171.857 57.696 170.185 55.834C168.513 53.934 167.677 51.122 167.677 47.398V17.815H176.284V47.056C176.284 48.006 176.436 48.842 176.74 49.564C177.044 50.248 177.481 50.761 178.051 51.103C178.659 51.445 179.419 51.616 180.331 51.616C180.711 51.616 181.11 51.597 181.528 51.559C181.946 51.521 182.345 51.445 182.725 51.331L182.611 58C181.889 58.19 181.148 58.342 180.388 58.456C179.666 58.57 178.906 58.627 178.108 58.627ZM196.12 58.627C194.068 58.627 192.225 58.228 190.591 57.43C188.957 56.632 187.684 55.549 186.772 54.181C185.86 52.813 185.404 51.274 185.404 49.564C185.404 47.512 185.936 45.897 187 44.719C188.064 43.503 189.793 42.648 192.187 42.154C194.581 41.622 197.754 41.356 201.706 41.356H204.727V45.802H201.763C200.281 45.802 199.027 45.859 198.001 45.973C197.013 46.087 196.196 46.296 195.55 46.6C194.904 46.866 194.429 47.208 194.125 47.626C193.859 48.044 193.726 48.576 193.726 49.222C193.726 50.286 194.087 51.16 194.809 51.844C195.569 52.528 196.652 52.87 198.058 52.87C199.16 52.87 200.129 52.623 200.965 52.129C201.839 51.597 202.523 50.894 203.017 50.02C203.511 49.108 203.758 48.082 203.758 46.942V40.387C203.758 38.715 203.378 37.537 202.618 36.853C201.858 36.131 200.566 35.77 198.742 35.77C197.222 35.77 195.607 36.017 193.897 36.511C192.225 36.967 190.553 37.67 188.881 38.62L186.544 32.863C187.532 32.179 188.729 31.59 190.135 31.096C191.579 30.564 193.08 30.165 194.638 29.899C196.196 29.595 197.678 29.443 199.084 29.443C202.01 29.443 204.404 29.88 206.266 30.754C208.166 31.59 209.591 32.901 210.541 34.687C211.491 36.435 211.966 38.696 211.966 41.47V58H203.929V52.357H204.328C204.1 53.649 203.606 54.77 202.846 55.72C202.124 56.632 201.193 57.354 200.053 57.886C198.913 58.38 197.602 58.627 196.12 58.627ZM220.274 68.26L226.43 54.751V58.285L214.118 30.013H223.181L231.104 50.077H229.28L237.431 30.013H245.981L229.052 68.26H220.274ZM248.501 58V30.013H256.937V35.257H256.31C257.184 33.395 258.476 31.97 260.186 30.982C261.934 29.956 263.91 29.443 266.114 29.443C268.356 29.443 270.199 29.88 271.643 30.754C273.087 31.59 274.17 32.882 274.892 34.63C275.614 36.34 275.975 38.525 275.975 41.185V58H267.368V41.584C267.368 40.292 267.197 39.247 266.855 38.449C266.551 37.613 266.076 37.024 265.43 36.682C264.822 36.302 264.043 36.112 263.093 36.112C261.877 36.112 260.813 36.378 259.901 36.91C259.027 37.404 258.343 38.126 257.849 39.076C257.355 40.026 257.108 41.128 257.108 42.382V58H248.501ZM282.058 24.598V16.561H291.349V24.598H282.058ZM282.4 58V30.013H291.007V58H282.4ZM311.389 58.627C307.399 58.627 304.435 57.658 302.497 55.72C300.559 53.782 299.59 50.932 299.59 47.17V36.454H294.289V30.013H299.59V21.805H308.197V30.013H316.462V36.454H308.197V46.828C308.197 48.424 308.558 49.621 309.28 50.419C310.04 51.217 311.237 51.616 312.871 51.616C313.365 51.616 313.878 51.559 314.41 51.445C314.98 51.331 315.588 51.179 316.234 50.989L317.488 57.259C316.69 57.677 315.74 58 314.638 58.228C313.536 58.494 312.453 58.627 311.389 58.627ZM334.954 58.627C331.648 58.627 328.798 58.038 326.404 56.86C324.048 55.644 322.224 53.953 320.932 51.787C319.678 49.583 319.051 46.999 319.051 44.035C319.051 41.147 319.659 38.62 320.875 36.454C322.091 34.25 323.782 32.54 325.948 31.324C328.152 30.07 330.641 29.443 333.415 29.443C336.151 29.443 338.507 30.032 340.483 31.21C342.459 32.35 343.979 33.984 345.043 36.112C346.145 38.24 346.696 40.767 346.696 43.693V45.859H326.119V41.413H340.483L339.571 42.211C339.571 39.893 339.058 38.145 338.032 36.967C337.044 35.751 335.619 35.143 333.757 35.143C332.351 35.143 331.154 35.466 330.166 36.112C329.178 36.758 328.418 37.689 327.886 38.905C327.354 40.121 327.088 41.584 327.088 43.294V43.75C327.088 45.688 327.373 47.284 327.943 48.538C328.551 49.754 329.444 50.666 330.622 51.274C331.838 51.882 333.339 52.186 335.125 52.186C336.645 52.186 338.184 51.958 339.742 51.502C341.3 51.046 342.706 50.343 343.96 49.393L346.24 55.15C344.834 56.214 343.105 57.069 341.053 57.715C339.039 58.323 337.006 58.627 334.954 58.627Z" fill="#151630"/>
<path d="M111.919 117L130.387 76.815H137.512L155.98 117H147.088L142.3 105.828L145.834 108.279H122.065L125.599 105.828L120.868 117H111.919ZM133.864 86.22L126.568 103.605L125.029 101.382H142.87L141.331 103.605L133.978 86.22H133.864ZM172.057 117.627C169.017 117.627 166.357 117.038 164.077 115.86C161.835 114.644 160.106 112.934 158.89 110.73C157.674 108.526 157.066 105.923 157.066 102.921C157.066 99.919 157.674 97.335 158.89 95.169C160.106 93.003 161.835 91.35 164.077 90.21C166.357 89.032 169.017 88.443 172.057 88.443C173.881 88.443 175.686 88.709 177.472 89.241C179.296 89.773 180.778 90.533 181.918 91.521L179.524 97.449C178.612 96.689 177.548 96.1 176.332 95.682C175.116 95.226 173.976 94.998 172.912 94.998C170.67 94.998 168.922 95.701 167.668 97.107C166.452 98.475 165.844 100.432 165.844 102.978C165.844 105.486 166.452 107.462 167.668 108.906C168.922 110.312 170.67 111.015 172.912 111.015C173.976 111.015 175.116 110.806 176.332 110.388C177.548 109.97 178.612 109.362 179.524 108.564L181.918 114.492C180.778 115.442 179.296 116.202 177.472 116.772C175.648 117.342 173.843 117.627 172.057 117.627ZM185.654 117V76.815H194.261V94.257H193.463C194.337 92.395 195.629 90.97 197.339 89.982C199.087 88.956 201.063 88.443 203.267 88.443C205.509 88.443 207.352 88.88 208.796 89.754C210.24 90.59 211.323 91.882 212.045 93.63C212.767 95.34 213.128 97.525 213.128 100.185V117H204.521V100.584C204.521 99.292 204.35 98.247 204.008 97.449C203.704 96.613 203.229 96.024 202.583 95.682C201.975 95.302 201.196 95.112 200.246 95.112C199.03 95.112 197.966 95.378 197.054 95.91C196.18 96.404 195.496 97.126 195.002 98.076C194.508 99.026 194.261 100.128 194.261 101.382V117H185.654ZM219.211 83.598V75.561H228.502V83.598H219.211ZM219.553 117V89.013H228.16V117H219.553ZM249.34 117.627C246.034 117.627 243.184 117.038 240.79 115.86C238.434 114.644 236.61 112.953 235.318 110.787C234.064 108.583 233.437 105.999 233.437 103.035C233.437 100.147 234.045 97.62 235.261 95.454C236.477 93.25 238.168 91.54 240.334 90.324C242.538 89.07 245.027 88.443 247.801 88.443C250.537 88.443 252.893 89.032 254.869 90.21C256.845 91.35 258.365 92.984 259.429 95.112C260.531 97.24 261.082 99.767 261.082 102.693V104.859H240.505V100.413H254.869L253.957 101.211C253.957 98.893 253.444 97.145 252.418 95.967C251.43 94.751 250.005 94.143 248.143 94.143C246.737 94.143 245.54 94.466 244.552 95.112C243.564 95.758 242.804 96.689 242.272 97.905C241.74 99.121 241.474 100.584 241.474 102.294V102.75C241.474 104.688 241.759 106.284 242.329 107.538C242.937 108.754 243.83 109.666 245.008 110.274C246.224 110.882 247.725 111.186 249.511 111.186C251.031 111.186 252.57 110.958 254.128 110.502C255.686 110.046 257.092 109.343 258.346 108.393L260.626 114.15C259.22 115.214 257.491 116.069 255.439 116.715C253.425 117.323 251.392 117.627 249.34 117.627ZM273.852 117L261.654 89.013H270.717L278.583 109.077H276.759L284.967 89.013H293.46L281.091 117H273.852ZM309.903 117.627C306.597 117.627 303.747 117.038 301.353 115.86C298.997 114.644 297.173 112.953 295.881 110.787C294.627 108.583 294 105.999 294 103.035C294 100.147 294.608 97.62 295.824 95.454C297.04 93.25 298.731 91.54 300.897 90.324C303.101 89.07 305.59 88.443 308.364 88.443C311.1 88.443 313.456 89.032 315.432 90.21C317.408 91.35 318.928 92.984 319.992 95.112C321.094 97.24 321.645 99.767 321.645 102.693V104.859H301.068V100.413H315.432L314.52 101.211C314.52 98.893 314.007 97.145 312.981 95.967C311.993 94.751 310.568 94.143 308.706 94.143C307.3 94.143 306.103 94.466 305.115 95.112C304.127 95.758 303.367 96.689 302.835 97.905C302.303 99.121 302.037 100.584 302.037 102.294V102.75C302.037 104.688 302.322 106.284 302.892 107.538C303.5 108.754 304.393 109.666 305.571 110.274C306.787 110.882 308.288 111.186 310.074 111.186C311.594 111.186 313.133 110.958 314.691 110.502C316.249 110.046 317.655 109.343 318.909 108.393L321.189 114.15C319.783 115.214 318.054 116.069 316.002 116.715C313.988 117.323 311.955 117.627 309.903 117.627ZM326.765 117V89.013H335.201V94.257H334.574C335.068 93.079 335.752 92.053 336.626 91.179C337.5 90.305 338.545 89.64 339.761 89.184C340.977 88.69 342.307 88.443 343.751 88.443C345.917 88.443 347.722 88.956 349.166 89.982C350.61 91.008 351.636 92.585 352.244 94.713H351.446C352.282 92.775 353.555 91.255 355.265 90.153C357.013 89.013 359.008 88.443 361.25 88.443C363.416 88.443 365.183 88.88 366.551 89.754C367.957 90.59 369.002 91.882 369.686 93.63C370.37 95.34 370.712 97.525 370.712 100.185V117H362.105V100.47C362.105 98.608 361.801 97.259 361.193 96.423C360.623 95.549 359.635 95.112 358.229 95.112C357.165 95.112 356.234 95.378 355.436 95.91C354.638 96.404 354.03 97.145 353.612 98.133C353.232 99.083 353.042 100.261 353.042 101.667V117H344.435V100.47C344.435 98.608 344.131 97.259 343.523 96.423C342.953 95.549 341.965 95.112 340.559 95.112C339.457 95.112 338.526 95.378 337.766 95.91C337.006 96.404 336.417 97.145 335.999 98.133C335.581 99.083 335.372 100.261 335.372 101.667V117H326.765ZM391.84 117.627C388.534 117.627 385.684 117.038 383.29 115.86C380.934 114.644 379.11 112.953 377.818 110.787C376.564 108.583 375.937 105.999 375.937 103.035C375.937 100.147 376.545 97.62 377.761 95.454C378.977 93.25 380.668 91.54 382.834 90.324C385.038 89.07 387.527 88.443 390.301 88.443C393.037 88.443 395.393 89.032 397.369 90.21C399.345 91.35 400.865 92.984 401.929 95.112C403.031 97.24 403.582 99.767 403.582 102.693V104.859H383.005V100.413H397.369L396.457 101.211C396.457 98.893 395.944 97.145 394.918 95.967C393.93 94.751 392.505 94.143 390.643 94.143C389.237 94.143 388.04 94.466 387.052 95.112C386.064 95.758 385.304 96.689 384.772 97.905C384.24 99.121 383.974 100.584 383.974 102.294V102.75C383.974 104.688 384.259 106.284 384.829 107.538C385.437 108.754 386.33 109.666 387.508 110.274C388.724 110.882 390.225 111.186 392.011 111.186C393.531 111.186 395.07 110.958 396.628 110.502C398.186 110.046 399.592 109.343 400.846 108.393L403.126 114.15C401.72 115.214 399.991 116.069 397.939 116.715C395.925 117.323 393.892 117.627 391.84 117.627ZM408.588 117V89.013H417.024V94.257H416.397C417.271 92.395 418.563 90.97 420.273 89.982C422.021 88.956 423.997 88.443 426.201 88.443C428.443 88.443 430.286 88.88 431.73 89.754C433.174 90.59 434.257 91.882 434.979 93.63C435.701 95.34 436.062 97.525 436.062 100.185V117H427.455V100.584C427.455 99.292 427.284 98.247 426.942 97.449C426.638 96.613 426.163 96.024 425.517 95.682C424.909 95.302 424.13 95.112 423.18 95.112C421.964 95.112 420.9 95.378 419.988 95.91C419.114 96.404 418.43 97.126 417.936 98.076C417.442 99.026 417.195 100.128 417.195 101.382V117H408.588ZM456.225 117.627C452.235 117.627 449.271 116.658 447.333 114.72C445.395 112.782 444.426 109.932 444.426 106.17V95.454H439.125V89.013H444.426V80.805H453.033V89.013H461.298V95.454H453.033V105.828C453.033 107.424 453.394 108.621 454.116 109.419C454.876 110.217 456.073 110.616 457.707 110.616C458.201 110.616 458.714 110.559 459.246 110.445C459.816 110.331 460.424 110.179 461.07 109.989L462.324 116.259C461.526 116.677 460.576 117 459.474 117.228C458.372 117.494 457.289 117.627 456.225 117.627ZM476.249 117.627C474.615 117.627 473.038 117.494 471.518 117.228C469.998 116.962 468.611 116.601 467.357 116.145C466.103 115.689 465.001 115.119 464.051 114.435L466.103 108.849C467.053 109.419 468.079 109.932 469.181 110.388C470.321 110.806 471.499 111.129 472.715 111.357C473.931 111.585 475.128 111.699 476.306 111.699C477.94 111.699 479.118 111.452 479.84 110.958C480.6 110.426 480.98 109.742 480.98 108.906C480.98 108.146 480.733 107.576 480.239 107.196C479.745 106.816 479.023 106.55 478.073 106.398L472.088 105.315C469.732 104.897 467.908 104.042 466.616 102.75C465.362 101.42 464.735 99.729 464.735 97.677C464.735 95.777 465.267 94.143 466.331 92.775C467.395 91.369 468.858 90.305 470.72 89.583C472.62 88.823 474.767 88.443 477.161 88.443C478.529 88.443 479.859 88.557 481.151 88.785C482.443 89.013 483.659 89.355 484.799 89.811C485.977 90.267 487.022 90.875 487.934 91.635L485.768 97.164C485.046 96.594 484.191 96.1 483.203 95.682C482.215 95.264 481.208 94.941 480.182 94.713C479.156 94.447 478.187 94.314 477.275 94.314C475.565 94.314 474.33 94.599 473.57 95.169C472.81 95.701 472.43 96.385 472.43 97.221C472.43 97.867 472.639 98.418 473.057 98.874C473.513 99.292 474.197 99.577 475.109 99.729L481.094 100.812C483.564 101.23 485.445 102.066 486.737 103.32C488.029 104.536 488.675 106.208 488.675 108.336C488.675 110.274 488.162 111.946 487.136 113.352C486.11 114.72 484.666 115.784 482.804 116.544C480.942 117.266 478.757 117.627 476.249 117.627Z" fill="#151630"/>
<path d="M89.8086 13.6602L89.8818 13.7324L90.0264 13.875C90.5567 14.3962 91.0784 15.3409 90.917 16.502C90.8203 17.1955 90.4878 17.8989 89.8682 18.583H110.362V19.333C110.362 26.0804 108.41 36.473 102.553 45.8125C96.7053 55.1364 86.9683 63.3997 71.4629 65.9189L69.4307 67.6182C69.8526 67.8667 70.2582 68.1543 70.5996 68.4795C71.2075 69.0589 71.7386 69.8811 71.5723 70.8672C71.4091 71.8309 70.6253 72.6493 69.3721 73.3535C68.2007 74.0116 66.4894 74.6408 64.0996 75.2324C64.6738 79.7556 65.8145 86.2425 67.4805 91.792C68.3559 94.7078 69.3647 97.3285 70.4902 99.2627C71.6429 101.243 72.8 102.299 73.8838 102.477L74.3027 102.545L74.5127 102.579V108.534L74.5234 108.663C74.5782 109.014 74.8535 109.686 75.751 109.989L75.7734 109.997L75.7842 110.001L75.7939 110.005L75.8164 110.015L75.8193 110.017C76.3641 110.262 77.113 111.04 76.917 112.32V116.373H33.4453V112.32C33.2494 111.04 33.9984 110.262 34.543 110.017L34.5459 110.015L34.5684 110.005L34.5781 110.001L34.5889 109.997L34.6113 109.989C35.5093 109.686 35.7842 109.014 35.8389 108.663L35.8496 108.534V102.579L36.0596 102.545L36.4785 102.477C37.5624 102.299 38.7193 101.243 39.8721 99.2627C40.9977 97.3285 42.0064 94.7079 42.8818 91.792C44.5479 86.2425 45.6885 79.7556 46.2627 75.2324C43.8728 74.6408 42.1616 74.0116 40.9902 73.3535C39.7371 72.6494 38.9531 71.8309 38.79 70.8672C38.6237 69.8812 39.155 69.0588 39.7627 68.4795C40.104 68.1543 40.5096 67.8667 40.9316 67.6182L38.8994 65.9189C23.3941 63.3996 13.6569 55.1365 7.80957 45.8125C1.95264 36.4729 5.99176e-05 26.0803 0 19.333V18.583H20.4941C19.8745 17.899 19.542 17.1955 19.4453 16.502C19.2839 15.3411 19.8057 14.3962 20.3359 13.875L20.4805 13.7324L20.5537 13.6602H89.8086ZM9.56641 26.2773C12.3241 45.5862 25.8691 54.8171 33.127 57.3818C30.0832 53.9232 27.7029 48.2701 25.9463 42.5225C24.0924 36.4564 22.9188 30.2396 22.3926 26.2773H9.56641ZM87.9707 26.2773C87.4445 30.2396 86.2709 36.4564 84.417 42.5225C82.6604 48.2701 80.2801 53.9232 77.2363 57.3818C84.4941 54.8171 98.0382 45.5861 100.796 26.2773H87.9707Z" fill="url(#paint0_linear_2021_1716)"/>
<path d="M55.6356 25.8578L65.4523 31.6069V43.1052L55.6356 48.8544L45.8188 43.1052V31.6069L55.6356 25.8578Z" fill="url(#paint1_linear_2021_1716)" stroke="#6763A1" stroke-linejoin="round"/>
<path opacity="0.5" d="M55.6356 25.8578L65.4523 31.6069V43.1052L55.6356 48.8544L45.8188 43.1052V31.6069L55.6356 25.8578Z" fill="url(#paint2_linear_2021_1716)"/>
<path d="M55.6351 25.8578L65.4518 31.6069V43.1052L55.6351 48.8544L45.8184 43.1052V31.6069L55.6351 25.8578Z" fill="url(#paint3_linear_2021_1716)" stroke="#736FA1" stroke-linejoin="round"/>
<path d="M55.635 30.1165L61.1836 33.7363V41.4018L55.635 45.0216L50.0864 41.4018V33.7363L55.635 30.1165Z" fill="white" fill-opacity="0.2"/>
<path opacity="0.5" d="M55.6351 25.8578L65.4518 31.6069V43.1052L55.6351 48.8544L45.8184 43.1052V31.6069L55.6351 25.8578Z" fill="url(#paint4_linear_2021_1716)"/>
<defs>
<linearGradient id="paint0_linear_2021_1716" x1="0" y1="65.0166" x2="110.362" y2="65.0166" gradientUnits="userSpaceOnUse">
<stop stop-color="#DAA33A"/>
<stop offset="0.25" stop-color="#D2C8B6"/>
<stop offset="0.5" stop-color="#FFA000"/>
<stop offset="0.75" stop-color="#DED2C0"/>
<stop offset="1" stop-color="#F8CD92"/>
</linearGradient>
<linearGradient id="paint1_linear_2021_1716" x1="45.8188" y1="25.8578" x2="68.5309" y2="45.2483" gradientUnits="userSpaceOnUse">
<stop stop-color="#E91E63"/>
<stop offset="0.2" stop-color="#9C27B0"/>
<stop offset="0.4" stop-color="#3F51B5"/>
<stop offset="0.6" stop-color="#2196F3"/>
<stop offset="0.8" stop-color="#00BCD4"/>
<stop offset="1" stop-color="#4CAF50"/>
</linearGradient>
<linearGradient id="paint2_linear_2021_1716" x1="45.8188" y1="25.8578" x2="68.5309" y2="45.2483" gradientUnits="userSpaceOnUse">
<stop stop-color="white" stop-opacity="0"/>
<stop offset="0.45" stop-color="white" stop-opacity="0"/>
<stop offset="0.55" stop-color="white" stop-opacity="0.4"/>
<stop offset="0.7" stop-color="white" stop-opacity="0"/>
<stop offset="1" stop-color="white" stop-opacity="0"/>
</linearGradient>
<linearGradient id="paint3_linear_2021_1716" x1="45.8184" y1="25.8578" x2="68.5304" y2="45.2483" gradientUnits="userSpaceOnUse">
<stop stop-color="#E91E63"/>
<stop offset="0.2" stop-color="#9C27B0"/>
<stop offset="0.4" stop-color="#3F51B5"/>
<stop offset="0.6" stop-color="#2196F3"/>
<stop offset="0.8" stop-color="#00BCD4"/>
<stop offset="1" stop-color="#4CAF50"/>
</linearGradient>
<linearGradient id="paint4_linear_2021_1716" x1="45.8184" y1="25.8578" x2="68.5304" y2="45.2483" gradientUnits="userSpaceOnUse">
<stop stop-color="white" stop-opacity="0"/>
<stop offset="0.45" stop-color="white" stop-opacity="0"/>
<stop offset="0.55" stop-color="white" stop-opacity="0.4"/>
<stop offset="0.7" stop-color="white" stop-opacity="0"/>
<stop offset="1" stop-color="white" stop-opacity="0"/>
</linearGradient>
</defs>
</svg>
