<svg width="494" height="136" viewBox="0 0 494 136" fill="none" xmlns="http://www.w3.org/2000/svg">
<path d="M131.261 58V17.815H149.615C152.617 17.815 155.163 18.328 157.253 19.354C159.343 20.38 160.92 21.843 161.984 23.743C163.086 25.643 163.637 27.942 163.637 30.64C163.637 33.338 163.086 35.656 161.984 37.594C160.92 39.494 159.343 40.957 157.253 41.983C155.163 43.009 152.617 43.522 149.615 43.522H140.096V58H131.261ZM140.096 36.682H148.133C150.413 36.682 152.142 36.169 153.32 35.143C154.536 34.117 155.144 32.616 155.144 30.64C155.144 28.664 154.536 27.182 153.32 26.194C152.142 25.206 150.413 24.712 148.133 24.712H140.096V36.682ZM178.803 58.627C175.193 58.627 172.552 57.696 170.88 55.834C169.208 53.934 168.372 51.122 168.372 47.398V17.815H176.979V47.056C176.979 48.006 177.131 48.842 177.435 49.564C177.739 50.248 178.176 50.761 178.746 51.103C179.354 51.445 180.114 51.616 181.026 51.616C181.406 51.616 181.805 51.597 182.223 51.559C182.641 51.521 183.04 51.445 183.42 51.331L183.306 58C182.584 58.19 181.843 58.342 181.083 58.456C180.361 58.57 179.601 58.627 178.803 58.627ZM196.815 58.627C194.763 58.627 192.92 58.228 191.286 57.43C189.652 56.632 188.379 55.549 187.467 54.181C186.555 52.813 186.099 51.274 186.099 49.564C186.099 47.512 186.631 45.897 187.695 44.719C188.759 43.503 190.488 42.648 192.882 42.154C195.276 41.622 198.449 41.356 202.401 41.356H205.422V45.802H202.458C200.976 45.802 199.722 45.859 198.696 45.973C197.708 46.087 196.891 46.296 196.245 46.6C195.599 46.866 195.124 47.208 194.82 47.626C194.554 48.044 194.421 48.576 194.421 49.222C194.421 50.286 194.782 51.16 195.504 51.844C196.264 52.528 197.347 52.87 198.753 52.87C199.855 52.87 200.824 52.623 201.66 52.129C202.534 51.597 203.218 50.894 203.712 50.02C204.206 49.108 204.453 48.082 204.453 46.942V40.387C204.453 38.715 204.073 37.537 203.313 36.853C202.553 36.131 201.261 35.77 199.437 35.77C197.917 35.77 196.302 36.017 194.592 36.511C192.92 36.967 191.248 37.67 189.576 38.62L187.239 32.863C188.227 32.179 189.424 31.59 190.83 31.096C192.274 30.564 193.775 30.165 195.333 29.899C196.891 29.595 198.373 29.443 199.779 29.443C202.705 29.443 205.099 29.88 206.961 30.754C208.861 31.59 210.286 32.901 211.236 34.687C212.186 36.435 212.661 38.696 212.661 41.47V58H204.624V52.357H205.023C204.795 53.649 204.301 54.77 203.541 55.72C202.819 56.632 201.888 57.354 200.748 57.886C199.608 58.38 198.297 58.627 196.815 58.627ZM220.97 68.26L227.126 54.751V58.285L214.814 30.013H223.877L231.8 50.077H229.976L238.127 30.013H246.677L229.748 68.26H220.97ZM249.196 58V30.013H257.632V35.257H257.005C257.879 33.395 259.171 31.97 260.881 30.982C262.629 29.956 264.605 29.443 266.809 29.443C269.051 29.443 270.894 29.88 272.338 30.754C273.782 31.59 274.865 32.882 275.587 34.63C276.309 36.34 276.67 38.525 276.67 41.185V58H268.063V41.584C268.063 40.292 267.892 39.247 267.55 38.449C267.246 37.613 266.771 37.024 266.125 36.682C265.517 36.302 264.738 36.112 263.788 36.112C262.572 36.112 261.508 36.378 260.596 36.91C259.722 37.404 259.038 38.126 258.544 39.076C258.05 40.026 257.803 41.128 257.803 42.382V58H249.196ZM282.754 24.598V16.561H292.045V24.598H282.754ZM283.096 58V30.013H291.703V58H283.096ZM312.085 58.627C308.095 58.627 305.131 57.658 303.193 55.72C301.255 53.782 300.286 50.932 300.286 47.17V36.454H294.985V30.013H300.286V21.805H308.893V30.013H317.158V36.454H308.893V46.828C308.893 48.424 309.254 49.621 309.976 50.419C310.736 51.217 311.933 51.616 313.567 51.616C314.061 51.616 314.574 51.559 315.106 51.445C315.676 51.331 316.284 51.179 316.93 50.989L318.184 57.259C317.386 57.677 316.436 58 315.334 58.228C314.232 58.494 313.149 58.627 312.085 58.627ZM335.649 58.627C332.343 58.627 329.493 58.038 327.099 56.86C324.743 55.644 322.919 53.953 321.627 51.787C320.373 49.583 319.746 46.999 319.746 44.035C319.746 41.147 320.354 38.62 321.57 36.454C322.786 34.25 324.477 32.54 326.643 31.324C328.847 30.07 331.336 29.443 334.11 29.443C336.846 29.443 339.202 30.032 341.178 31.21C343.154 32.35 344.674 33.984 345.738 36.112C346.84 38.24 347.391 40.767 347.391 43.693V45.859H326.814V41.413H341.178L340.266 42.211C340.266 39.893 339.753 38.145 338.727 36.967C337.739 35.751 336.314 35.143 334.452 35.143C333.046 35.143 331.849 35.466 330.861 36.112C329.873 36.758 329.113 37.689 328.581 38.905C328.049 40.121 327.783 41.584 327.783 43.294V43.75C327.783 45.688 328.068 47.284 328.638 48.538C329.246 49.754 330.139 50.666 331.317 51.274C332.533 51.882 334.034 52.186 335.82 52.186C337.34 52.186 338.879 51.958 340.437 51.502C341.995 51.046 343.401 50.343 344.655 49.393L346.935 55.15C345.529 56.214 343.8 57.069 341.748 57.715C339.734 58.323 337.701 58.627 335.649 58.627Z" fill="#151630"/>
<path d="M112.632 117L131.1 76.815H138.225L156.693 117H147.801L143.013 105.828L146.547 108.279H122.778L126.312 105.828L121.581 117H112.632ZM134.577 86.22L127.281 103.605L125.742 101.382H143.583L142.044 103.605L134.691 86.22H134.577ZM172.769 117.627C169.729 117.627 167.069 117.038 164.789 115.86C162.547 114.644 160.818 112.934 159.602 110.73C158.386 108.526 157.778 105.923 157.778 102.921C157.778 99.919 158.386 97.335 159.602 95.169C160.818 93.003 162.547 91.35 164.789 90.21C167.069 89.032 169.729 88.443 172.769 88.443C174.593 88.443 176.398 88.709 178.184 89.241C180.008 89.773 181.49 90.533 182.63 91.521L180.236 97.449C179.324 96.689 178.26 96.1 177.044 95.682C175.828 95.226 174.688 94.998 173.624 94.998C171.382 94.998 169.634 95.701 168.38 97.107C167.164 98.475 166.556 100.432 166.556 102.978C166.556 105.486 167.164 107.462 168.38 108.906C169.634 110.312 171.382 111.015 173.624 111.015C174.688 111.015 175.828 110.806 177.044 110.388C178.26 109.97 179.324 109.362 180.236 108.564L182.63 114.492C181.49 115.442 180.008 116.202 178.184 116.772C176.36 117.342 174.555 117.627 172.769 117.627ZM186.366 117V76.815H194.973V94.257H194.175C195.049 92.395 196.341 90.97 198.051 89.982C199.799 88.956 201.775 88.443 203.979 88.443C206.221 88.443 208.064 88.88 209.508 89.754C210.952 90.59 212.035 91.882 212.757 93.63C213.479 95.34 213.84 97.525 213.84 100.185V117H205.233V100.584C205.233 99.292 205.062 98.247 204.72 97.449C204.416 96.613 203.941 96.024 203.295 95.682C202.687 95.302 201.908 95.112 200.958 95.112C199.742 95.112 198.678 95.378 197.766 95.91C196.892 96.404 196.208 97.126 195.714 98.076C195.22 99.026 194.973 100.128 194.973 101.382V117H186.366ZM219.923 83.598V75.561H229.214V83.598H219.923ZM220.265 117V89.013H228.872V117H220.265ZM250.052 117.627C246.746 117.627 243.896 117.038 241.502 115.86C239.146 114.644 237.322 112.953 236.03 110.787C234.776 108.583 234.149 105.999 234.149 103.035C234.149 100.147 234.757 97.62 235.973 95.454C237.189 93.25 238.88 91.54 241.046 90.324C243.25 89.07 245.739 88.443 248.513 88.443C251.249 88.443 253.605 89.032 255.581 90.21C257.557 91.35 259.077 92.984 260.141 95.112C261.243 97.24 261.794 99.767 261.794 102.693V104.859H241.217V100.413H255.581L254.669 101.211C254.669 98.893 254.156 97.145 253.13 95.967C252.142 94.751 250.717 94.143 248.855 94.143C247.449 94.143 246.252 94.466 245.264 95.112C244.276 95.758 243.516 96.689 242.984 97.905C242.452 99.121 242.186 100.584 242.186 102.294V102.75C242.186 104.688 242.471 106.284 243.041 107.538C243.649 108.754 244.542 109.666 245.72 110.274C246.936 110.882 248.437 111.186 250.223 111.186C251.743 111.186 253.282 110.958 254.84 110.502C256.398 110.046 257.804 109.343 259.058 108.393L261.338 114.15C259.932 115.214 258.203 116.069 256.151 116.715C254.137 117.323 252.104 117.627 250.052 117.627ZM274.565 117L262.367 89.013H271.43L279.296 109.077H277.472L285.68 89.013H294.173L281.804 117H274.565ZM310.615 117.627C307.309 117.627 304.459 117.038 302.065 115.86C299.709 114.644 297.885 112.953 296.593 110.787C295.339 108.583 294.712 105.999 294.712 103.035C294.712 100.147 295.32 97.62 296.536 95.454C297.752 93.25 299.443 91.54 301.609 90.324C303.813 89.07 306.302 88.443 309.076 88.443C311.812 88.443 314.168 89.032 316.144 90.21C318.12 91.35 319.64 92.984 320.704 95.112C321.806 97.24 322.357 99.767 322.357 102.693V104.859H301.78V100.413H316.144L315.232 101.211C315.232 98.893 314.719 97.145 313.693 95.967C312.705 94.751 311.28 94.143 309.418 94.143C308.012 94.143 306.815 94.466 305.827 95.112C304.839 95.758 304.079 96.689 303.547 97.905C303.015 99.121 302.749 100.584 302.749 102.294V102.75C302.749 104.688 303.034 106.284 303.604 107.538C304.212 108.754 305.105 109.666 306.283 110.274C307.499 110.882 309 111.186 310.786 111.186C312.306 111.186 313.845 110.958 315.403 110.502C316.961 110.046 318.367 109.343 319.621 108.393L321.901 114.15C320.495 115.214 318.766 116.069 316.714 116.715C314.7 117.323 312.667 117.627 310.615 117.627ZM327.477 117V89.013H335.913V94.257H335.286C335.78 93.079 336.464 92.053 337.338 91.179C338.212 90.305 339.257 89.64 340.473 89.184C341.689 88.69 343.019 88.443 344.463 88.443C346.629 88.443 348.434 88.956 349.878 89.982C351.322 91.008 352.348 92.585 352.956 94.713H352.158C352.994 92.775 354.267 91.255 355.977 90.153C357.725 89.013 359.72 88.443 361.962 88.443C364.128 88.443 365.895 88.88 367.263 89.754C368.669 90.59 369.714 91.882 370.398 93.63C371.082 95.34 371.424 97.525 371.424 100.185V117H362.817V100.47C362.817 98.608 362.513 97.259 361.905 96.423C361.335 95.549 360.347 95.112 358.941 95.112C357.877 95.112 356.946 95.378 356.148 95.91C355.35 96.404 354.742 97.145 354.324 98.133C353.944 99.083 353.754 100.261 353.754 101.667V117H345.147V100.47C345.147 98.608 344.843 97.259 344.235 96.423C343.665 95.549 342.677 95.112 341.271 95.112C340.169 95.112 339.238 95.378 338.478 95.91C337.718 96.404 337.129 97.145 336.711 98.133C336.293 99.083 336.084 100.261 336.084 101.667V117H327.477ZM392.552 117.627C389.246 117.627 386.396 117.038 384.002 115.86C381.646 114.644 379.822 112.953 378.53 110.787C377.276 108.583 376.649 105.999 376.649 103.035C376.649 100.147 377.257 97.62 378.473 95.454C379.689 93.25 381.38 91.54 383.546 90.324C385.75 89.07 388.239 88.443 391.013 88.443C393.749 88.443 396.105 89.032 398.081 90.21C400.057 91.35 401.577 92.984 402.641 95.112C403.743 97.24 404.294 99.767 404.294 102.693V104.859H383.717V100.413H398.081L397.169 101.211C397.169 98.893 396.656 97.145 395.63 95.967C394.642 94.751 393.217 94.143 391.355 94.143C389.949 94.143 388.752 94.466 387.764 95.112C386.776 95.758 386.016 96.689 385.484 97.905C384.952 99.121 384.686 100.584 384.686 102.294V102.75C384.686 104.688 384.971 106.284 385.541 107.538C386.149 108.754 387.042 109.666 388.22 110.274C389.436 110.882 390.937 111.186 392.723 111.186C394.243 111.186 395.782 110.958 397.34 110.502C398.898 110.046 400.304 109.343 401.558 108.393L403.838 114.15C402.432 115.214 400.703 116.069 398.651 116.715C396.637 117.323 394.604 117.627 392.552 117.627ZM409.301 117V89.013H417.737V94.257H417.11C417.984 92.395 419.276 90.97 420.986 89.982C422.734 88.956 424.71 88.443 426.914 88.443C429.156 88.443 430.999 88.88 432.443 89.754C433.887 90.59 434.97 91.882 435.692 93.63C436.414 95.34 436.775 97.525 436.775 100.185V117H428.168V100.584C428.168 99.292 427.997 98.247 427.655 97.449C427.351 96.613 426.876 96.024 426.23 95.682C425.622 95.302 424.843 95.112 423.893 95.112C422.677 95.112 421.613 95.378 420.701 95.91C419.827 96.404 419.143 97.126 418.649 98.076C418.155 99.026 417.908 100.128 417.908 101.382V117H409.301ZM456.937 117.627C452.947 117.627 449.983 116.658 448.045 114.72C446.107 112.782 445.138 109.932 445.138 106.17V95.454H439.837V89.013H445.138V80.805H453.745V89.013H462.01V95.454H453.745V105.828C453.745 107.424 454.106 108.621 454.828 109.419C455.588 110.217 456.785 110.616 458.419 110.616C458.913 110.616 459.426 110.559 459.958 110.445C460.528 110.331 461.136 110.179 461.782 109.989L463.036 116.259C462.238 116.677 461.288 117 460.186 117.228C459.084 117.494 458.001 117.627 456.937 117.627ZM476.961 117.627C475.327 117.627 473.75 117.494 472.23 117.228C470.71 116.962 469.323 116.601 468.069 116.145C466.815 115.689 465.713 115.119 464.763 114.435L466.815 108.849C467.765 109.419 468.791 109.932 469.893 110.388C471.033 110.806 472.211 111.129 473.427 111.357C474.643 111.585 475.84 111.699 477.018 111.699C478.652 111.699 479.83 111.452 480.552 110.958C481.312 110.426 481.692 109.742 481.692 108.906C481.692 108.146 481.445 107.576 480.951 107.196C480.457 106.816 479.735 106.55 478.785 106.398L472.8 105.315C470.444 104.897 468.62 104.042 467.328 102.75C466.074 101.42 465.447 99.729 465.447 97.677C465.447 95.777 465.979 94.143 467.043 92.775C468.107 91.369 469.57 90.305 471.432 89.583C473.332 88.823 475.479 88.443 477.873 88.443C479.241 88.443 480.571 88.557 481.863 88.785C483.155 89.013 484.371 89.355 485.511 89.811C486.689 90.267 487.734 90.875 488.646 91.635L486.48 97.164C485.758 96.594 484.903 96.1 483.915 95.682C482.927 95.264 481.92 94.941 480.894 94.713C479.868 94.447 478.899 94.314 477.987 94.314C476.277 94.314 475.042 94.599 474.282 95.169C473.522 95.701 473.142 96.385 473.142 97.221C473.142 97.867 473.351 98.418 473.769 98.874C474.225 99.292 474.909 99.577 475.821 99.729L481.806 100.812C484.276 101.23 486.157 102.066 487.449 103.32C488.741 104.536 489.387 106.208 489.387 108.336C489.387 110.274 488.874 111.946 487.848 113.352C486.822 114.72 485.378 115.784 483.516 116.544C481.654 117.266 479.469 117.627 476.961 117.627Z" fill="#151630"/>
<path d="M56.085 13.4512H89.9531L90.0996 13.5957L90.2451 13.7393L90.3525 13.8506C90.885 14.4315 91.3676 15.4007 91.2041 16.5762C91.1197 17.1809 90.8708 17.783 90.4395 18.3682H110.607V19.3682C110.607 26.1458 108.65 36.5726 102.778 45.9453C96.9197 55.2963 87.1664 63.5842 71.6602 66.127L69.9482 67.5596C70.2734 67.7707 70.5855 68.0046 70.8594 68.2656V68.2666C71.4909 68.8691 72.0916 69.7688 71.9053 70.874C71.7233 71.9489 70.859 72.8191 69.5859 73.5352C68.4255 74.1878 66.7608 74.8021 64.4775 75.3799C65.0581 79.8773 66.1852 86.2226 67.8154 91.6582C68.6865 94.5621 69.6865 97.1578 70.7949 99.0645C71.9398 101.033 73.0433 101.995 74.0039 102.152H74.0049L74.4238 102.222L74.8418 102.291V108.448C74.8422 108.648 75.0073 109.36 75.9033 109.664H75.9043L75.9482 109.679L75.9688 109.688L75.9912 109.697L75.998 109.7C76.6249 109.984 77.4436 110.853 77.2402 112.246V116.528H54.5225V116.526H33.3672V112.244C33.1642 110.851 33.982 109.981 34.6094 109.698L34.6162 109.695L34.6387 109.686L34.6592 109.677L34.7031 109.662C35.4882 109.396 35.7128 108.817 35.7568 108.544L35.7656 108.447V102.289L36.1836 102.22L36.6025 102.15H36.6035C37.5643 101.993 38.6676 101.032 39.8125 99.0625C40.921 97.1556 41.921 94.5602 42.792 91.6562C44.4223 86.2204 45.5484 79.8752 46.1289 75.3779C44.1493 74.8769 42.6346 74.3496 41.5107 73.792L41.0215 73.5332C39.8278 72.8617 38.9933 72.0557 38.7441 71.0713L38.7021 70.8721C38.5162 69.767 39.1161 68.8664 39.748 68.2637C40.0217 68.0028 40.3333 67.7686 40.6582 67.5576L38.9463 66.125C23.4402 63.5821 13.6876 55.2944 7.8291 45.9434C1.95713 36.5704 0 26.1437 0 19.3662V18.3662H20.168C19.7366 17.7812 19.4876 17.1791 19.4033 16.5742V16.5732C19.2294 15.3194 19.7896 14.3008 20.3623 13.7373L20.3633 13.7363L20.5098 13.5928L20.6553 13.4502H56.085V13.4512ZM88.2344 26.5537C87.6943 30.5297 86.5306 36.6365 84.71 42.5996C83.0746 47.9557 80.8881 53.2674 78.1055 56.7969C85.4047 53.8671 97.8065 44.7744 100.521 26.5537H88.2344ZM10.0859 26.5527C12.8007 44.7726 25.2007 53.8656 32.5 56.7959C29.7176 53.2663 27.5316 47.9545 25.8965 42.5986C24.076 36.6355 22.9131 30.5287 22.373 26.5527H10.0859ZM56.002 26.666C55.8683 26.5906 55.7084 26.581 55.5684 26.6377L55.5098 26.666L46.4316 31.7988C46.2749 31.8876 46.1777 32.0542 46.1777 32.2344V42.499C46.1778 42.6792 46.2748 42.8459 46.4316 42.9346L55.5098 48.0664C55.6624 48.1527 55.8493 48.1526 56.002 48.0664L65.0801 42.9346C65.2369 42.8459 65.3339 42.6792 65.334 42.499V32.2344C65.334 32.0541 65.237 31.8875 65.0801 31.7988L56.002 26.666Z" fill="url(#paint0_linear_2021_1737)"/>
<defs>
<linearGradient id="paint0_linear_2021_1737" x1="0" y1="64.9893" x2="110.607" y2="64.9893" gradientUnits="userSpaceOnUse">
<stop stop-color="#4E77D4"/>
<stop offset="1" stop-color="#79A3D7"/>
</linearGradient>
</defs>
</svg>
