<svg width="494" height="136" viewBox="0 0 494 136" fill="none" xmlns="http://www.w3.org/2000/svg">
<path d="M130.179 58V17.815H148.533C151.535 17.815 154.081 18.328 156.171 19.354C158.261 20.38 159.838 21.843 160.902 23.743C162.004 25.643 162.555 27.942 162.555 30.64C162.555 33.338 162.004 35.656 160.902 37.594C159.838 39.494 158.261 40.957 156.171 41.983C154.081 43.009 151.535 43.522 148.533 43.522H139.014V58H130.179ZM139.014 36.682H147.051C149.331 36.682 151.06 36.169 152.238 35.143C153.454 34.117 154.062 32.616 154.062 30.64C154.062 28.664 153.454 27.182 152.238 26.194C151.06 25.206 149.331 24.712 147.051 24.712H139.014V36.682ZM177.721 58.627C174.111 58.627 171.47 57.696 169.798 55.834C168.126 53.934 167.29 51.122 167.29 47.398V17.815H175.897V47.056C175.897 48.006 176.049 48.842 176.353 49.564C176.657 50.248 177.094 50.761 177.664 51.103C178.272 51.445 179.032 51.616 179.944 51.616C180.324 51.616 180.723 51.597 181.141 51.559C181.559 51.521 181.958 51.445 182.338 51.331L182.224 58C181.502 58.19 180.761 58.342 180.001 58.456C179.279 58.57 178.519 58.627 177.721 58.627ZM195.733 58.627C193.681 58.627 191.838 58.228 190.204 57.43C188.57 56.632 187.297 55.549 186.385 54.181C185.473 52.813 185.017 51.274 185.017 49.564C185.017 47.512 185.549 45.897 186.613 44.719C187.677 43.503 189.406 42.648 191.8 42.154C194.194 41.622 197.367 41.356 201.319 41.356H204.34V45.802H201.376C199.894 45.802 198.64 45.859 197.614 45.973C196.626 46.087 195.809 46.296 195.163 46.6C194.517 46.866 194.042 47.208 193.738 47.626C193.472 48.044 193.339 48.576 193.339 49.222C193.339 50.286 193.7 51.16 194.422 51.844C195.182 52.528 196.265 52.87 197.671 52.87C198.773 52.87 199.742 52.623 200.578 52.129C201.452 51.597 202.136 50.894 202.63 50.02C203.124 49.108 203.371 48.082 203.371 46.942V40.387C203.371 38.715 202.991 37.537 202.231 36.853C201.471 36.131 200.179 35.77 198.355 35.77C196.835 35.77 195.22 36.017 193.51 36.511C191.838 36.967 190.166 37.67 188.494 38.62L186.157 32.863C187.145 32.179 188.342 31.59 189.748 31.096C191.192 30.564 192.693 30.165 194.251 29.899C195.809 29.595 197.291 29.443 198.697 29.443C201.623 29.443 204.017 29.88 205.879 30.754C207.779 31.59 209.204 32.901 210.154 34.687C211.104 36.435 211.579 38.696 211.579 41.47V58H203.542V52.357H203.941C203.713 53.649 203.219 54.77 202.459 55.72C201.737 56.632 200.806 57.354 199.666 57.886C198.526 58.38 197.215 58.627 195.733 58.627ZM219.888 68.26L226.044 54.751V58.285L213.732 30.013H222.795L230.718 50.077H228.894L237.045 30.013H245.595L228.666 68.26H219.888ZM248.114 58V30.013H256.55V35.257H255.923C256.797 33.395 258.089 31.97 259.799 30.982C261.547 29.956 263.523 29.443 265.727 29.443C267.969 29.443 269.812 29.88 271.256 30.754C272.7 31.59 273.783 32.882 274.505 34.63C275.227 36.34 275.588 38.525 275.588 41.185V58H266.981V41.584C266.981 40.292 266.81 39.247 266.468 38.449C266.164 37.613 265.689 37.024 265.043 36.682C264.435 36.302 263.656 36.112 262.706 36.112C261.49 36.112 260.426 36.378 259.514 36.91C258.64 37.404 257.956 38.126 257.462 39.076C256.968 40.026 256.721 41.128 256.721 42.382V58H248.114ZM281.672 24.598V16.561H290.963V24.598H281.672ZM282.014 58V30.013H290.621V58H282.014ZM311.002 58.627C307.012 58.627 304.048 57.658 302.11 55.72C300.172 53.782 299.203 50.932 299.203 47.17V36.454H293.902V30.013H299.203V21.805H307.81V30.013H316.075V36.454H307.81V46.828C307.81 48.424 308.171 49.621 308.893 50.419C309.653 51.217 310.85 51.616 312.484 51.616C312.978 51.616 313.491 51.559 314.023 51.445C314.593 51.331 315.201 51.179 315.847 50.989L317.101 57.259C316.303 57.677 315.353 58 314.251 58.228C313.149 58.494 312.066 58.627 311.002 58.627ZM334.567 58.627C331.261 58.627 328.411 58.038 326.017 56.86C323.661 55.644 321.837 53.953 320.545 51.787C319.291 49.583 318.664 46.999 318.664 44.035C318.664 41.147 319.272 38.62 320.488 36.454C321.704 34.25 323.395 32.54 325.561 31.324C327.765 30.07 330.254 29.443 333.028 29.443C335.764 29.443 338.12 30.032 340.096 31.21C342.072 32.35 343.592 33.984 344.656 36.112C345.758 38.24 346.309 40.767 346.309 43.693V45.859H325.732V41.413H340.096L339.184 42.211C339.184 39.893 338.671 38.145 337.645 36.967C336.657 35.751 335.232 35.143 333.37 35.143C331.964 35.143 330.767 35.466 329.779 36.112C328.791 36.758 328.031 37.689 327.499 38.905C326.967 40.121 326.701 41.584 326.701 43.294V43.75C326.701 45.688 326.986 47.284 327.556 48.538C328.164 49.754 329.057 50.666 330.235 51.274C331.451 51.882 332.952 52.186 334.738 52.186C336.258 52.186 337.797 51.958 339.355 51.502C340.913 51.046 342.319 50.343 343.573 49.393L345.853 55.15C344.447 56.214 342.718 57.069 340.666 57.715C338.652 58.323 336.619 58.627 334.567 58.627Z" fill="#151630"/>
<path d="M111.514 117L129.982 76.815H137.107L155.575 117H146.683L141.895 105.828L145.429 108.279H121.66L125.194 105.828L120.463 117H111.514ZM133.459 86.22L126.163 103.605L124.624 101.382H142.465L140.926 103.605L133.573 86.22H133.459ZM171.652 117.627C168.612 117.627 165.952 117.038 163.672 115.86C161.43 114.644 159.701 112.934 158.485 110.73C157.269 108.526 156.661 105.923 156.661 102.921C156.661 99.919 157.269 97.335 158.485 95.169C159.701 93.003 161.43 91.35 163.672 90.21C165.952 89.032 168.612 88.443 171.652 88.443C173.476 88.443 175.281 88.709 177.067 89.241C178.891 89.773 180.373 90.533 181.513 91.521L179.119 97.449C178.207 96.689 177.143 96.1 175.927 95.682C174.711 95.226 173.571 94.998 172.507 94.998C170.265 94.998 168.517 95.701 167.263 97.107C166.047 98.475 165.439 100.432 165.439 102.978C165.439 105.486 166.047 107.462 167.263 108.906C168.517 110.312 170.265 111.015 172.507 111.015C173.571 111.015 174.711 110.806 175.927 110.388C177.143 109.97 178.207 109.362 179.119 108.564L181.513 114.492C180.373 115.442 178.891 116.202 177.067 116.772C175.243 117.342 173.438 117.627 171.652 117.627ZM185.248 117V76.815H193.855V94.257H193.057C193.931 92.395 195.223 90.97 196.933 89.982C198.681 88.956 200.657 88.443 202.861 88.443C205.103 88.443 206.946 88.88 208.39 89.754C209.834 90.59 210.917 91.882 211.639 93.63C212.361 95.34 212.722 97.525 212.722 100.185V117H204.115V100.584C204.115 99.292 203.944 98.247 203.602 97.449C203.298 96.613 202.823 96.024 202.177 95.682C201.569 95.302 200.79 95.112 199.84 95.112C198.624 95.112 197.56 95.378 196.648 95.91C195.774 96.404 195.09 97.126 194.596 98.076C194.102 99.026 193.855 100.128 193.855 101.382V117H185.248ZM218.806 83.598V75.561H228.097V83.598H218.806ZM219.148 117V89.013H227.755V117H219.148ZM248.935 117.627C245.629 117.627 242.779 117.038 240.385 115.86C238.029 114.644 236.205 112.953 234.913 110.787C233.659 108.583 233.032 105.999 233.032 103.035C233.032 100.147 233.64 97.62 234.856 95.454C236.072 93.25 237.763 91.54 239.929 90.324C242.133 89.07 244.622 88.443 247.396 88.443C250.132 88.443 252.488 89.032 254.464 90.21C256.44 91.35 257.96 92.984 259.024 95.112C260.126 97.24 260.677 99.767 260.677 102.693V104.859H240.1V100.413H254.464L253.552 101.211C253.552 98.893 253.039 97.145 252.013 95.967C251.025 94.751 249.6 94.143 247.738 94.143C246.332 94.143 245.135 94.466 244.147 95.112C243.159 95.758 242.399 96.689 241.867 97.905C241.335 99.121 241.069 100.584 241.069 102.294V102.75C241.069 104.688 241.354 106.284 241.924 107.538C242.532 108.754 243.425 109.666 244.603 110.274C245.819 110.882 247.32 111.186 249.106 111.186C250.626 111.186 252.165 110.958 253.723 110.502C255.281 110.046 256.687 109.343 257.941 108.393L260.221 114.15C258.815 115.214 257.086 116.069 255.034 116.715C253.02 117.323 250.987 117.627 248.935 117.627ZM273.447 117L261.249 89.013H270.312L278.178 109.077H276.354L284.562 89.013H293.055L280.686 117H273.447ZM309.497 117.627C306.191 117.627 303.341 117.038 300.947 115.86C298.591 114.644 296.767 112.953 295.475 110.787C294.221 108.583 293.594 105.999 293.594 103.035C293.594 100.147 294.202 97.62 295.418 95.454C296.634 93.25 298.325 91.54 300.491 90.324C302.695 89.07 305.184 88.443 307.958 88.443C310.694 88.443 313.05 89.032 315.026 90.21C317.002 91.35 318.522 92.984 319.586 95.112C320.688 97.24 321.239 99.767 321.239 102.693V104.859H300.662V100.413H315.026L314.114 101.211C314.114 98.893 313.601 97.145 312.575 95.967C311.587 94.751 310.162 94.143 308.3 94.143C306.894 94.143 305.697 94.466 304.709 95.112C303.721 95.758 302.961 96.689 302.429 97.905C301.897 99.121 301.631 100.584 301.631 102.294V102.75C301.631 104.688 301.916 106.284 302.486 107.538C303.094 108.754 303.987 109.666 305.165 110.274C306.381 110.882 307.882 111.186 309.668 111.186C311.188 111.186 312.727 110.958 314.285 110.502C315.843 110.046 317.249 109.343 318.503 108.393L320.783 114.15C319.377 115.214 317.648 116.069 315.596 116.715C313.582 117.323 311.549 117.627 309.497 117.627ZM326.359 117V89.013H334.795V94.257H334.168C334.662 93.079 335.346 92.053 336.22 91.179C337.094 90.305 338.139 89.64 339.355 89.184C340.571 88.69 341.901 88.443 343.345 88.443C345.511 88.443 347.316 88.956 348.76 89.982C350.204 91.008 351.23 92.585 351.838 94.713H351.04C351.876 92.775 353.149 91.255 354.859 90.153C356.607 89.013 358.602 88.443 360.844 88.443C363.01 88.443 364.777 88.88 366.145 89.754C367.551 90.59 368.596 91.882 369.28 93.63C369.964 95.34 370.306 97.525 370.306 100.185V117H361.699V100.47C361.699 98.608 361.395 97.259 360.787 96.423C360.217 95.549 359.229 95.112 357.823 95.112C356.759 95.112 355.828 95.378 355.03 95.91C354.232 96.404 353.624 97.145 353.206 98.133C352.826 99.083 352.636 100.261 352.636 101.667V117H344.029V100.47C344.029 98.608 343.725 97.259 343.117 96.423C342.547 95.549 341.559 95.112 340.153 95.112C339.051 95.112 338.12 95.378 337.36 95.91C336.6 96.404 336.011 97.145 335.593 98.133C335.175 99.083 334.966 100.261 334.966 101.667V117H326.359ZM391.435 117.627C388.129 117.627 385.279 117.038 382.885 115.86C380.529 114.644 378.705 112.953 377.413 110.787C376.159 108.583 375.532 105.999 375.532 103.035C375.532 100.147 376.14 97.62 377.356 95.454C378.572 93.25 380.263 91.54 382.429 90.324C384.633 89.07 387.122 88.443 389.896 88.443C392.632 88.443 394.988 89.032 396.964 90.21C398.94 91.35 400.46 92.984 401.524 95.112C402.626 97.24 403.177 99.767 403.177 102.693V104.859H382.6V100.413H396.964L396.052 101.211C396.052 98.893 395.539 97.145 394.513 95.967C393.525 94.751 392.1 94.143 390.238 94.143C388.832 94.143 387.635 94.466 386.647 95.112C385.659 95.758 384.899 96.689 384.367 97.905C383.835 99.121 383.569 100.584 383.569 102.294V102.75C383.569 104.688 383.854 106.284 384.424 107.538C385.032 108.754 385.925 109.666 387.103 110.274C388.319 110.882 389.82 111.186 391.606 111.186C393.126 111.186 394.665 110.958 396.223 110.502C397.781 110.046 399.187 109.343 400.441 108.393L402.721 114.15C401.315 115.214 399.586 116.069 397.534 116.715C395.52 117.323 393.487 117.627 391.435 117.627ZM408.183 117V89.013H416.619V94.257H415.992C416.866 92.395 418.158 90.97 419.868 89.982C421.616 88.956 423.592 88.443 425.796 88.443C428.038 88.443 429.881 88.88 431.325 89.754C432.769 90.59 433.852 91.882 434.574 93.63C435.296 95.34 435.657 97.525 435.657 100.185V117H427.05V100.584C427.05 99.292 426.879 98.247 426.537 97.449C426.233 96.613 425.758 96.024 425.112 95.682C424.504 95.302 423.725 95.112 422.775 95.112C421.559 95.112 420.495 95.378 419.583 95.91C418.709 96.404 418.025 97.126 417.531 98.076C417.037 99.026 416.79 100.128 416.79 101.382V117H408.183ZM455.819 117.627C451.829 117.627 448.865 116.658 446.927 114.72C444.989 112.782 444.02 109.932 444.02 106.17V95.454H438.719V89.013H444.02V80.805H452.627V89.013H460.892V95.454H452.627V105.828C452.627 107.424 452.988 108.621 453.71 109.419C454.47 110.217 455.667 110.616 457.301 110.616C457.795 110.616 458.308 110.559 458.84 110.445C459.41 110.331 460.018 110.179 460.664 109.989L461.918 116.259C461.12 116.677 460.17 117 459.068 117.228C457.966 117.494 456.883 117.627 455.819 117.627ZM475.843 117.627C474.209 117.627 472.632 117.494 471.112 117.228C469.592 116.962 468.205 116.601 466.951 116.145C465.697 115.689 464.595 115.119 463.645 114.435L465.697 108.849C466.647 109.419 467.673 109.932 468.775 110.388C469.915 110.806 471.093 111.129 472.309 111.357C473.525 111.585 474.722 111.699 475.9 111.699C477.534 111.699 478.712 111.452 479.434 110.958C480.194 110.426 480.574 109.742 480.574 108.906C480.574 108.146 480.327 107.576 479.833 107.196C479.339 106.816 478.617 106.55 477.667 106.398L471.682 105.315C469.326 104.897 467.502 104.042 466.21 102.75C464.956 101.42 464.329 99.729 464.329 97.677C464.329 95.777 464.861 94.143 465.925 92.775C466.989 91.369 468.452 90.305 470.314 89.583C472.214 88.823 474.361 88.443 476.755 88.443C478.123 88.443 479.453 88.557 480.745 88.785C482.037 89.013 483.253 89.355 484.393 89.811C485.571 90.267 486.616 90.875 487.528 91.635L485.362 97.164C484.64 96.594 483.785 96.1 482.797 95.682C481.809 95.264 480.802 94.941 479.776 94.713C478.75 94.447 477.781 94.314 476.869 94.314C475.159 94.314 473.924 94.599 473.164 95.169C472.404 95.701 472.024 96.385 472.024 97.221C472.024 97.867 472.233 98.418 472.651 98.874C473.107 99.292 473.791 99.577 474.703 99.729L480.688 100.812C483.158 101.23 485.039 102.066 486.331 103.32C487.623 104.536 488.269 106.208 488.269 108.336C488.269 110.274 487.756 111.946 486.73 113.352C485.704 114.72 484.26 115.784 482.398 116.544C480.536 117.266 478.351 117.627 475.843 117.627Z" fill="#151630"/>
<path d="M90.1699 14.1006C90.6598 14.5832 91.1394 15.4589 90.9902 16.5322C90.8818 17.311 90.4509 18.1254 89.5693 18.9229H110.559V19.4229C110.558 26.1889 108.603 36.6237 102.738 45.998C96.8796 55.3619 87.1206 63.6617 71.5557 66.1768L69.1748 68.1738C69.7018 68.4551 70.2107 68.7956 70.6201 69.1865C71.207 69.747 71.6711 70.4952 71.5244 71.3662C71.3798 72.2222 70.6763 72.9966 69.4375 73.6943C68.2515 74.3622 66.4839 75.01 63.9717 75.6201C64.541 80.1999 65.703 86.8834 67.4131 92.5928C68.2966 95.5425 69.3182 98.208 70.4658 100.185C71.6316 102.192 72.8483 103.351 74.0605 103.55L74.4795 103.619V109.407C74.48 109.776 74.7418 110.726 75.8994 111.118L75.9229 111.126L75.9453 111.136C76.4091 111.345 77.0893 112.036 76.8994 113.211V117.058H33.6592V113.211C33.4694 112.036 34.1495 111.345 34.6133 111.136L34.6357 111.126L34.6592 111.118C35.8172 110.726 36.0787 109.776 36.0791 109.407V103.619L36.498 103.55C37.7104 103.351 38.9269 102.192 40.0928 100.185C41.2404 98.2081 42.262 95.5424 43.1455 92.5928C44.8556 86.8834 46.0176 80.1999 46.5869 75.6201C44.0744 75.0099 42.3071 74.3623 41.1211 73.6943C39.8823 72.9965 39.1787 72.2222 39.0342 71.3662C38.8876 70.4954 39.3518 69.747 39.9385 69.1865C40.3478 68.7957 40.8569 68.4551 41.3838 68.1738L39.0029 66.1768C23.4378 63.6616 13.6789 55.362 7.82031 45.998C1.95532 36.6237 0.000116765 26.1889 0 19.4229V18.9229H20.9893C20.1077 18.1254 19.6768 17.311 19.5684 16.5322C19.4192 15.4591 19.8989 14.5833 20.3887 14.1006L20.5352 13.957H90.0234L90.1699 14.1006ZM9.08105 26.1768C11.8973 46.8344 26.8272 56.2365 33.9404 58.3555C27.253 51.6812 23.5278 34.1226 22.501 26.1768H9.08105ZM88.0586 26.1768C87.0318 34.1225 83.3065 51.6811 76.6191 58.3555C83.7324 56.2364 98.6624 46.8343 101.479 26.1768H88.0586ZM55.9824 26.7666C55.8489 26.6913 55.6888 26.6817 55.5488 26.7383L55.4902 26.7666L46.3037 31.9678C46.1471 32.0565 46.0499 32.2233 46.0498 32.4033V42.8047C46.05 42.9845 46.1473 43.1505 46.3037 43.2393L55.4902 48.4404C55.6429 48.5267 55.8298 48.5267 55.9824 48.4404L65.1689 43.2393C65.3256 43.1506 65.4227 42.9846 65.4229 42.8047V32.4033C65.4227 32.2233 65.3256 32.0565 65.1689 31.9678L55.9824 26.7666Z" fill="#151630"/>
</svg>
