<svg width="494" height="136" viewBox="0 0 494 136" fill="none" xmlns="http://www.w3.org/2000/svg">
<path d="M130.104 58V17.815H148.458C151.46 17.815 154.006 18.328 156.096 19.354C158.186 20.38 159.763 21.843 160.827 23.743C161.929 25.643 162.48 27.942 162.48 30.64C162.48 33.338 161.929 35.656 160.827 37.594C159.763 39.494 158.186 40.957 156.096 41.983C154.006 43.009 151.46 43.522 148.458 43.522H138.939V58H130.104ZM138.939 36.682H146.976C149.256 36.682 150.985 36.169 152.163 35.143C153.379 34.117 153.987 32.616 153.987 30.64C153.987 28.664 153.379 27.182 152.163 26.194C150.985 25.206 149.256 24.712 146.976 24.712H138.939V36.682ZM177.646 58.627C174.036 58.627 171.395 57.696 169.723 55.834C168.051 53.934 167.215 51.122 167.215 47.398V17.815H175.822V47.056C175.822 48.006 175.974 48.842 176.278 49.564C176.582 50.248 177.019 50.761 177.589 51.103C178.197 51.445 178.957 51.616 179.869 51.616C180.249 51.616 180.648 51.597 181.066 51.559C181.484 51.521 181.883 51.445 182.263 51.331L182.149 58C181.427 58.19 180.686 58.342 179.926 58.456C179.204 58.57 178.444 58.627 177.646 58.627ZM195.658 58.627C193.606 58.627 191.763 58.228 190.129 57.43C188.495 56.632 187.222 55.549 186.31 54.181C185.398 52.813 184.942 51.274 184.942 49.564C184.942 47.512 185.474 45.897 186.538 44.719C187.602 43.503 189.331 42.648 191.725 42.154C194.119 41.622 197.292 41.356 201.244 41.356H204.265V45.802H201.301C199.819 45.802 198.565 45.859 197.539 45.973C196.551 46.087 195.734 46.296 195.088 46.6C194.442 46.866 193.967 47.208 193.663 47.626C193.397 48.044 193.264 48.576 193.264 49.222C193.264 50.286 193.625 51.16 194.347 51.844C195.107 52.528 196.19 52.87 197.596 52.87C198.698 52.87 199.667 52.623 200.503 52.129C201.377 51.597 202.061 50.894 202.555 50.02C203.049 49.108 203.296 48.082 203.296 46.942V40.387C203.296 38.715 202.916 37.537 202.156 36.853C201.396 36.131 200.104 35.77 198.28 35.77C196.76 35.77 195.145 36.017 193.435 36.511C191.763 36.967 190.091 37.67 188.419 38.62L186.082 32.863C187.07 32.179 188.267 31.59 189.673 31.096C191.117 30.564 192.618 30.165 194.176 29.899C195.734 29.595 197.216 29.443 198.622 29.443C201.548 29.443 203.942 29.88 205.804 30.754C207.704 31.59 209.129 32.901 210.079 34.687C211.029 36.435 211.504 38.696 211.504 41.47V58H203.467V52.357H203.866C203.638 53.649 203.144 54.77 202.384 55.72C201.662 56.632 200.731 57.354 199.591 57.886C198.451 58.38 197.14 58.627 195.658 58.627ZM219.812 68.26L225.968 54.751V58.285L213.656 30.013H222.719L230.642 50.077H228.818L236.969 30.013H245.519L228.59 68.26H219.812ZM248.039 58V30.013H256.475V35.257H255.848C256.722 33.395 258.014 31.97 259.724 30.982C261.472 29.956 263.448 29.443 265.652 29.443C267.894 29.443 269.737 29.88 271.181 30.754C272.625 31.59 273.708 32.882 274.43 34.63C275.152 36.34 275.513 38.525 275.513 41.185V58H266.906V41.584C266.906 40.292 266.735 39.247 266.393 38.449C266.089 37.613 265.614 37.024 264.968 36.682C264.36 36.302 263.581 36.112 262.631 36.112C261.415 36.112 260.351 36.378 259.439 36.91C258.565 37.404 257.881 38.126 257.387 39.076C256.893 40.026 256.646 41.128 256.646 42.382V58H248.039ZM281.596 24.598V16.561H290.887V24.598H281.596ZM281.938 58V30.013H290.545V58H281.938ZM310.927 58.627C306.937 58.627 303.973 57.658 302.035 55.72C300.097 53.782 299.128 50.932 299.128 47.17V36.454H293.827V30.013H299.128V21.805H307.735V30.013H316V36.454H307.735V46.828C307.735 48.424 308.096 49.621 308.818 50.419C309.578 51.217 310.775 51.616 312.409 51.616C312.903 51.616 313.416 51.559 313.948 51.445C314.518 51.331 315.126 51.179 315.772 50.989L317.026 57.259C316.228 57.677 315.278 58 314.176 58.228C313.074 58.494 311.991 58.627 310.927 58.627ZM334.492 58.627C331.186 58.627 328.336 58.038 325.942 56.86C323.586 55.644 321.762 53.953 320.47 51.787C319.216 49.583 318.589 46.999 318.589 44.035C318.589 41.147 319.197 38.62 320.413 36.454C321.629 34.25 323.32 32.54 325.486 31.324C327.69 30.07 330.179 29.443 332.953 29.443C335.689 29.443 338.045 30.032 340.021 31.21C341.997 32.35 343.517 33.984 344.581 36.112C345.683 38.24 346.234 40.767 346.234 43.693V45.859H325.657V41.413H340.021L339.109 42.211C339.109 39.893 338.596 38.145 337.57 36.967C336.582 35.751 335.157 35.143 333.295 35.143C331.889 35.143 330.692 35.466 329.704 36.112C328.716 36.758 327.956 37.689 327.424 38.905C326.892 40.121 326.626 41.584 326.626 43.294V43.75C326.626 45.688 326.911 47.284 327.481 48.538C328.089 49.754 328.982 50.666 330.16 51.274C331.376 51.882 332.877 52.186 334.663 52.186C336.183 52.186 337.722 51.958 339.28 51.502C340.838 51.046 342.244 50.343 343.498 49.393L345.778 55.15C344.372 56.214 342.643 57.069 340.591 57.715C338.577 58.323 336.544 58.627 334.492 58.627Z" fill="#151630"/>
<path d="M111.486 117L129.954 76.815H137.079L155.547 117H146.655L141.867 105.828L145.401 108.279H121.632L125.166 105.828L120.435 117H111.486ZM133.431 86.22L126.135 103.605L124.596 101.382H142.437L140.898 103.605L133.545 86.22H133.431ZM171.623 117.627C168.583 117.627 165.923 117.038 163.643 115.86C161.401 114.644 159.672 112.934 158.456 110.73C157.24 108.526 156.632 105.923 156.632 102.921C156.632 99.919 157.24 97.335 158.456 95.169C159.672 93.003 161.401 91.35 163.643 90.21C165.923 89.032 168.583 88.443 171.623 88.443C173.447 88.443 175.252 88.709 177.038 89.241C178.862 89.773 180.344 90.533 181.484 91.521L179.09 97.449C178.178 96.689 177.114 96.1 175.898 95.682C174.682 95.226 173.542 94.998 172.478 94.998C170.236 94.998 168.488 95.701 167.234 97.107C166.018 98.475 165.41 100.432 165.41 102.978C165.41 105.486 166.018 107.462 167.234 108.906C168.488 110.312 170.236 111.015 172.478 111.015C173.542 111.015 174.682 110.806 175.898 110.388C177.114 109.97 178.178 109.362 179.09 108.564L181.484 114.492C180.344 115.442 178.862 116.202 177.038 116.772C175.214 117.342 173.409 117.627 171.623 117.627ZM185.22 117V76.815H193.827V94.257H193.029C193.903 92.395 195.195 90.97 196.905 89.982C198.653 88.956 200.629 88.443 202.833 88.443C205.075 88.443 206.918 88.88 208.362 89.754C209.806 90.59 210.889 91.882 211.611 93.63C212.333 95.34 212.694 97.525 212.694 100.185V117H204.087V100.584C204.087 99.292 203.916 98.247 203.574 97.449C203.27 96.613 202.795 96.024 202.149 95.682C201.541 95.302 200.762 95.112 199.812 95.112C198.596 95.112 197.532 95.378 196.62 95.91C195.746 96.404 195.062 97.126 194.568 98.076C194.074 99.026 193.827 100.128 193.827 101.382V117H185.22ZM218.777 83.598V75.561H228.068V83.598H218.777ZM219.119 117V89.013H227.726V117H219.119ZM248.906 117.627C245.6 117.627 242.75 117.038 240.356 115.86C238 114.644 236.176 112.953 234.884 110.787C233.63 108.583 233.003 105.999 233.003 103.035C233.003 100.147 233.611 97.62 234.827 95.454C236.043 93.25 237.734 91.54 239.9 90.324C242.104 89.07 244.593 88.443 247.367 88.443C250.103 88.443 252.459 89.032 254.435 90.21C256.411 91.35 257.931 92.984 258.995 95.112C260.097 97.24 260.648 99.767 260.648 102.693V104.859H240.071V100.413H254.435L253.523 101.211C253.523 98.893 253.01 97.145 251.984 95.967C250.996 94.751 249.571 94.143 247.709 94.143C246.303 94.143 245.106 94.466 244.118 95.112C243.13 95.758 242.37 96.689 241.838 97.905C241.306 99.121 241.04 100.584 241.04 102.294V102.75C241.04 104.688 241.325 106.284 241.895 107.538C242.503 108.754 243.396 109.666 244.574 110.274C245.79 110.882 247.291 111.186 249.077 111.186C250.597 111.186 252.136 110.958 253.694 110.502C255.252 110.046 256.658 109.343 257.912 108.393L260.192 114.15C258.786 115.214 257.057 116.069 255.005 116.715C252.991 117.323 250.958 117.627 248.906 117.627ZM273.419 117L261.221 89.013H270.284L278.15 109.077H276.326L284.534 89.013H293.027L280.658 117H273.419ZM309.469 117.627C306.163 117.627 303.313 117.038 300.919 115.86C298.563 114.644 296.739 112.953 295.447 110.787C294.193 108.583 293.566 105.999 293.566 103.035C293.566 100.147 294.174 97.62 295.39 95.454C296.606 93.25 298.297 91.54 300.463 90.324C302.667 89.07 305.156 88.443 307.93 88.443C310.666 88.443 313.022 89.032 314.998 90.21C316.974 91.35 318.494 92.984 319.558 95.112C320.66 97.24 321.211 99.767 321.211 102.693V104.859H300.634V100.413H314.998L314.086 101.211C314.086 98.893 313.573 97.145 312.547 95.967C311.559 94.751 310.134 94.143 308.272 94.143C306.866 94.143 305.669 94.466 304.681 95.112C303.693 95.758 302.933 96.689 302.401 97.905C301.869 99.121 301.603 100.584 301.603 102.294V102.75C301.603 104.688 301.888 106.284 302.458 107.538C303.066 108.754 303.959 109.666 305.137 110.274C306.353 110.882 307.854 111.186 309.64 111.186C311.16 111.186 312.699 110.958 314.257 110.502C315.815 110.046 317.221 109.343 318.475 108.393L320.755 114.15C319.349 115.214 317.62 116.069 315.568 116.715C313.554 117.323 311.521 117.627 309.469 117.627ZM326.331 117V89.013H334.767V94.257H334.14C334.634 93.079 335.318 92.053 336.192 91.179C337.066 90.305 338.111 89.64 339.327 89.184C340.543 88.69 341.873 88.443 343.317 88.443C345.483 88.443 347.288 88.956 348.732 89.982C350.176 91.008 351.202 92.585 351.81 94.713H351.012C351.848 92.775 353.121 91.255 354.831 90.153C356.579 89.013 358.574 88.443 360.816 88.443C362.982 88.443 364.749 88.88 366.117 89.754C367.523 90.59 368.568 91.882 369.252 93.63C369.936 95.34 370.278 97.525 370.278 100.185V117H361.671V100.47C361.671 98.608 361.367 97.259 360.759 96.423C360.189 95.549 359.201 95.112 357.795 95.112C356.731 95.112 355.8 95.378 355.002 95.91C354.204 96.404 353.596 97.145 353.178 98.133C352.798 99.083 352.608 100.261 352.608 101.667V117H344.001V100.47C344.001 98.608 343.697 97.259 343.089 96.423C342.519 95.549 341.531 95.112 340.125 95.112C339.023 95.112 338.092 95.378 337.332 95.91C336.572 96.404 335.983 97.145 335.565 98.133C335.147 99.083 334.938 100.261 334.938 101.667V117H326.331ZM391.406 117.627C388.1 117.627 385.25 117.038 382.856 115.86C380.5 114.644 378.676 112.953 377.384 110.787C376.13 108.583 375.503 105.999 375.503 103.035C375.503 100.147 376.111 97.62 377.327 95.454C378.543 93.25 380.234 91.54 382.4 90.324C384.604 89.07 387.093 88.443 389.867 88.443C392.603 88.443 394.959 89.032 396.935 90.21C398.911 91.35 400.431 92.984 401.495 95.112C402.597 97.24 403.148 99.767 403.148 102.693V104.859H382.571V100.413H396.935L396.023 101.211C396.023 98.893 395.51 97.145 394.484 95.967C393.496 94.751 392.071 94.143 390.209 94.143C388.803 94.143 387.606 94.466 386.618 95.112C385.63 95.758 384.87 96.689 384.338 97.905C383.806 99.121 383.54 100.584 383.54 102.294V102.75C383.54 104.688 383.825 106.284 384.395 107.538C385.003 108.754 385.896 109.666 387.074 110.274C388.29 110.882 389.791 111.186 391.577 111.186C393.097 111.186 394.636 110.958 396.194 110.502C397.752 110.046 399.158 109.343 400.412 108.393L402.692 114.15C401.286 115.214 399.557 116.069 397.505 116.715C395.491 117.323 393.458 117.627 391.406 117.627ZM408.155 117V89.013H416.591V94.257H415.964C416.838 92.395 418.13 90.97 419.84 89.982C421.588 88.956 423.564 88.443 425.768 88.443C428.01 88.443 429.853 88.88 431.297 89.754C432.741 90.59 433.824 91.882 434.546 93.63C435.268 95.34 435.629 97.525 435.629 100.185V117H427.022V100.584C427.022 99.292 426.851 98.247 426.509 97.449C426.205 96.613 425.73 96.024 425.084 95.682C424.476 95.302 423.697 95.112 422.747 95.112C421.531 95.112 420.467 95.378 419.555 95.91C418.681 96.404 417.997 97.126 417.503 98.076C417.009 99.026 416.762 100.128 416.762 101.382V117H408.155ZM455.791 117.627C451.801 117.627 448.837 116.658 446.899 114.72C444.961 112.782 443.992 109.932 443.992 106.17V95.454H438.691V89.013H443.992V80.805H452.599V89.013H460.864V95.454H452.599V105.828C452.599 107.424 452.96 108.621 453.682 109.419C454.442 110.217 455.639 110.616 457.273 110.616C457.767 110.616 458.28 110.559 458.812 110.445C459.382 110.331 459.99 110.179 460.636 109.989L461.89 116.259C461.092 116.677 460.142 117 459.04 117.228C457.938 117.494 456.855 117.627 455.791 117.627ZM475.815 117.627C474.181 117.627 472.604 117.494 471.084 117.228C469.564 116.962 468.177 116.601 466.923 116.145C465.669 115.689 464.567 115.119 463.617 114.435L465.669 108.849C466.619 109.419 467.645 109.932 468.747 110.388C469.887 110.806 471.065 111.129 472.281 111.357C473.497 111.585 474.694 111.699 475.872 111.699C477.506 111.699 478.684 111.452 479.406 110.958C480.166 110.426 480.546 109.742 480.546 108.906C480.546 108.146 480.299 107.576 479.805 107.196C479.311 106.816 478.589 106.55 477.639 106.398L471.654 105.315C469.298 104.897 467.474 104.042 466.182 102.75C464.928 101.42 464.301 99.729 464.301 97.677C464.301 95.777 464.833 94.143 465.897 92.775C466.961 91.369 468.424 90.305 470.286 89.583C472.186 88.823 474.333 88.443 476.727 88.443C478.095 88.443 479.425 88.557 480.717 88.785C482.009 89.013 483.225 89.355 484.365 89.811C485.543 90.267 486.588 90.875 487.5 91.635L485.334 97.164C484.612 96.594 483.757 96.1 482.769 95.682C481.781 95.264 480.774 94.941 479.748 94.713C478.722 94.447 477.753 94.314 476.841 94.314C475.131 94.314 473.896 94.599 473.136 95.169C472.376 95.701 471.996 96.385 471.996 97.221C471.996 97.867 472.205 98.418 472.623 98.874C473.079 99.292 473.763 99.577 474.675 99.729L480.66 100.812C483.13 101.23 485.011 102.066 486.303 103.32C487.595 104.536 488.241 106.208 488.241 108.336C488.241 110.274 487.728 111.946 486.702 113.352C485.676 114.72 484.232 115.784 482.37 116.544C480.508 117.266 478.323 117.627 475.815 117.627Z" fill="#151630"/>
<path d="M89.1729 13.9414L89.3184 14.085C89.8044 14.5637 90.2806 15.4324 90.1328 16.4971C90.0257 17.2671 89.6009 18.0716 88.7334 18.8594H109.515V19.3594C109.515 26.0608 107.578 36.3957 101.769 45.6807C95.9651 54.9553 86.298 63.1757 70.8799 65.667L68.5283 67.6387C69.0485 67.9168 69.5508 68.2536 69.9551 68.6396C70.5367 69.1951 70.9971 69.938 70.8516 70.8027C70.7081 71.6527 70.0097 72.42 68.7822 73.1113C67.6075 73.7728 65.858 74.4144 63.3711 75.0186C63.9352 79.5538 65.0862 86.1701 66.7793 91.8223C67.6543 94.7431 68.6665 97.3819 69.8027 99.3389C70.9574 101.327 72.1609 102.474 73.3594 102.671L73.7783 102.739V108.476C73.7785 108.839 74.0372 109.778 75.1826 110.166L75.2051 110.174L75.2275 110.184C75.6882 110.392 76.3628 111.077 76.1758 112.241V116.058H33.3389V112.241C33.152 111.077 33.8264 110.392 34.2871 110.184L34.3096 110.174L34.332 110.166C35.4774 109.778 35.7362 108.839 35.7363 108.476V102.739L36.1553 102.671C37.3538 102.474 38.5573 101.327 39.7119 99.3389C40.8481 97.3819 41.8604 94.743 42.7354 91.8223C44.4285 86.1702 45.5795 79.5538 46.1436 75.0186C43.6565 74.4144 41.9071 73.7728 40.7324 73.1113C39.505 72.42 38.8066 71.6527 38.6631 70.8027C38.5177 69.9381 38.978 69.1951 39.5596 68.6396C39.9638 68.2537 40.4663 67.9168 40.9863 67.6387L38.6348 65.667C23.2167 63.1757 13.5495 54.9553 7.74609 45.6807C1.93649 36.3958 5.57313e-05 26.0608 0 19.3594V18.8594H20.7812C19.9138 18.0717 19.4889 17.267 19.3818 16.4971C19.2341 15.4325 19.7103 14.5637 20.1963 14.085L20.3418 13.9414H89.1729ZM8.99902 26.0488C11.7884 46.5076 26.5767 55.8196 33.6221 57.918C26.9981 51.3082 23.308 33.9181 22.291 26.0488H8.99902ZM87.2236 26.0488C86.2066 33.9181 82.5166 51.3082 75.8926 57.918C82.938 55.8196 97.7262 46.5076 100.516 26.0488H87.2236Z" fill="url(#paint0_linear_2021_1773)"/>
<path d="M55.0198 25.4252L65.6305 31.5513V43.8035L55.0198 49.9296L44.4091 43.8035V31.5513L55.0198 25.4252Z" fill="url(#paint1_linear_2021_1773)"/>
<defs>
<linearGradient id="paint0_linear_2021_1773" x1="0" y1="64.9995" x2="109.515" y2="64.9995" gradientUnits="userSpaceOnUse">
<stop stop-color="#DAA33A"/>
<stop offset="1" stop-color="#F8CD92"/>
</linearGradient>
<linearGradient id="paint1_linear_2021_1773" x1="42.7676" y1="37.6774" x2="67.272" y2="37.6774" gradientUnits="userSpaceOnUse">
<stop stop-color="#7841C5"/>
<stop offset="1" stop-color="#2879CB"/>
</linearGradient>
</defs>
</svg>
