<svg width="493" height="136" viewBox="0 0 493 136" fill="none" xmlns="http://www.w3.org/2000/svg">
<path d="M130.597 58V17.815H148.951C151.953 17.815 154.499 18.328 156.589 19.354C158.679 20.38 160.256 21.843 161.32 23.743C162.422 25.643 162.973 27.942 162.973 30.64C162.973 33.338 162.422 35.656 161.32 37.594C160.256 39.494 158.679 40.957 156.589 41.983C154.499 43.009 151.953 43.522 148.951 43.522H139.432V58H130.597ZM139.432 36.682H147.469C149.749 36.682 151.478 36.169 152.656 35.143C153.872 34.117 154.48 32.616 154.48 30.64C154.48 28.664 153.872 27.182 152.656 26.194C151.478 25.206 149.749 24.712 147.469 24.712H139.432V36.682ZM178.138 58.627C174.528 58.627 171.887 57.696 170.215 55.834C168.543 53.934 167.707 51.122 167.707 47.398V17.815H176.314V47.056C176.314 48.006 176.466 48.842 176.77 49.564C177.074 50.248 177.511 50.761 178.081 51.103C178.689 51.445 179.449 51.616 180.361 51.616C180.741 51.616 181.14 51.597 181.558 51.559C181.976 51.521 182.375 51.445 182.755 51.331L182.641 58C181.919 58.19 181.178 58.342 180.418 58.456C179.696 58.57 178.936 58.627 178.138 58.627ZM196.151 58.627C194.099 58.627 192.256 58.228 190.622 57.43C188.988 56.632 187.715 55.549 186.803 54.181C185.891 52.813 185.435 51.274 185.435 49.564C185.435 47.512 185.967 45.897 187.031 44.719C188.095 43.503 189.824 42.648 192.218 42.154C194.612 41.622 197.785 41.356 201.737 41.356H204.758V45.802H201.794C200.312 45.802 199.058 45.859 198.032 45.973C197.044 46.087 196.227 46.296 195.581 46.6C194.935 46.866 194.46 47.208 194.156 47.626C193.89 48.044 193.757 48.576 193.757 49.222C193.757 50.286 194.118 51.16 194.84 51.844C195.6 52.528 196.683 52.87 198.089 52.87C199.191 52.87 200.16 52.623 200.996 52.129C201.87 51.597 202.554 50.894 203.048 50.02C203.542 49.108 203.789 48.082 203.789 46.942V40.387C203.789 38.715 203.409 37.537 202.649 36.853C201.889 36.131 200.597 35.77 198.773 35.77C197.253 35.77 195.638 36.017 193.928 36.511C192.256 36.967 190.584 37.67 188.912 38.62L186.575 32.863C187.563 32.179 188.76 31.59 190.166 31.096C191.61 30.564 193.111 30.165 194.669 29.899C196.227 29.595 197.709 29.443 199.115 29.443C202.041 29.443 204.435 29.88 206.297 30.754C208.197 31.59 209.622 32.901 210.572 34.687C211.522 36.435 211.997 38.696 211.997 41.47V58H203.96V52.357H204.359C204.131 53.649 203.637 54.77 202.877 55.72C202.155 56.632 201.224 57.354 200.084 57.886C198.944 58.38 197.633 58.627 196.151 58.627ZM220.305 68.26L226.461 54.751V58.285L214.149 30.013H223.212L231.135 50.077H229.311L237.462 30.013H246.012L229.083 68.26H220.305ZM248.532 58V30.013H256.968V35.257H256.341C257.215 33.395 258.507 31.97 260.217 30.982C261.965 29.956 263.941 29.443 266.145 29.443C268.387 29.443 270.23 29.88 271.674 30.754C273.118 31.59 274.201 32.882 274.923 34.63C275.645 36.34 276.006 38.525 276.006 41.185V58H267.399V41.584C267.399 40.292 267.228 39.247 266.886 38.449C266.582 37.613 266.107 37.024 265.461 36.682C264.853 36.302 264.074 36.112 263.124 36.112C261.908 36.112 260.844 36.378 259.932 36.91C259.058 37.404 258.374 38.126 257.88 39.076C257.386 40.026 257.139 41.128 257.139 42.382V58H248.532ZM282.089 24.598V16.561H291.38V24.598H282.089ZM282.431 58V30.013H291.038V58H282.431ZM311.42 58.627C307.43 58.627 304.466 57.658 302.528 55.72C300.59 53.782 299.621 50.932 299.621 47.17V36.454H294.32V30.013H299.621V21.805H308.228V30.013H316.493V36.454H308.228V46.828C308.228 48.424 308.589 49.621 309.311 50.419C310.071 51.217 311.268 51.616 312.902 51.616C313.396 51.616 313.909 51.559 314.441 51.445C315.011 51.331 315.619 51.179 316.265 50.989L317.519 57.259C316.721 57.677 315.771 58 314.669 58.228C313.567 58.494 312.484 58.627 311.42 58.627ZM334.985 58.627C331.679 58.627 328.829 58.038 326.435 56.86C324.079 55.644 322.255 53.953 320.963 51.787C319.709 49.583 319.082 46.999 319.082 44.035C319.082 41.147 319.69 38.62 320.906 36.454C322.122 34.25 323.813 32.54 325.979 31.324C328.183 30.07 330.672 29.443 333.446 29.443C336.182 29.443 338.538 30.032 340.514 31.21C342.49 32.35 344.01 33.984 345.074 36.112C346.176 38.24 346.727 40.767 346.727 43.693V45.859H326.15V41.413H340.514L339.602 42.211C339.602 39.893 339.089 38.145 338.063 36.967C337.075 35.751 335.65 35.143 333.788 35.143C332.382 35.143 331.185 35.466 330.197 36.112C329.209 36.758 328.449 37.689 327.917 38.905C327.385 40.121 327.119 41.584 327.119 43.294V43.75C327.119 45.688 327.404 47.284 327.974 48.538C328.582 49.754 329.475 50.666 330.653 51.274C331.869 51.882 333.37 52.186 335.156 52.186C336.676 52.186 338.215 51.958 339.773 51.502C341.331 51.046 342.737 50.343 343.991 49.393L346.271 55.15C344.865 56.214 343.136 57.069 341.084 57.715C339.07 58.323 337.037 58.627 334.985 58.627Z" fill="white"/>
<path d="M111.98 117L130.448 76.815H137.573L156.041 117H147.149L142.361 105.828L145.895 108.279H122.126L125.66 105.828L120.929 117H111.98ZM133.925 86.22L126.629 103.605L125.09 101.382H142.931L141.392 103.605L134.039 86.22H133.925ZM172.117 117.627C169.077 117.627 166.417 117.038 164.137 115.86C161.895 114.644 160.166 112.934 158.95 110.73C157.734 108.526 157.126 105.923 157.126 102.921C157.126 99.919 157.734 97.335 158.95 95.169C160.166 93.003 161.895 91.35 164.137 90.21C166.417 89.032 169.077 88.443 172.117 88.443C173.941 88.443 175.746 88.709 177.532 89.241C179.356 89.773 180.838 90.533 181.978 91.521L179.584 97.449C178.672 96.689 177.608 96.1 176.392 95.682C175.176 95.226 174.036 94.998 172.972 94.998C170.73 94.998 168.982 95.701 167.728 97.107C166.512 98.475 165.904 100.432 165.904 102.978C165.904 105.486 166.512 107.462 167.728 108.906C168.982 110.312 170.73 111.015 172.972 111.015C174.036 111.015 175.176 110.806 176.392 110.388C177.608 109.97 178.672 109.362 179.584 108.564L181.978 114.492C180.838 115.442 179.356 116.202 177.532 116.772C175.708 117.342 173.903 117.627 172.117 117.627ZM185.714 117V76.815H194.321V94.257H193.523C194.397 92.395 195.689 90.97 197.399 89.982C199.147 88.956 201.123 88.443 203.327 88.443C205.569 88.443 207.412 88.88 208.856 89.754C210.3 90.59 211.383 91.882 212.105 93.63C212.827 95.34 213.188 97.525 213.188 100.185V117H204.581V100.584C204.581 99.292 204.41 98.247 204.068 97.449C203.764 96.613 203.289 96.024 202.643 95.682C202.035 95.302 201.256 95.112 200.306 95.112C199.09 95.112 198.026 95.378 197.114 95.91C196.24 96.404 195.556 97.126 195.062 98.076C194.568 99.026 194.321 100.128 194.321 101.382V117H185.714ZM219.272 83.598V75.561H228.563V83.598H219.272ZM219.614 117V89.013H228.221V117H219.614ZM249.401 117.627C246.095 117.627 243.245 117.038 240.851 115.86C238.495 114.644 236.671 112.953 235.379 110.787C234.125 108.583 233.498 105.999 233.498 103.035C233.498 100.147 234.106 97.62 235.322 95.454C236.538 93.25 238.229 91.54 240.395 90.324C242.599 89.07 245.088 88.443 247.862 88.443C250.598 88.443 252.954 89.032 254.93 90.21C256.906 91.35 258.426 92.984 259.49 95.112C260.592 97.24 261.143 99.767 261.143 102.693V104.859H240.566V100.413H254.93L254.018 101.211C254.018 98.893 253.505 97.145 252.479 95.967C251.491 94.751 250.066 94.143 248.204 94.143C246.798 94.143 245.601 94.466 244.613 95.112C243.625 95.758 242.865 96.689 242.333 97.905C241.801 99.121 241.535 100.584 241.535 102.294V102.75C241.535 104.688 241.82 106.284 242.39 107.538C242.998 108.754 243.891 109.666 245.069 110.274C246.285 110.882 247.786 111.186 249.572 111.186C251.092 111.186 252.631 110.958 254.189 110.502C255.747 110.046 257.153 109.343 258.407 108.393L260.687 114.15C259.281 115.214 257.552 116.069 255.5 116.715C253.486 117.323 251.453 117.627 249.401 117.627ZM273.913 117L261.715 89.013H270.778L278.644 109.077H276.82L285.028 89.013H293.521L281.152 117H273.913ZM309.963 117.627C306.657 117.627 303.807 117.038 301.413 115.86C299.057 114.644 297.233 112.953 295.941 110.787C294.687 108.583 294.06 105.999 294.06 103.035C294.06 100.147 294.668 97.62 295.884 95.454C297.1 93.25 298.791 91.54 300.957 90.324C303.161 89.07 305.65 88.443 308.424 88.443C311.16 88.443 313.516 89.032 315.492 90.21C317.468 91.35 318.988 92.984 320.052 95.112C321.154 97.24 321.705 99.767 321.705 102.693V104.859H301.128V100.413H315.492L314.58 101.211C314.58 98.893 314.067 97.145 313.041 95.967C312.053 94.751 310.628 94.143 308.766 94.143C307.36 94.143 306.163 94.466 305.175 95.112C304.187 95.758 303.427 96.689 302.895 97.905C302.363 99.121 302.097 100.584 302.097 102.294V102.75C302.097 104.688 302.382 106.284 302.952 107.538C303.56 108.754 304.453 109.666 305.631 110.274C306.847 110.882 308.348 111.186 310.134 111.186C311.654 111.186 313.193 110.958 314.751 110.502C316.309 110.046 317.715 109.343 318.969 108.393L321.249 114.15C319.843 115.214 318.114 116.069 316.062 116.715C314.048 117.323 312.015 117.627 309.963 117.627ZM326.825 117V89.013H335.261V94.257H334.634C335.128 93.079 335.812 92.053 336.686 91.179C337.56 90.305 338.605 89.64 339.821 89.184C341.037 88.69 342.367 88.443 343.811 88.443C345.977 88.443 347.782 88.956 349.226 89.982C350.67 91.008 351.696 92.585 352.304 94.713H351.506C352.342 92.775 353.615 91.255 355.325 90.153C357.073 89.013 359.068 88.443 361.31 88.443C363.476 88.443 365.243 88.88 366.611 89.754C368.017 90.59 369.062 91.882 369.746 93.63C370.43 95.34 370.772 97.525 370.772 100.185V117H362.165V100.47C362.165 98.608 361.861 97.259 361.253 96.423C360.683 95.549 359.695 95.112 358.289 95.112C357.225 95.112 356.294 95.378 355.496 95.91C354.698 96.404 354.09 97.145 353.672 98.133C353.292 99.083 353.102 100.261 353.102 101.667V117H344.495V100.47C344.495 98.608 344.191 97.259 343.583 96.423C343.013 95.549 342.025 95.112 340.619 95.112C339.517 95.112 338.586 95.378 337.826 95.91C337.066 96.404 336.477 97.145 336.059 98.133C335.641 99.083 335.432 100.261 335.432 101.667V117H326.825ZM391.901 117.627C388.595 117.627 385.745 117.038 383.351 115.86C380.995 114.644 379.171 112.953 377.879 110.787C376.625 108.583 375.998 105.999 375.998 103.035C375.998 100.147 376.606 97.62 377.822 95.454C379.038 93.25 380.729 91.54 382.895 90.324C385.099 89.07 387.588 88.443 390.362 88.443C393.098 88.443 395.454 89.032 397.43 90.21C399.406 91.35 400.926 92.984 401.99 95.112C403.092 97.24 403.643 99.767 403.643 102.693V104.859H383.066V100.413H397.43L396.518 101.211C396.518 98.893 396.005 97.145 394.979 95.967C393.991 94.751 392.566 94.143 390.704 94.143C389.298 94.143 388.101 94.466 387.113 95.112C386.125 95.758 385.365 96.689 384.833 97.905C384.301 99.121 384.035 100.584 384.035 102.294V102.75C384.035 104.688 384.32 106.284 384.89 107.538C385.498 108.754 386.391 109.666 387.569 110.274C388.785 110.882 390.286 111.186 392.072 111.186C393.592 111.186 395.131 110.958 396.689 110.502C398.247 110.046 399.653 109.343 400.907 108.393L403.187 114.15C401.781 115.214 400.052 116.069 398 116.715C395.986 117.323 393.953 117.627 391.901 117.627ZM408.649 117V89.013H417.085V94.257H416.458C417.332 92.395 418.624 90.97 420.334 89.982C422.082 88.956 424.058 88.443 426.262 88.443C428.504 88.443 430.347 88.88 431.791 89.754C433.235 90.59 434.318 91.882 435.04 93.63C435.762 95.34 436.123 97.525 436.123 100.185V117H427.516V100.584C427.516 99.292 427.345 98.247 427.003 97.449C426.699 96.613 426.224 96.024 425.578 95.682C424.97 95.302 424.191 95.112 423.241 95.112C422.025 95.112 420.961 95.378 420.049 95.91C419.175 96.404 418.491 97.126 417.997 98.076C417.503 99.026 417.256 100.128 417.256 101.382V117H408.649ZM456.285 117.627C452.295 117.627 449.331 116.658 447.393 114.72C445.455 112.782 444.486 109.932 444.486 106.17V95.454H439.185V89.013H444.486V80.805H453.093V89.013H461.358V95.454H453.093V105.828C453.093 107.424 453.454 108.621 454.176 109.419C454.936 110.217 456.133 110.616 457.767 110.616C458.261 110.616 458.774 110.559 459.306 110.445C459.876 110.331 460.484 110.179 461.13 109.989L462.384 116.259C461.586 116.677 460.636 117 459.534 117.228C458.432 117.494 457.349 117.627 456.285 117.627ZM476.309 117.627C474.675 117.627 473.098 117.494 471.578 117.228C470.058 116.962 468.671 116.601 467.417 116.145C466.163 115.689 465.061 115.119 464.111 114.435L466.163 108.849C467.113 109.419 468.139 109.932 469.241 110.388C470.381 110.806 471.559 111.129 472.775 111.357C473.991 111.585 475.188 111.699 476.366 111.699C478 111.699 479.178 111.452 479.9 110.958C480.66 110.426 481.04 109.742 481.04 108.906C481.04 108.146 480.793 107.576 480.299 107.196C479.805 106.816 479.083 106.55 478.133 106.398L472.148 105.315C469.792 104.897 467.968 104.042 466.676 102.75C465.422 101.42 464.795 99.729 464.795 97.677C464.795 95.777 465.327 94.143 466.391 92.775C467.455 91.369 468.918 90.305 470.78 89.583C472.68 88.823 474.827 88.443 477.221 88.443C478.589 88.443 479.919 88.557 481.211 88.785C482.503 89.013 483.719 89.355 484.859 89.811C486.037 90.267 487.082 90.875 487.994 91.635L485.828 97.164C485.106 96.594 484.251 96.1 483.263 95.682C482.275 95.264 481.268 94.941 480.242 94.713C479.216 94.447 478.247 94.314 477.335 94.314C475.625 94.314 474.39 94.599 473.63 95.169C472.87 95.701 472.49 96.385 472.49 97.221C472.49 97.867 472.699 98.418 473.117 98.874C473.573 99.292 474.257 99.577 475.169 99.729L481.154 100.812C483.624 101.23 485.505 102.066 486.797 103.32C488.089 104.536 488.735 106.208 488.735 108.336C488.735 110.274 488.222 111.946 487.196 113.352C486.17 114.72 484.726 115.784 482.864 116.544C481.002 117.266 478.817 117.627 476.309 117.627Z" fill="white"/>
<path d="M90.0166 13.5938L90.1631 13.7373L90.1641 13.7383C90.7362 14.3017 91.297 15.3203 91.123 16.5742V16.5752C91.0388 17.1801 90.7897 17.7822 90.3584 18.3672H110.508V19.3672C110.508 25.9328 108.673 35.9232 103.225 45.0625L102.686 45.9443C96.8322 55.2953 87.0878 63.5834 71.5947 66.126L69.8848 67.5586C70.21 67.7699 70.5229 68.0042 70.7969 68.2656C71.3888 68.8309 71.9512 69.6569 71.8662 70.668L71.8408 70.873C71.6592 71.9479 70.7959 72.8179 69.5234 73.5342C68.364 74.1868 66.7009 74.8011 64.4199 75.3789C64.9999 79.8762 66.1261 86.2213 67.7549 91.6572C68.6252 94.5615 69.6248 97.1575 70.7324 99.0645C71.8762 101.033 72.9785 101.994 73.9375 102.151L74.3564 102.221L74.7744 102.29V108.447C74.7746 108.646 74.94 109.358 75.835 109.663H75.8359L75.8799 109.678L75.9004 109.687L75.9229 109.696L75.9297 109.699C76.5555 109.982 77.3692 110.848 77.1719 112.234V116.527H33.3359V112.234C33.1387 110.848 33.9525 109.982 34.5781 109.699L34.585 109.696L34.6074 109.687L34.6279 109.678L34.6719 109.663C35.5669 109.359 35.7328 108.648 35.7334 108.448V102.29L36.1514 102.221L36.5703 102.151H36.5713C37.5303 101.994 38.6314 101.034 39.7754 99.0645C40.8831 97.1575 41.8826 94.5616 42.7529 91.6572C44.3818 86.2214 45.5069 79.8763 46.0869 75.3789C43.8065 74.8012 42.1436 74.1867 40.9844 73.5342C39.7917 72.8627 38.958 72.0561 38.709 71.0723L38.667 70.873C38.4812 69.7686 39.0796 68.8686 39.7109 68.2656H39.7119C39.9857 68.0043 40.2971 67.7698 40.6221 67.5586L38.9121 66.126C23.4198 63.5831 13.6754 55.2951 7.82227 45.9443C1.95582 36.5716 9.52184e-05 26.1445 0 19.3672V18.3672H20.1494C19.7182 17.7822 19.469 17.18 19.3848 16.5752V16.5742C19.2109 15.3205 19.7718 14.3017 20.3438 13.7383L20.3447 13.7373L20.4912 13.5938L20.6367 13.4512H89.8711L90.0166 13.5938ZM10.0771 26.5537C12.7894 44.7732 25.1791 53.8654 32.4717 56.7959C29.692 53.2664 27.5077 47.9552 25.874 42.5996C24.0551 36.6365 22.8921 30.5297 22.3525 26.5537H10.0771ZM88.1562 26.5527C87.6167 30.5286 86.4537 36.6354 84.6348 42.5986C83.0011 47.9545 80.8161 53.2654 78.0361 56.7949C85.3287 53.8647 97.7195 44.7732 100.432 26.5527H88.1562ZM55.96 25.4521C55.8232 25.3719 55.6576 25.3626 55.5137 25.4229L55.4531 25.4521L45.6689 31.1943C45.5162 31.2841 45.4219 31.4478 45.4219 31.625V43.1084C45.4221 43.2855 45.5162 43.4494 45.6689 43.5391L55.4531 49.2803C55.6093 49.3719 55.8038 49.3718 55.96 49.2803L65.7441 43.5391C65.8969 43.4494 65.9909 43.2855 65.9912 43.1084V31.625C65.9911 31.4477 65.897 31.2841 65.7441 31.1943L55.96 25.4521Z" fill="url(#paint0_linear_2018_1042)"/>
<defs>
<linearGradient id="paint0_linear_2018_1042" x1="0.5" y1="64.9888" x2="110.008" y2="64.9888" gradientUnits="userSpaceOnUse">
<stop stop-color="#4E77D4"/>
<stop offset="1" stop-color="#79A3D7"/>
</linearGradient>
</defs>
</svg>
