<svg width="493" height="136" viewBox="0 0 493 136" fill="none" xmlns="http://www.w3.org/2000/svg">
<path d="M130.097 58V17.815H148.451C151.453 17.815 153.999 18.328 156.089 19.354C158.179 20.38 159.756 21.843 160.82 23.743C161.922 25.643 162.473 27.942 162.473 30.64C162.473 33.338 161.922 35.656 160.82 37.594C159.756 39.494 158.179 40.957 156.089 41.983C153.999 43.009 151.453 43.522 148.451 43.522H138.932V58H130.097ZM138.932 36.682H146.969C149.249 36.682 150.978 36.169 152.156 35.143C153.372 34.117 153.98 32.616 153.98 30.64C153.98 28.664 153.372 27.182 152.156 26.194C150.978 25.206 149.249 24.712 146.969 24.712H138.932V36.682ZM177.638 58.627C174.028 58.627 171.387 57.696 169.715 55.834C168.043 53.934 167.207 51.122 167.207 47.398V17.815H175.814V47.056C175.814 48.006 175.966 48.842 176.27 49.564C176.574 50.248 177.011 50.761 177.581 51.103C178.189 51.445 178.949 51.616 179.861 51.616C180.241 51.616 180.64 51.597 181.058 51.559C181.476 51.521 181.875 51.445 182.255 51.331L182.141 58C181.419 58.19 180.678 58.342 179.918 58.456C179.196 58.57 178.436 58.627 177.638 58.627ZM195.651 58.627C193.599 58.627 191.756 58.228 190.122 57.43C188.488 56.632 187.215 55.549 186.303 54.181C185.391 52.813 184.935 51.274 184.935 49.564C184.935 47.512 185.467 45.897 186.531 44.719C187.595 43.503 189.324 42.648 191.718 42.154C194.112 41.622 197.285 41.356 201.237 41.356H204.258V45.802H201.294C199.812 45.802 198.558 45.859 197.532 45.973C196.544 46.087 195.727 46.296 195.081 46.6C194.435 46.866 193.96 47.208 193.656 47.626C193.39 48.044 193.257 48.576 193.257 49.222C193.257 50.286 193.618 51.16 194.34 51.844C195.1 52.528 196.183 52.87 197.589 52.87C198.691 52.87 199.66 52.623 200.496 52.129C201.37 51.597 202.054 50.894 202.548 50.02C203.042 49.108 203.289 48.082 203.289 46.942V40.387C203.289 38.715 202.909 37.537 202.149 36.853C201.389 36.131 200.097 35.77 198.273 35.77C196.753 35.77 195.138 36.017 193.428 36.511C191.756 36.967 190.084 37.67 188.412 38.62L186.075 32.863C187.063 32.179 188.26 31.59 189.666 31.096C191.11 30.564 192.611 30.165 194.169 29.899C195.727 29.595 197.209 29.443 198.615 29.443C201.541 29.443 203.935 29.88 205.797 30.754C207.697 31.59 209.122 32.901 210.072 34.687C211.022 36.435 211.497 38.696 211.497 41.47V58H203.46V52.357H203.859C203.631 53.649 203.137 54.77 202.377 55.72C201.655 56.632 200.724 57.354 199.584 57.886C198.444 58.38 197.133 58.627 195.651 58.627ZM219.805 68.26L225.961 54.751V58.285L213.649 30.013H222.712L230.635 50.077H228.811L236.962 30.013H245.512L228.583 68.26H219.805ZM248.032 58V30.013H256.468V35.257H255.841C256.715 33.395 258.007 31.97 259.717 30.982C261.465 29.956 263.441 29.443 265.645 29.443C267.887 29.443 269.73 29.88 271.174 30.754C272.618 31.59 273.701 32.882 274.423 34.63C275.145 36.34 275.506 38.525 275.506 41.185V58H266.899V41.584C266.899 40.292 266.728 39.247 266.386 38.449C266.082 37.613 265.607 37.024 264.961 36.682C264.353 36.302 263.574 36.112 262.624 36.112C261.408 36.112 260.344 36.378 259.432 36.91C258.558 37.404 257.874 38.126 257.38 39.076C256.886 40.026 256.639 41.128 256.639 42.382V58H248.032ZM281.589 24.598V16.561H290.88V24.598H281.589ZM281.931 58V30.013H290.538V58H281.931ZM310.92 58.627C306.93 58.627 303.966 57.658 302.028 55.72C300.09 53.782 299.121 50.932 299.121 47.17V36.454H293.82V30.013H299.121V21.805H307.728V30.013H315.993V36.454H307.728V46.828C307.728 48.424 308.089 49.621 308.811 50.419C309.571 51.217 310.768 51.616 312.402 51.616C312.896 51.616 313.409 51.559 313.941 51.445C314.511 51.331 315.119 51.179 315.765 50.989L317.019 57.259C316.221 57.677 315.271 58 314.169 58.228C313.067 58.494 311.984 58.627 310.92 58.627ZM334.485 58.627C331.179 58.627 328.329 58.038 325.935 56.86C323.579 55.644 321.755 53.953 320.463 51.787C319.209 49.583 318.582 46.999 318.582 44.035C318.582 41.147 319.19 38.62 320.406 36.454C321.622 34.25 323.313 32.54 325.479 31.324C327.683 30.07 330.172 29.443 332.946 29.443C335.682 29.443 338.038 30.032 340.014 31.21C341.99 32.35 343.51 33.984 344.574 36.112C345.676 38.24 346.227 40.767 346.227 43.693V45.859H325.65V41.413H340.014L339.102 42.211C339.102 39.893 338.589 38.145 337.563 36.967C336.575 35.751 335.15 35.143 333.288 35.143C331.882 35.143 330.685 35.466 329.697 36.112C328.709 36.758 327.949 37.689 327.417 38.905C326.885 40.121 326.619 41.584 326.619 43.294V43.75C326.619 45.688 326.904 47.284 327.474 48.538C328.082 49.754 328.975 50.666 330.153 51.274C331.369 51.882 332.87 52.186 334.656 52.186C336.176 52.186 337.715 51.958 339.273 51.502C340.831 51.046 342.237 50.343 343.491 49.393L345.771 55.15C344.365 56.214 342.636 57.069 340.584 57.715C338.57 58.323 336.537 58.627 334.485 58.627Z" fill="white"/>
<path d="M111.43 117L129.898 76.815H137.023L155.491 117H146.599L141.811 105.828L145.345 108.279H121.576L125.11 105.828L120.379 117H111.43ZM133.375 86.22L126.079 103.605L124.54 101.382H142.381L140.842 103.605L133.489 86.22H133.375ZM171.568 117.627C168.528 117.627 165.868 117.038 163.588 115.86C161.346 114.644 159.617 112.934 158.401 110.73C157.185 108.526 156.577 105.923 156.577 102.921C156.577 99.919 157.185 97.335 158.401 95.169C159.617 93.003 161.346 91.35 163.588 90.21C165.868 89.032 168.528 88.443 171.568 88.443C173.392 88.443 175.197 88.709 176.983 89.241C178.807 89.773 180.289 90.533 181.429 91.521L179.035 97.449C178.123 96.689 177.059 96.1 175.843 95.682C174.627 95.226 173.487 94.998 172.423 94.998C170.181 94.998 168.433 95.701 167.179 97.107C165.963 98.475 165.355 100.432 165.355 102.978C165.355 105.486 165.963 107.462 167.179 108.906C168.433 110.312 170.181 111.015 172.423 111.015C173.487 111.015 174.627 110.806 175.843 110.388C177.059 109.97 178.123 109.362 179.035 108.564L181.429 114.492C180.289 115.442 178.807 116.202 176.983 116.772C175.159 117.342 173.354 117.627 171.568 117.627ZM185.164 117V76.815H193.771V94.257H192.973C193.847 92.395 195.139 90.97 196.849 89.982C198.597 88.956 200.573 88.443 202.777 88.443C205.019 88.443 206.862 88.88 208.306 89.754C209.75 90.59 210.833 91.882 211.555 93.63C212.277 95.34 212.638 97.525 212.638 100.185V117H204.031V100.584C204.031 99.292 203.86 98.247 203.518 97.449C203.214 96.613 202.739 96.024 202.093 95.682C201.485 95.302 200.706 95.112 199.756 95.112C198.54 95.112 197.476 95.378 196.564 95.91C195.69 96.404 195.006 97.126 194.512 98.076C194.018 99.026 193.771 100.128 193.771 101.382V117H185.164ZM218.722 83.598V75.561H228.013V83.598H218.722ZM219.064 117V89.013H227.671V117H219.064ZM248.851 117.627C245.545 117.627 242.695 117.038 240.301 115.86C237.945 114.644 236.121 112.953 234.829 110.787C233.575 108.583 232.948 105.999 232.948 103.035C232.948 100.147 233.556 97.62 234.772 95.454C235.988 93.25 237.679 91.54 239.845 90.324C242.049 89.07 244.538 88.443 247.312 88.443C250.048 88.443 252.404 89.032 254.38 90.21C256.356 91.35 257.876 92.984 258.94 95.112C260.042 97.24 260.593 99.767 260.593 102.693V104.859H240.016V100.413H254.38L253.468 101.211C253.468 98.893 252.955 97.145 251.929 95.967C250.941 94.751 249.516 94.143 247.654 94.143C246.248 94.143 245.051 94.466 244.063 95.112C243.075 95.758 242.315 96.689 241.783 97.905C241.251 99.121 240.985 100.584 240.985 102.294V102.75C240.985 104.688 241.27 106.284 241.84 107.538C242.448 108.754 243.341 109.666 244.519 110.274C245.735 110.882 247.236 111.186 249.022 111.186C250.542 111.186 252.081 110.958 253.639 110.502C255.197 110.046 256.603 109.343 257.857 108.393L260.137 114.15C258.731 115.214 257.002 116.069 254.95 116.715C252.936 117.323 250.903 117.627 248.851 117.627ZM273.363 117L261.165 89.013H270.228L278.094 109.077H276.27L284.478 89.013H292.971L280.602 117H273.363ZM309.413 117.627C306.107 117.627 303.257 117.038 300.863 115.86C298.507 114.644 296.683 112.953 295.391 110.787C294.137 108.583 293.51 105.999 293.51 103.035C293.51 100.147 294.118 97.62 295.334 95.454C296.55 93.25 298.241 91.54 300.407 90.324C302.611 89.07 305.1 88.443 307.874 88.443C310.61 88.443 312.966 89.032 314.942 90.21C316.918 91.35 318.438 92.984 319.502 95.112C320.604 97.24 321.155 99.767 321.155 102.693V104.859H300.578V100.413H314.942L314.03 101.211C314.03 98.893 313.517 97.145 312.491 95.967C311.503 94.751 310.078 94.143 308.216 94.143C306.81 94.143 305.613 94.466 304.625 95.112C303.637 95.758 302.877 96.689 302.345 97.905C301.813 99.121 301.547 100.584 301.547 102.294V102.75C301.547 104.688 301.832 106.284 302.402 107.538C303.01 108.754 303.903 109.666 305.081 110.274C306.297 110.882 307.798 111.186 309.584 111.186C311.104 111.186 312.643 110.958 314.201 110.502C315.759 110.046 317.165 109.343 318.419 108.393L320.699 114.15C319.293 115.214 317.564 116.069 315.512 116.715C313.498 117.323 311.465 117.627 309.413 117.627ZM326.275 117V89.013H334.711V94.257H334.084C334.578 93.079 335.262 92.053 336.136 91.179C337.01 90.305 338.055 89.64 339.271 89.184C340.487 88.69 341.817 88.443 343.261 88.443C345.427 88.443 347.232 88.956 348.676 89.982C350.12 91.008 351.146 92.585 351.754 94.713H350.956C351.792 92.775 353.065 91.255 354.775 90.153C356.523 89.013 358.518 88.443 360.76 88.443C362.926 88.443 364.693 88.88 366.061 89.754C367.467 90.59 368.512 91.882 369.196 93.63C369.88 95.34 370.222 97.525 370.222 100.185V117H361.615V100.47C361.615 98.608 361.311 97.259 360.703 96.423C360.133 95.549 359.145 95.112 357.739 95.112C356.675 95.112 355.744 95.378 354.946 95.91C354.148 96.404 353.54 97.145 353.122 98.133C352.742 99.083 352.552 100.261 352.552 101.667V117H343.945V100.47C343.945 98.608 343.641 97.259 343.033 96.423C342.463 95.549 341.475 95.112 340.069 95.112C338.967 95.112 338.036 95.378 337.276 95.91C336.516 96.404 335.927 97.145 335.509 98.133C335.091 99.083 334.882 100.261 334.882 101.667V117H326.275ZM391.351 117.627C388.045 117.627 385.195 117.038 382.801 115.86C380.445 114.644 378.621 112.953 377.329 110.787C376.075 108.583 375.448 105.999 375.448 103.035C375.448 100.147 376.056 97.62 377.272 95.454C378.488 93.25 380.179 91.54 382.345 90.324C384.549 89.07 387.038 88.443 389.812 88.443C392.548 88.443 394.904 89.032 396.88 90.21C398.856 91.35 400.376 92.984 401.44 95.112C402.542 97.24 403.093 99.767 403.093 102.693V104.859H382.516V100.413H396.88L395.968 101.211C395.968 98.893 395.455 97.145 394.429 95.967C393.441 94.751 392.016 94.143 390.154 94.143C388.748 94.143 387.551 94.466 386.563 95.112C385.575 95.758 384.815 96.689 384.283 97.905C383.751 99.121 383.485 100.584 383.485 102.294V102.75C383.485 104.688 383.77 106.284 384.34 107.538C384.948 108.754 385.841 109.666 387.019 110.274C388.235 110.882 389.736 111.186 391.522 111.186C393.042 111.186 394.581 110.958 396.139 110.502C397.697 110.046 399.103 109.343 400.357 108.393L402.637 114.15C401.231 115.214 399.502 116.069 397.45 116.715C395.436 117.323 393.403 117.627 391.351 117.627ZM408.099 117V89.013H416.535V94.257H415.908C416.782 92.395 418.074 90.97 419.784 89.982C421.532 88.956 423.508 88.443 425.712 88.443C427.954 88.443 429.797 88.88 431.241 89.754C432.685 90.59 433.768 91.882 434.49 93.63C435.212 95.34 435.573 97.525 435.573 100.185V117H426.966V100.584C426.966 99.292 426.795 98.247 426.453 97.449C426.149 96.613 425.674 96.024 425.028 95.682C424.42 95.302 423.641 95.112 422.691 95.112C421.475 95.112 420.411 95.378 419.499 95.91C418.625 96.404 417.941 97.126 417.447 98.076C416.953 99.026 416.706 100.128 416.706 101.382V117H408.099ZM455.735 117.627C451.745 117.627 448.781 116.658 446.843 114.72C444.905 112.782 443.936 109.932 443.936 106.17V95.454H438.635V89.013H443.936V80.805H452.543V89.013H460.808V95.454H452.543V105.828C452.543 107.424 452.904 108.621 453.626 109.419C454.386 110.217 455.583 110.616 457.217 110.616C457.711 110.616 458.224 110.559 458.756 110.445C459.326 110.331 459.934 110.179 460.58 109.989L461.834 116.259C461.036 116.677 460.086 117 458.984 117.228C457.882 117.494 456.799 117.627 455.735 117.627ZM475.759 117.627C474.125 117.627 472.548 117.494 471.028 117.228C469.508 116.962 468.121 116.601 466.867 116.145C465.613 115.689 464.511 115.119 463.561 114.435L465.613 108.849C466.563 109.419 467.589 109.932 468.691 110.388C469.831 110.806 471.009 111.129 472.225 111.357C473.441 111.585 474.638 111.699 475.816 111.699C477.45 111.699 478.628 111.452 479.35 110.958C480.11 110.426 480.49 109.742 480.49 108.906C480.49 108.146 480.243 107.576 479.749 107.196C479.255 106.816 478.533 106.55 477.583 106.398L471.598 105.315C469.242 104.897 467.418 104.042 466.126 102.75C464.872 101.42 464.245 99.729 464.245 97.677C464.245 95.777 464.777 94.143 465.841 92.775C466.905 91.369 468.368 90.305 470.23 89.583C472.13 88.823 474.277 88.443 476.671 88.443C478.039 88.443 479.369 88.557 480.661 88.785C481.953 89.013 483.169 89.355 484.309 89.811C485.487 90.267 486.532 90.875 487.444 91.635L485.278 97.164C484.556 96.594 483.701 96.1 482.713 95.682C481.725 95.264 480.718 94.941 479.692 94.713C478.666 94.447 477.697 94.314 476.785 94.314C475.075 94.314 473.84 94.599 473.08 95.169C472.32 95.701 471.94 96.385 471.94 97.221C471.94 97.867 472.149 98.418 472.567 98.874C473.023 99.292 473.707 99.577 474.619 99.729L480.604 100.812C483.074 101.23 484.955 102.066 486.247 103.32C487.539 104.536 488.185 106.208 488.185 108.336C488.185 110.274 487.672 111.946 486.646 113.352C485.62 114.72 484.176 115.784 482.314 116.544C480.452 117.266 478.267 117.627 475.759 117.627Z" fill="white"/>
<path d="M89.3135 14.0947C89.7994 14.5732 90.2756 15.4417 90.1279 16.5059C90.0208 17.2755 89.5957 18.0799 88.7285 18.8672H109.508V19.3672C109.508 26.0661 107.571 36.3974 101.762 45.6787C95.9589 54.9491 86.2933 63.1657 70.8779 65.6562L68.5244 67.6279C69.0443 67.9058 69.547 68.2413 69.9512 68.627C70.5328 69.1822 70.9932 69.9254 70.8477 70.79C70.7041 71.6399 70.0059 72.4076 68.7783 73.0986C67.6038 73.7597 65.8544 74.4001 63.3682 75.0039C63.9322 79.5373 65.0834 86.1509 66.7764 91.8008C67.6513 94.7206 68.6636 97.3592 69.7998 99.3154C70.9541 101.302 72.1573 102.447 73.3555 102.645L73.7744 102.714V108.448C73.7748 108.811 74.0334 109.75 75.1777 110.138L75.2012 110.146L75.2236 110.155C75.6843 110.363 76.3593 111.048 76.1719 112.213V116.027H33.3359V112.213C33.1486 111.049 33.8235 110.363 34.2842 110.155L34.3066 110.146L34.3301 110.138C35.4747 109.75 35.733 108.811 35.7334 108.448V102.714L36.1523 102.645C37.3507 102.448 38.5536 101.303 39.708 99.3154C40.8443 97.3592 41.8565 94.7207 42.7314 91.8008C44.4244 86.1509 45.5756 79.5374 46.1396 75.0039C43.6535 74.4001 41.904 73.7597 40.7295 73.0986C39.5022 72.4076 38.8037 71.6398 38.6602 70.79C38.5147 69.9256 38.9751 69.1822 39.5566 68.627C39.9608 68.2412 40.4635 67.9059 40.9834 67.6279L38.6299 65.6562C23.2147 63.1656 13.5488 54.949 7.74609 45.6787C1.93696 36.3976 9.41142e-05 26.066 0 19.3672V18.8672H20.7793C19.9124 18.08 19.487 17.2754 19.3799 16.5059C19.2322 15.4419 19.7085 14.5733 20.1943 14.0947L20.3408 13.9512H89.167L89.3135 14.0947ZM8.99902 26.0537C11.7882 46.5043 26.5753 55.8126 33.6201 57.9102C26.9967 51.3031 23.307 33.9199 22.29 26.0537H8.99902ZM87.2188 26.0527C86.2019 33.9186 82.5123 51.3019 75.8887 57.9092C82.9336 55.8116 97.7208 46.5036 100.51 26.0527H87.2188ZM55.46 25.4521C55.3232 25.3719 55.1576 25.3626 55.0137 25.4229L54.9531 25.4521L45.1689 31.1943C45.0162 31.2841 44.9219 31.4478 44.9219 31.625V43.1084C44.9221 43.2855 45.0162 43.4494 45.1689 43.5391L54.9531 49.2803C55.1093 49.3719 55.3038 49.3718 55.46 49.2803L65.2441 43.5391C65.3969 43.4494 65.4909 43.2855 65.4912 43.1084V31.625C65.4911 31.4477 65.397 31.2841 65.2441 31.1943L55.46 25.4521Z" fill="white"/>
</svg>
