<svg width="493" height="136" viewBox="0 0 493 136" fill="none" xmlns="http://www.w3.org/2000/svg">
<path d="M130.298 58V17.815H148.652C151.654 17.815 154.2 18.328 156.29 19.354C158.38 20.38 159.957 21.843 161.021 23.743C162.123 25.643 162.674 27.942 162.674 30.64C162.674 33.338 162.123 35.656 161.021 37.594C159.957 39.494 158.38 40.957 156.29 41.983C154.2 43.009 151.654 43.522 148.652 43.522H139.133V58H130.298ZM139.133 36.682H147.17C149.45 36.682 151.179 36.169 152.357 35.143C153.573 34.117 154.181 32.616 154.181 30.64C154.181 28.664 153.573 27.182 152.357 26.194C151.179 25.206 149.45 24.712 147.17 24.712H139.133V36.682ZM177.84 58.627C174.23 58.627 171.589 57.696 169.917 55.834C168.245 53.934 167.409 51.122 167.409 47.398V17.815H176.016V47.056C176.016 48.006 176.168 48.842 176.472 49.564C176.776 50.248 177.213 50.761 177.783 51.103C178.391 51.445 179.151 51.616 180.063 51.616C180.443 51.616 180.842 51.597 181.26 51.559C181.678 51.521 182.077 51.445 182.457 51.331L182.343 58C181.621 58.19 180.88 58.342 180.12 58.456C179.398 58.57 178.638 58.627 177.84 58.627ZM195.852 58.627C193.8 58.627 191.957 58.228 190.323 57.43C188.689 56.632 187.416 55.549 186.504 54.181C185.592 52.813 185.136 51.274 185.136 49.564C185.136 47.512 185.668 45.897 186.732 44.719C187.796 43.503 189.525 42.648 191.919 42.154C194.313 41.622 197.486 41.356 201.438 41.356H204.459V45.802H201.495C200.013 45.802 198.759 45.859 197.733 45.973C196.745 46.087 195.928 46.296 195.282 46.6C194.636 46.866 194.161 47.208 193.857 47.626C193.591 48.044 193.458 48.576 193.458 49.222C193.458 50.286 193.819 51.16 194.541 51.844C195.301 52.528 196.384 52.87 197.79 52.87C198.892 52.87 199.861 52.623 200.697 52.129C201.571 51.597 202.255 50.894 202.749 50.02C203.243 49.108 203.49 48.082 203.49 46.942V40.387C203.49 38.715 203.11 37.537 202.35 36.853C201.59 36.131 200.298 35.77 198.474 35.77C196.954 35.77 195.339 36.017 193.629 36.511C191.957 36.967 190.285 37.67 188.613 38.62L186.276 32.863C187.264 32.179 188.461 31.59 189.867 31.096C191.311 30.564 192.812 30.165 194.37 29.899C195.928 29.595 197.41 29.443 198.816 29.443C201.742 29.443 204.136 29.88 205.998 30.754C207.898 31.59 209.323 32.901 210.273 34.687C211.223 36.435 211.698 38.696 211.698 41.47V58H203.661V52.357H204.06C203.832 53.649 203.338 54.77 202.578 55.72C201.856 56.632 200.925 57.354 199.785 57.886C198.645 58.38 197.334 58.627 195.852 58.627ZM220.007 68.26L226.163 54.751V58.285L213.851 30.013H222.914L230.837 50.077H229.013L237.164 30.013H245.714L228.785 68.26H220.007ZM248.233 58V30.013H256.669V35.257H256.042C256.916 33.395 258.208 31.97 259.918 30.982C261.666 29.956 263.642 29.443 265.846 29.443C268.088 29.443 269.931 29.88 271.375 30.754C272.819 31.59 273.902 32.882 274.624 34.63C275.346 36.34 275.707 38.525 275.707 41.185V58H267.1V41.584C267.1 40.292 266.929 39.247 266.587 38.449C266.283 37.613 265.808 37.024 265.162 36.682C264.554 36.302 263.775 36.112 262.825 36.112C261.609 36.112 260.545 36.378 259.633 36.91C258.759 37.404 258.075 38.126 257.581 39.076C257.087 40.026 256.84 41.128 256.84 42.382V58H248.233ZM281.791 24.598V16.561H291.082V24.598H281.791ZM282.133 58V30.013H290.74V58H282.133ZM311.122 58.627C307.132 58.627 304.168 57.658 302.23 55.72C300.292 53.782 299.323 50.932 299.323 47.17V36.454H294.022V30.013H299.323V21.805H307.93V30.013H316.195V36.454H307.93V46.828C307.93 48.424 308.291 49.621 309.013 50.419C309.773 51.217 310.97 51.616 312.604 51.616C313.098 51.616 313.611 51.559 314.143 51.445C314.713 51.331 315.321 51.179 315.967 50.989L317.221 57.259C316.423 57.677 315.473 58 314.371 58.228C313.269 58.494 312.186 58.627 311.122 58.627ZM334.686 58.627C331.38 58.627 328.53 58.038 326.136 56.86C323.78 55.644 321.956 53.953 320.664 51.787C319.41 49.583 318.783 46.999 318.783 44.035C318.783 41.147 319.391 38.62 320.607 36.454C321.823 34.25 323.514 32.54 325.68 31.324C327.884 30.07 330.373 29.443 333.147 29.443C335.883 29.443 338.239 30.032 340.215 31.21C342.191 32.35 343.711 33.984 344.775 36.112C345.877 38.24 346.428 40.767 346.428 43.693V45.859H325.851V41.413H340.215L339.303 42.211C339.303 39.893 338.79 38.145 337.764 36.967C336.776 35.751 335.351 35.143 333.489 35.143C332.083 35.143 330.886 35.466 329.898 36.112C328.91 36.758 328.15 37.689 327.618 38.905C327.086 40.121 326.82 41.584 326.82 43.294V43.75C326.82 45.688 327.105 47.284 327.675 48.538C328.283 49.754 329.176 50.666 330.354 51.274C331.57 51.882 333.071 52.186 334.857 52.186C336.377 52.186 337.916 51.958 339.474 51.502C341.032 51.046 342.438 50.343 343.692 49.393L345.972 55.15C344.566 56.214 342.837 57.069 340.785 57.715C338.771 58.323 336.738 58.627 334.686 58.627Z" fill="white"/>
<path d="M111.681 117L130.149 76.815H137.274L155.742 117H146.85L142.062 105.828L145.596 108.279H121.827L125.361 105.828L120.63 117H111.681ZM133.626 86.22L126.33 103.605L124.791 101.382H142.632L141.093 103.605L133.74 86.22H133.626ZM171.819 117.627C168.779 117.627 166.119 117.038 163.839 115.86C161.597 114.644 159.868 112.934 158.652 110.73C157.436 108.526 156.828 105.923 156.828 102.921C156.828 99.919 157.436 97.335 158.652 95.169C159.868 93.003 161.597 91.35 163.839 90.21C166.119 89.032 168.779 88.443 171.819 88.443C173.643 88.443 175.448 88.709 177.234 89.241C179.058 89.773 180.54 90.533 181.68 91.521L179.286 97.449C178.374 96.689 177.31 96.1 176.094 95.682C174.878 95.226 173.738 94.998 172.674 94.998C170.432 94.998 168.684 95.701 167.43 97.107C166.214 98.475 165.606 100.432 165.606 102.978C165.606 105.486 166.214 107.462 167.43 108.906C168.684 110.312 170.432 111.015 172.674 111.015C173.738 111.015 174.878 110.806 176.094 110.388C177.31 109.97 178.374 109.362 179.286 108.564L181.68 114.492C180.54 115.442 179.058 116.202 177.234 116.772C175.41 117.342 173.605 117.627 171.819 117.627ZM185.416 117V76.815H194.023V94.257H193.225C194.099 92.395 195.391 90.97 197.101 89.982C198.849 88.956 200.825 88.443 203.029 88.443C205.271 88.443 207.114 88.88 208.558 89.754C210.002 90.59 211.085 91.882 211.807 93.63C212.529 95.34 212.89 97.525 212.89 100.185V117H204.283V100.584C204.283 99.292 204.112 98.247 203.77 97.449C203.466 96.613 202.991 96.024 202.345 95.682C201.737 95.302 200.958 95.112 200.008 95.112C198.792 95.112 197.728 95.378 196.816 95.91C195.942 96.404 195.258 97.126 194.764 98.076C194.27 99.026 194.023 100.128 194.023 101.382V117H185.416ZM218.973 83.598V75.561H228.264V83.598H218.973ZM219.315 117V89.013H227.922V117H219.315ZM249.102 117.627C245.796 117.627 242.946 117.038 240.552 115.86C238.196 114.644 236.372 112.953 235.08 110.787C233.826 108.583 233.199 105.999 233.199 103.035C233.199 100.147 233.807 97.62 235.023 95.454C236.239 93.25 237.93 91.54 240.096 90.324C242.3 89.07 244.789 88.443 247.563 88.443C250.299 88.443 252.655 89.032 254.631 90.21C256.607 91.35 258.127 92.984 259.191 95.112C260.293 97.24 260.844 99.767 260.844 102.693V104.859H240.267V100.413H254.631L253.719 101.211C253.719 98.893 253.206 97.145 252.18 95.967C251.192 94.751 249.767 94.143 247.905 94.143C246.499 94.143 245.302 94.466 244.314 95.112C243.326 95.758 242.566 96.689 242.034 97.905C241.502 99.121 241.236 100.584 241.236 102.294V102.75C241.236 104.688 241.521 106.284 242.091 107.538C242.699 108.754 243.592 109.666 244.77 110.274C245.986 110.882 247.487 111.186 249.273 111.186C250.793 111.186 252.332 110.958 253.89 110.502C255.448 110.046 256.854 109.343 258.108 108.393L260.388 114.15C258.982 115.214 257.253 116.069 255.201 116.715C253.187 117.323 251.154 117.627 249.102 117.627ZM273.614 117L261.416 89.013H270.479L278.345 109.077H276.521L284.729 89.013H293.222L280.853 117H273.614ZM309.665 117.627C306.359 117.627 303.509 117.038 301.115 115.86C298.759 114.644 296.935 112.953 295.643 110.787C294.389 108.583 293.762 105.999 293.762 103.035C293.762 100.147 294.37 97.62 295.586 95.454C296.802 93.25 298.493 91.54 300.659 90.324C302.863 89.07 305.352 88.443 308.126 88.443C310.862 88.443 313.218 89.032 315.194 90.21C317.17 91.35 318.69 92.984 319.754 95.112C320.856 97.24 321.407 99.767 321.407 102.693V104.859H300.83V100.413H315.194L314.282 101.211C314.282 98.893 313.769 97.145 312.743 95.967C311.755 94.751 310.33 94.143 308.468 94.143C307.062 94.143 305.865 94.466 304.877 95.112C303.889 95.758 303.129 96.689 302.597 97.905C302.065 99.121 301.799 100.584 301.799 102.294V102.75C301.799 104.688 302.084 106.284 302.654 107.538C303.262 108.754 304.155 109.666 305.333 110.274C306.549 110.882 308.05 111.186 309.836 111.186C311.356 111.186 312.895 110.958 314.453 110.502C316.011 110.046 317.417 109.343 318.671 108.393L320.951 114.15C319.545 115.214 317.816 116.069 315.764 116.715C313.75 117.323 311.717 117.627 309.665 117.627ZM326.527 117V89.013H334.963V94.257H334.336C334.83 93.079 335.514 92.053 336.388 91.179C337.262 90.305 338.307 89.64 339.523 89.184C340.739 88.69 342.069 88.443 343.513 88.443C345.679 88.443 347.484 88.956 348.928 89.982C350.372 91.008 351.398 92.585 352.006 94.713H351.208C352.044 92.775 353.317 91.255 355.027 90.153C356.775 89.013 358.77 88.443 361.012 88.443C363.178 88.443 364.945 88.88 366.313 89.754C367.719 90.59 368.764 91.882 369.448 93.63C370.132 95.34 370.474 97.525 370.474 100.185V117H361.867V100.47C361.867 98.608 361.563 97.259 360.955 96.423C360.385 95.549 359.397 95.112 357.991 95.112C356.927 95.112 355.996 95.378 355.198 95.91C354.4 96.404 353.792 97.145 353.374 98.133C352.994 99.083 352.804 100.261 352.804 101.667V117H344.197V100.47C344.197 98.608 343.893 97.259 343.285 96.423C342.715 95.549 341.727 95.112 340.321 95.112C339.219 95.112 338.288 95.378 337.528 95.91C336.768 96.404 336.179 97.145 335.761 98.133C335.343 99.083 335.134 100.261 335.134 101.667V117H326.527ZM391.602 117.627C388.296 117.627 385.446 117.038 383.052 115.86C380.696 114.644 378.872 112.953 377.58 110.787C376.326 108.583 375.699 105.999 375.699 103.035C375.699 100.147 376.307 97.62 377.523 95.454C378.739 93.25 380.43 91.54 382.596 90.324C384.8 89.07 387.289 88.443 390.063 88.443C392.799 88.443 395.155 89.032 397.131 90.21C399.107 91.35 400.627 92.984 401.691 95.112C402.793 97.24 403.344 99.767 403.344 102.693V104.859H382.767V100.413H397.131L396.219 101.211C396.219 98.893 395.706 97.145 394.68 95.967C393.692 94.751 392.267 94.143 390.405 94.143C388.999 94.143 387.802 94.466 386.814 95.112C385.826 95.758 385.066 96.689 384.534 97.905C384.002 99.121 383.736 100.584 383.736 102.294V102.75C383.736 104.688 384.021 106.284 384.591 107.538C385.199 108.754 386.092 109.666 387.27 110.274C388.486 110.882 389.987 111.186 391.773 111.186C393.293 111.186 394.832 110.958 396.39 110.502C397.948 110.046 399.354 109.343 400.608 108.393L402.888 114.15C401.482 115.214 399.753 116.069 397.701 116.715C395.687 117.323 393.654 117.627 391.602 117.627ZM408.35 117V89.013H416.786V94.257H416.159C417.033 92.395 418.325 90.97 420.035 89.982C421.783 88.956 423.759 88.443 425.963 88.443C428.205 88.443 430.048 88.88 431.492 89.754C432.936 90.59 434.019 91.882 434.741 93.63C435.463 95.34 435.824 97.525 435.824 100.185V117H427.217V100.584C427.217 99.292 427.046 98.247 426.704 97.449C426.4 96.613 425.925 96.024 425.279 95.682C424.671 95.302 423.892 95.112 422.942 95.112C421.726 95.112 420.662 95.378 419.75 95.91C418.876 96.404 418.192 97.126 417.698 98.076C417.204 99.026 416.957 100.128 416.957 101.382V117H408.35ZM455.987 117.627C451.997 117.627 449.033 116.658 447.095 114.72C445.157 112.782 444.188 109.932 444.188 106.17V95.454H438.887V89.013H444.188V80.805H452.795V89.013H461.06V95.454H452.795V105.828C452.795 107.424 453.156 108.621 453.878 109.419C454.638 110.217 455.835 110.616 457.469 110.616C457.963 110.616 458.476 110.559 459.008 110.445C459.578 110.331 460.186 110.179 460.832 109.989L462.086 116.259C461.288 116.677 460.338 117 459.236 117.228C458.134 117.494 457.051 117.627 455.987 117.627ZM476.011 117.627C474.377 117.627 472.8 117.494 471.28 117.228C469.76 116.962 468.373 116.601 467.119 116.145C465.865 115.689 464.763 115.119 463.813 114.435L465.865 108.849C466.815 109.419 467.841 109.932 468.943 110.388C470.083 110.806 471.261 111.129 472.477 111.357C473.693 111.585 474.89 111.699 476.068 111.699C477.702 111.699 478.88 111.452 479.602 110.958C480.362 110.426 480.742 109.742 480.742 108.906C480.742 108.146 480.495 107.576 480.001 107.196C479.507 106.816 478.785 106.55 477.835 106.398L471.85 105.315C469.494 104.897 467.67 104.042 466.378 102.75C465.124 101.42 464.497 99.729 464.497 97.677C464.497 95.777 465.029 94.143 466.093 92.775C467.157 91.369 468.62 90.305 470.482 89.583C472.382 88.823 474.529 88.443 476.923 88.443C478.291 88.443 479.621 88.557 480.913 88.785C482.205 89.013 483.421 89.355 484.561 89.811C485.739 90.267 486.784 90.875 487.696 91.635L485.53 97.164C484.808 96.594 483.953 96.1 482.965 95.682C481.977 95.264 480.97 94.941 479.944 94.713C478.918 94.447 477.949 94.314 477.037 94.314C475.327 94.314 474.092 94.599 473.332 95.169C472.572 95.701 472.192 96.385 472.192 97.221C472.192 97.867 472.401 98.418 472.819 98.874C473.275 99.292 473.959 99.577 474.871 99.729L480.856 100.812C483.326 101.23 485.207 102.066 486.499 103.32C487.791 104.536 488.437 106.208 488.437 108.336C488.437 110.274 487.924 111.946 486.898 113.352C485.872 114.72 484.428 115.784 482.566 116.544C480.704 117.266 478.519 117.627 476.011 117.627Z" fill="white"/>
<path d="M89.6201 13.6602L89.6934 13.7325L89.8389 13.876C90.3682 14.3975 90.8876 15.3418 90.7266 16.502C90.6301 17.1952 90.2982 17.8986 89.6797 18.583H110.131V19.333C110.131 26.0799 108.183 36.4723 102.339 45.8116C96.5041 55.1351 86.7871 63.3993 71.3145 65.919L69.2861 67.6192C69.7071 67.8675 70.1115 68.1543 70.4521 68.4795C71.0589 69.0589 71.5892 69.88 71.4238 70.8653V70.8662C71.2612 71.8294 70.4795 72.6491 69.2285 73.3535C68.0592 74.0118 66.3502 74.6407 63.9648 75.2325C64.5379 79.7557 65.6773 86.2433 67.3398 91.793C68.2133 94.7086 69.2206 97.3285 70.3438 99.2627C71.4942 101.244 72.6483 102.299 73.7285 102.477H73.7295L74.1484 102.546L74.3574 102.581V108.534L74.3682 108.663C74.4229 109.015 74.6976 109.686 75.5918 109.989L75.6152 109.997L75.6279 110.001L75.6396 110.007L75.6611 110.017C76.2053 110.263 76.9507 111.04 76.7568 112.317V116.373H33.374V112.317C33.1801 111.04 33.9257 110.263 34.4697 110.017L34.4912 110.007L34.5029 110.001L34.5156 109.997L34.5391 109.989C35.4337 109.686 35.7081 109.015 35.7627 108.663L35.7734 108.534V102.581L35.9824 102.546L36.4014 102.477H36.4023C37.4826 102.299 38.6365 101.244 39.7871 99.2627C40.9102 97.3285 41.9175 94.7086 42.791 91.793C44.4536 86.2432 45.593 79.7558 46.166 75.2325C43.7805 74.6407 42.0716 74.0119 40.9023 73.3535C39.6514 72.649 38.8696 71.8295 38.707 70.8662V70.8653C38.5416 69.8801 39.0721 69.0589 39.6787 68.4795C40.0193 68.1544 40.4238 67.8675 40.8447 67.6192L38.8164 65.919C23.3437 63.3992 13.6267 55.1352 7.79199 45.8116C1.94778 36.4722 6.79195e-05 26.08 0 19.333V18.583H20.4512C19.8326 17.8986 19.5007 17.1953 19.4043 16.502C19.2433 15.342 19.7628 14.3976 20.292 13.876L20.4375 13.7325L20.5107 13.6602H89.6201ZM9.54883 26.2774C12.3004 45.5846 25.8132 54.8162 33.0557 57.3819C30.0187 53.9231 27.6443 48.2698 25.8916 42.5225C24.0417 36.4564 22.8708 30.2396 22.3457 26.2774H9.54883ZM87.7852 26.2774C87.26 30.2396 86.0891 36.4565 84.2393 42.5225C82.4866 48.2697 80.1122 53.9232 77.0752 57.3819C84.3177 54.8163 97.8314 45.5848 100.583 26.2774H87.7852Z" fill="url(#paint0_linear_2018_987)"/>
<path d="M55.5185 25.8579L65.3143 31.607V43.1053L55.5185 48.8545L45.7227 43.1053V31.607L55.5185 25.8579Z" fill="url(#paint1_linear_2018_987)" stroke="#6763A1" stroke-linejoin="round"/>
<path opacity="0.5" d="M55.5185 25.8579L65.3143 31.607V43.1053L55.5185 48.8545L45.7227 43.1053V31.607L55.5185 25.8579Z" fill="url(#paint2_linear_2018_987)"/>
<path d="M55.5185 25.8579L65.3143 31.607V43.1053L55.5185 48.8545L45.7227 43.1053V31.607L55.5185 25.8579Z" fill="url(#paint3_linear_2018_987)" stroke="#736FA1" stroke-linejoin="round"/>
<path d="M55.5187 30.1165L61.0555 33.7363V41.4019L55.5187 45.0217L49.9819 41.4019V33.7363L55.5187 30.1165Z" fill="white" fill-opacity="0.2"/>
<path opacity="0.5" d="M55.5185 25.8579L65.3143 31.607V43.1053L55.5185 48.8545L45.7227 43.1053V31.607L55.5185 25.8579Z" fill="url(#paint4_linear_2018_987)"/>
<defs>
<linearGradient id="paint0_linear_2018_987" x1="0.25" y1="65.0166" x2="109.881" y2="65.0166" gradientUnits="userSpaceOnUse">
<stop stop-color="#DAA33A"/>
<stop offset="0.25" stop-color="#D2C8B6"/>
<stop offset="0.5" stop-color="#FFA000"/>
<stop offset="0.75" stop-color="#DED2C0"/>
<stop offset="1" stop-color="#F8CD92"/>
</linearGradient>
<linearGradient id="paint1_linear_2018_987" x1="45.7227" y1="25.8579" x2="68.4271" y2="45.2007" gradientUnits="userSpaceOnUse">
<stop stop-color="#E91E63"/>
<stop offset="0.2" stop-color="#9C27B0"/>
<stop offset="0.4" stop-color="#3F51B5"/>
<stop offset="0.6" stop-color="#2196F3"/>
<stop offset="0.8" stop-color="#00BCD4"/>
<stop offset="1" stop-color="#4CAF50"/>
</linearGradient>
<linearGradient id="paint2_linear_2018_987" x1="45.7227" y1="25.8579" x2="68.4271" y2="45.2007" gradientUnits="userSpaceOnUse">
<stop stop-color="white" stop-opacity="0"/>
<stop offset="0.45" stop-color="white" stop-opacity="0"/>
<stop offset="0.55" stop-color="white" stop-opacity="0.4"/>
<stop offset="0.7" stop-color="white" stop-opacity="0"/>
<stop offset="1" stop-color="white" stop-opacity="0"/>
</linearGradient>
<linearGradient id="paint3_linear_2018_987" x1="45.7227" y1="25.8579" x2="68.4271" y2="45.2007" gradientUnits="userSpaceOnUse">
<stop stop-color="#E91E63"/>
<stop offset="0.2" stop-color="#9C27B0"/>
<stop offset="0.4" stop-color="#3F51B5"/>
<stop offset="0.6" stop-color="#2196F3"/>
<stop offset="0.8" stop-color="#00BCD4"/>
<stop offset="1" stop-color="#4CAF50"/>
</linearGradient>
<linearGradient id="paint4_linear_2018_987" x1="45.7227" y1="25.8579" x2="68.4271" y2="45.2007" gradientUnits="userSpaceOnUse">
<stop stop-color="white" stop-opacity="0"/>
<stop offset="0.45" stop-color="white" stop-opacity="0"/>
<stop offset="0.55" stop-color="white" stop-opacity="0.4"/>
<stop offset="0.7" stop-color="white" stop-opacity="0"/>
<stop offset="1" stop-color="white" stop-opacity="0"/>
</linearGradient>
</defs>
</svg>
