<svg width="494" height="136" viewBox="0 0 494 136" fill="none" xmlns="http://www.w3.org/2000/svg">
<path d="M130.106 58V17.815H148.46C151.462 17.815 154.008 18.328 156.098 19.354C158.188 20.38 159.765 21.843 160.829 23.743C161.931 25.643 162.482 27.942 162.482 30.64C162.482 33.338 161.931 35.656 160.829 37.594C159.765 39.494 158.188 40.957 156.098 41.983C154.008 43.009 151.462 43.522 148.46 43.522H138.941V58H130.106ZM138.941 36.682H146.978C149.258 36.682 150.987 36.169 152.165 35.143C153.381 34.117 153.989 32.616 153.989 30.64C153.989 28.664 153.381 27.182 152.165 26.194C150.987 25.206 149.258 24.712 146.978 24.712H138.941V36.682ZM177.648 58.627C174.038 58.627 171.397 57.696 169.725 55.834C168.053 53.934 167.217 51.122 167.217 47.398V17.815H175.824V47.056C175.824 48.006 175.976 48.842 176.28 49.564C176.584 50.248 177.021 50.761 177.591 51.103C178.199 51.445 178.959 51.616 179.871 51.616C180.251 51.616 180.65 51.597 181.068 51.559C181.486 51.521 181.885 51.445 182.265 51.331L182.151 58C181.429 58.19 180.688 58.342 179.928 58.456C179.206 58.57 178.446 58.627 177.648 58.627ZM195.66 58.627C193.608 58.627 191.765 58.228 190.131 57.43C188.497 56.632 187.224 55.549 186.312 54.181C185.4 52.813 184.944 51.274 184.944 49.564C184.944 47.512 185.476 45.897 186.54 44.719C187.604 43.503 189.333 42.648 191.727 42.154C194.121 41.622 197.294 41.356 201.246 41.356H204.267V45.802H201.303C199.821 45.802 198.567 45.859 197.541 45.973C196.553 46.087 195.736 46.296 195.09 46.6C194.444 46.866 193.969 47.208 193.665 47.626C193.399 48.044 193.266 48.576 193.266 49.222C193.266 50.286 193.627 51.16 194.349 51.844C195.109 52.528 196.192 52.87 197.598 52.87C198.7 52.87 199.669 52.623 200.505 52.129C201.379 51.597 202.063 50.894 202.557 50.02C203.051 49.108 203.298 48.082 203.298 46.942V40.387C203.298 38.715 202.918 37.537 202.158 36.853C201.398 36.131 200.106 35.77 198.282 35.77C196.762 35.77 195.147 36.017 193.437 36.511C191.765 36.967 190.093 37.67 188.421 38.62L186.084 32.863C187.072 32.179 188.269 31.59 189.675 31.096C191.119 30.564 192.62 30.165 194.178 29.899C195.736 29.595 197.218 29.443 198.624 29.443C201.55 29.443 203.944 29.88 205.806 30.754C207.706 31.59 209.131 32.901 210.081 34.687C211.031 36.435 211.506 38.696 211.506 41.47V58H203.469V52.357H203.868C203.64 53.649 203.146 54.77 202.386 55.72C201.664 56.632 200.733 57.354 199.593 57.886C198.453 58.38 197.142 58.627 195.66 58.627ZM219.814 68.26L225.97 54.751V58.285L213.658 30.013H222.721L230.644 50.077H228.82L236.971 30.013H245.521L228.592 68.26H219.814ZM248.041 58V30.013H256.477V35.257H255.85C256.724 33.395 258.016 31.97 259.726 30.982C261.474 29.956 263.45 29.443 265.654 29.443C267.896 29.443 269.739 29.88 271.183 30.754C272.627 31.59 273.71 32.882 274.432 34.63C275.154 36.34 275.515 38.525 275.515 41.185V58H266.908V41.584C266.908 40.292 266.737 39.247 266.395 38.449C266.091 37.613 265.616 37.024 264.97 36.682C264.362 36.302 263.583 36.112 262.633 36.112C261.417 36.112 260.353 36.378 259.441 36.91C258.567 37.404 257.883 38.126 257.389 39.076C256.895 40.026 256.648 41.128 256.648 42.382V58H248.041ZM281.598 24.598V16.561H290.889V24.598H281.598ZM281.94 58V30.013H290.547V58H281.94ZM310.929 58.627C306.939 58.627 303.975 57.658 302.037 55.72C300.099 53.782 299.13 50.932 299.13 47.17V36.454H293.829V30.013H299.13V21.805H307.737V30.013H316.002V36.454H307.737V46.828C307.737 48.424 308.098 49.621 308.82 50.419C309.58 51.217 310.777 51.616 312.411 51.616C312.905 51.616 313.418 51.559 313.95 51.445C314.52 51.331 315.128 51.179 315.774 50.989L317.028 57.259C316.23 57.677 315.28 58 314.178 58.228C313.076 58.494 311.993 58.627 310.929 58.627ZM334.494 58.627C331.188 58.627 328.338 58.038 325.944 56.86C323.588 55.644 321.764 53.953 320.472 51.787C319.218 49.583 318.591 46.999 318.591 44.035C318.591 41.147 319.199 38.62 320.415 36.454C321.631 34.25 323.322 32.54 325.488 31.324C327.692 30.07 330.181 29.443 332.955 29.443C335.691 29.443 338.047 30.032 340.023 31.21C341.999 32.35 343.519 33.984 344.583 36.112C345.685 38.24 346.236 40.767 346.236 43.693V45.859H325.659V41.413H340.023L339.111 42.211C339.111 39.893 338.598 38.145 337.572 36.967C336.584 35.751 335.159 35.143 333.297 35.143C331.891 35.143 330.694 35.466 329.706 36.112C328.718 36.758 327.958 37.689 327.426 38.905C326.894 40.121 326.628 41.584 326.628 43.294V43.75C326.628 45.688 326.913 47.284 327.483 48.538C328.091 49.754 328.984 50.666 330.162 51.274C331.378 51.882 332.879 52.186 334.665 52.186C336.185 52.186 337.724 51.958 339.282 51.502C340.84 51.046 342.246 50.343 343.5 49.393L345.78 55.15C344.374 56.214 342.645 57.069 340.593 57.715C338.579 58.323 336.546 58.627 334.494 58.627Z" fill="white"/>
<path d="M111.488 117L129.956 76.815H137.081L155.549 117H146.657L141.869 105.828L145.403 108.279H121.634L125.168 105.828L120.437 117H111.488ZM133.433 86.22L126.137 103.605L124.598 101.382H142.439L140.9 103.605L133.547 86.22H133.433ZM171.625 117.627C168.585 117.627 165.925 117.038 163.645 115.86C161.403 114.644 159.674 112.934 158.458 110.73C157.242 108.526 156.634 105.923 156.634 102.921C156.634 99.919 157.242 97.335 158.458 95.169C159.674 93.003 161.403 91.35 163.645 90.21C165.925 89.032 168.585 88.443 171.625 88.443C173.449 88.443 175.254 88.709 177.04 89.241C178.864 89.773 180.346 90.533 181.486 91.521L179.092 97.449C178.18 96.689 177.116 96.1 175.9 95.682C174.684 95.226 173.544 94.998 172.48 94.998C170.238 94.998 168.49 95.701 167.236 97.107C166.02 98.475 165.412 100.432 165.412 102.978C165.412 105.486 166.02 107.462 167.236 108.906C168.49 110.312 170.238 111.015 172.48 111.015C173.544 111.015 174.684 110.806 175.9 110.388C177.116 109.97 178.18 109.362 179.092 108.564L181.486 114.492C180.346 115.442 178.864 116.202 177.04 116.772C175.216 117.342 173.411 117.627 171.625 117.627ZM185.222 117V76.815H193.829V94.257H193.031C193.905 92.395 195.197 90.97 196.907 89.982C198.655 88.956 200.631 88.443 202.835 88.443C205.077 88.443 206.92 88.88 208.364 89.754C209.808 90.59 210.891 91.882 211.613 93.63C212.335 95.34 212.696 97.525 212.696 100.185V117H204.089V100.584C204.089 99.292 203.918 98.247 203.576 97.449C203.272 96.613 202.797 96.024 202.151 95.682C201.543 95.302 200.764 95.112 199.814 95.112C198.598 95.112 197.534 95.378 196.622 95.91C195.748 96.404 195.064 97.126 194.57 98.076C194.076 99.026 193.829 100.128 193.829 101.382V117H185.222ZM218.779 83.598V75.561H228.07V83.598H218.779ZM219.121 117V89.013H227.728V117H219.121ZM248.908 117.627C245.602 117.627 242.752 117.038 240.358 115.86C238.002 114.644 236.178 112.953 234.886 110.787C233.632 108.583 233.005 105.999 233.005 103.035C233.005 100.147 233.613 97.62 234.829 95.454C236.045 93.25 237.736 91.54 239.902 90.324C242.106 89.07 244.595 88.443 247.369 88.443C250.105 88.443 252.461 89.032 254.437 90.21C256.413 91.35 257.933 92.984 258.997 95.112C260.099 97.24 260.65 99.767 260.65 102.693V104.859H240.073V100.413H254.437L253.525 101.211C253.525 98.893 253.012 97.145 251.986 95.967C250.998 94.751 249.573 94.143 247.711 94.143C246.305 94.143 245.108 94.466 244.12 95.112C243.132 95.758 242.372 96.689 241.84 97.905C241.308 99.121 241.042 100.584 241.042 102.294V102.75C241.042 104.688 241.327 106.284 241.897 107.538C242.505 108.754 243.398 109.666 244.576 110.274C245.792 110.882 247.293 111.186 249.079 111.186C250.599 111.186 252.138 110.958 253.696 110.502C255.254 110.046 256.66 109.343 257.914 108.393L260.194 114.15C258.788 115.214 257.059 116.069 255.007 116.715C252.993 117.323 250.96 117.627 248.908 117.627ZM273.421 117L261.223 89.013H270.286L278.152 109.077H276.328L284.536 89.013H293.029L280.66 117H273.421ZM309.471 117.627C306.165 117.627 303.315 117.038 300.921 115.86C298.565 114.644 296.741 112.953 295.449 110.787C294.195 108.583 293.568 105.999 293.568 103.035C293.568 100.147 294.176 97.62 295.392 95.454C296.608 93.25 298.299 91.54 300.465 90.324C302.669 89.07 305.158 88.443 307.932 88.443C310.668 88.443 313.024 89.032 315 90.21C316.976 91.35 318.496 92.984 319.56 95.112C320.662 97.24 321.213 99.767 321.213 102.693V104.859H300.636V100.413H315L314.088 101.211C314.088 98.893 313.575 97.145 312.549 95.967C311.561 94.751 310.136 94.143 308.274 94.143C306.868 94.143 305.671 94.466 304.683 95.112C303.695 95.758 302.935 96.689 302.403 97.905C301.871 99.121 301.605 100.584 301.605 102.294V102.75C301.605 104.688 301.89 106.284 302.46 107.538C303.068 108.754 303.961 109.666 305.139 110.274C306.355 110.882 307.856 111.186 309.642 111.186C311.162 111.186 312.701 110.958 314.259 110.502C315.817 110.046 317.223 109.343 318.477 108.393L320.757 114.15C319.351 115.214 317.622 116.069 315.57 116.715C313.556 117.323 311.523 117.627 309.471 117.627ZM326.333 117V89.013H334.769V94.257H334.142C334.636 93.079 335.32 92.053 336.194 91.179C337.068 90.305 338.113 89.64 339.329 89.184C340.545 88.69 341.875 88.443 343.319 88.443C345.485 88.443 347.29 88.956 348.734 89.982C350.178 91.008 351.204 92.585 351.812 94.713H351.014C351.85 92.775 353.123 91.255 354.833 90.153C356.581 89.013 358.576 88.443 360.818 88.443C362.984 88.443 364.751 88.88 366.119 89.754C367.525 90.59 368.57 91.882 369.254 93.63C369.938 95.34 370.28 97.525 370.28 100.185V117H361.673V100.47C361.673 98.608 361.369 97.259 360.761 96.423C360.191 95.549 359.203 95.112 357.797 95.112C356.733 95.112 355.802 95.378 355.004 95.91C354.206 96.404 353.598 97.145 353.18 98.133C352.8 99.083 352.61 100.261 352.61 101.667V117H344.003V100.47C344.003 98.608 343.699 97.259 343.091 96.423C342.521 95.549 341.533 95.112 340.127 95.112C339.025 95.112 338.094 95.378 337.334 95.91C336.574 96.404 335.985 97.145 335.567 98.133C335.149 99.083 334.94 100.261 334.94 101.667V117H326.333ZM391.408 117.627C388.102 117.627 385.252 117.038 382.858 115.86C380.502 114.644 378.678 112.953 377.386 110.787C376.132 108.583 375.505 105.999 375.505 103.035C375.505 100.147 376.113 97.62 377.329 95.454C378.545 93.25 380.236 91.54 382.402 90.324C384.606 89.07 387.095 88.443 389.869 88.443C392.605 88.443 394.961 89.032 396.937 90.21C398.913 91.35 400.433 92.984 401.497 95.112C402.599 97.24 403.15 99.767 403.15 102.693V104.859H382.573V100.413H396.937L396.025 101.211C396.025 98.893 395.512 97.145 394.486 95.967C393.498 94.751 392.073 94.143 390.211 94.143C388.805 94.143 387.608 94.466 386.62 95.112C385.632 95.758 384.872 96.689 384.34 97.905C383.808 99.121 383.542 100.584 383.542 102.294V102.75C383.542 104.688 383.827 106.284 384.397 107.538C385.005 108.754 385.898 109.666 387.076 110.274C388.292 110.882 389.793 111.186 391.579 111.186C393.099 111.186 394.638 110.958 396.196 110.502C397.754 110.046 399.16 109.343 400.414 108.393L402.694 114.15C401.288 115.214 399.559 116.069 397.507 116.715C395.493 117.323 393.46 117.627 391.408 117.627ZM408.157 117V89.013H416.593V94.257H415.966C416.84 92.395 418.132 90.97 419.842 89.982C421.59 88.956 423.566 88.443 425.77 88.443C428.012 88.443 429.855 88.88 431.299 89.754C432.743 90.59 433.826 91.882 434.548 93.63C435.27 95.34 435.631 97.525 435.631 100.185V117H427.024V100.584C427.024 99.292 426.853 98.247 426.511 97.449C426.207 96.613 425.732 96.024 425.086 95.682C424.478 95.302 423.699 95.112 422.749 95.112C421.533 95.112 420.469 95.378 419.557 95.91C418.683 96.404 417.999 97.126 417.505 98.076C417.011 99.026 416.764 100.128 416.764 101.382V117H408.157ZM455.793 117.627C451.803 117.627 448.839 116.658 446.901 114.72C444.963 112.782 443.994 109.932 443.994 106.17V95.454H438.693V89.013H443.994V80.805H452.601V89.013H460.866V95.454H452.601V105.828C452.601 107.424 452.962 108.621 453.684 109.419C454.444 110.217 455.641 110.616 457.275 110.616C457.769 110.616 458.282 110.559 458.814 110.445C459.384 110.331 459.992 110.179 460.638 109.989L461.892 116.259C461.094 116.677 460.144 117 459.042 117.228C457.94 117.494 456.857 117.627 455.793 117.627ZM475.817 117.627C474.183 117.627 472.606 117.494 471.086 117.228C469.566 116.962 468.179 116.601 466.925 116.145C465.671 115.689 464.569 115.119 463.619 114.435L465.671 108.849C466.621 109.419 467.647 109.932 468.749 110.388C469.889 110.806 471.067 111.129 472.283 111.357C473.499 111.585 474.696 111.699 475.874 111.699C477.508 111.699 478.686 111.452 479.408 110.958C480.168 110.426 480.548 109.742 480.548 108.906C480.548 108.146 480.301 107.576 479.807 107.196C479.313 106.816 478.591 106.55 477.641 106.398L471.656 105.315C469.3 104.897 467.476 104.042 466.184 102.75C464.93 101.42 464.303 99.729 464.303 97.677C464.303 95.777 464.835 94.143 465.899 92.775C466.963 91.369 468.426 90.305 470.288 89.583C472.188 88.823 474.335 88.443 476.729 88.443C478.097 88.443 479.427 88.557 480.719 88.785C482.011 89.013 483.227 89.355 484.367 89.811C485.545 90.267 486.59 90.875 487.502 91.635L485.336 97.164C484.614 96.594 483.759 96.1 482.771 95.682C481.783 95.264 480.776 94.941 479.75 94.713C478.724 94.447 477.755 94.314 476.843 94.314C475.133 94.314 473.898 94.599 473.138 95.169C472.378 95.701 471.998 96.385 471.998 97.221C471.998 97.867 472.207 98.418 472.625 98.874C473.081 99.292 473.765 99.577 474.677 99.729L480.662 100.812C483.132 101.23 485.013 102.066 486.305 103.32C487.597 104.536 488.243 106.208 488.243 108.336C488.243 110.274 487.73 111.946 486.704 113.352C485.678 114.72 484.234 115.784 482.372 116.544C480.51 117.266 478.325 117.627 475.817 117.627Z" fill="white"/>
<path d="M89.1748 13.9414L89.3203 14.085C89.8063 14.5637 90.2826 15.4325 90.1348 16.4971C90.0277 17.2671 89.6029 18.0716 88.7354 18.8594H109.517V19.3594C109.517 26.0608 107.58 36.3957 101.771 45.6807C95.9671 54.9553 86.3 63.1757 70.8818 65.667L68.5303 67.6387C69.0503 67.9168 69.5528 68.2537 69.957 68.6396C70.5386 69.1951 70.999 69.938 70.8535 70.8027C70.7101 71.6528 70.0117 72.42 68.7842 73.1113C67.6095 73.7728 65.8601 74.4144 63.373 75.0186C63.9371 79.5538 65.0881 86.1701 66.7812 91.8223C67.6562 94.7431 68.6684 97.3819 69.8047 99.3389C70.9593 101.327 72.1628 102.474 73.3613 102.671L73.7803 102.739V108.476C73.7804 108.839 74.0391 109.778 75.1846 110.166L75.207 110.174L75.2295 110.184C75.6902 110.392 76.3647 111.077 76.1777 112.241V116.058H33.3389V112.241C33.152 111.077 33.8264 110.392 34.2871 110.184L34.3096 110.174L34.332 110.166C35.4774 109.778 35.7362 108.839 35.7363 108.476V102.739L36.1553 102.671C37.3538 102.474 38.5573 101.327 39.7119 99.3389C40.8481 97.3819 41.8604 94.743 42.7354 91.8223C44.4285 86.1702 45.5795 79.5538 46.1436 75.0186C43.6565 74.4144 41.9071 73.7728 40.7324 73.1113C39.505 72.42 38.8066 71.6527 38.6631 70.8027C38.5177 69.9381 38.978 69.1951 39.5596 68.6396C39.9638 68.2537 40.4663 67.9168 40.9863 67.6387L38.6348 65.667C23.2167 63.1757 13.5495 54.9553 7.74609 45.6807C1.93649 36.3958 5.57303e-05 26.0608 0 19.3594V18.8594H20.7812C19.9138 18.0717 19.4889 17.267 19.3818 16.4971C19.2341 15.4325 19.7103 14.5637 20.1963 14.085L20.3418 13.9414H89.1748ZM8.99902 26.0488C11.7884 46.5076 26.5767 55.8196 33.6221 57.918C26.9981 51.3082 23.308 33.9181 22.291 26.0488H8.99902ZM87.2256 26.0488C86.2086 33.9181 82.5186 51.3082 75.8945 57.918C82.94 55.8196 97.7282 46.5076 100.518 26.0488H87.2256Z" fill="url(#paint0_linear_2018_1010)"/>
<path d="M55.0203 25.4252L65.631 31.5513V43.8036L55.0203 49.9297L44.4096 43.8036V31.5513L55.0203 25.4252Z" fill="url(#paint1_linear_2018_1010)"/>
<defs>
<linearGradient id="paint0_linear_2018_1010" x1="0" y1="64.9995" x2="109.517" y2="64.9995" gradientUnits="userSpaceOnUse">
<stop stop-color="#DAA33A"/>
<stop offset="1" stop-color="#F8CD92"/>
</linearGradient>
<linearGradient id="paint1_linear_2018_1010" x1="42.7681" y1="37.6775" x2="67.2725" y2="37.6775" gradientUnits="userSpaceOnUse">
<stop stop-color="#7841C5"/>
<stop offset="1" stop-color="#2879CB"/>
</linearGradient>
</defs>
</svg>
